{"glyphs":{"0":{"ha":1010,"x_min":81,"x_max":929,"o":"m 929 263 q 911 147 929 199 q 846 58 893 94 q 716 0 799 21 q 506 -21 633 -21 q 295 0 378 -21 q 165 58 213 21 q 99 147 118 94 q 81 263 81 199 l 81 736 q 99 852 81 800 q 165 942 118 904 q 295 1000 213 979 q 506 1021 378 1021 q 716 1000 633 1021 q 846 942 799 979 q 911 852 893 904 q 929 736 929 800 l 929 263 m 394 313 q 415 266 394 285 q 506 247 435 247 q 597 266 576 247 q 617 313 617 285 l 617 686 q 597 731 617 713 q 506 750 576 750 q 415 731 435 750 q 394 686 394 713 l 394 313 z "},"1":{"ha":835,"x_min":67,"x_max":781,"o":"m 731 0 l 117 0 q 78 12 90 0 q 67 50 67 24 l 67 218 q 78 256 67 244 q 117 268 90 268 l 272 268 l 272 732 l 144 732 q 106 744 118 732 q 94 782 94 756 l 94 950 q 106 988 94 976 q 144 1000 118 1000 l 547 1000 q 585 988 574 1000 q 597 950 597 976 l 597 268 l 731 268 q 769 256 757 268 q 781 218 781 244 l 781 50 q 769 12 781 24 q 731 0 757 0 z "},"2":{"ha":888,"x_min":56,"x_max":817,"o":"m 767 0 l 106 0 q 67 12 79 0 q 56 50 56 24 l 56 289 q 72 422 56 369 q 117 507 88 474 q 186 560 146 540 q 274 593 226 579 l 460 651 q 490 668 482 657 q 497 701 497 679 q 489 730 497 722 q 460 738 481 738 l 158 738 q 120 749 132 738 q 108 788 108 761 l 108 950 q 120 988 108 976 q 158 1000 132 1000 l 568 1000 q 749 941 686 1000 q 813 769 813 882 l 813 639 q 754 479 813 535 q 596 393 696 424 l 407 333 q 378 321 386 328 q 371 292 371 314 l 371 263 l 767 263 q 805 251 793 263 q 817 213 817 239 l 817 50 q 805 12 817 24 q 767 0 793 0 z "},"3":{"ha":885,"x_min":68,"x_max":826,"o":"m 118 263 l 467 263 q 510 275 500 263 q 519 304 519 288 l 519 342 q 510 370 519 358 q 467 382 500 382 l 231 382 q 192 394 204 382 q 181 432 181 406 l 181 581 q 192 619 181 607 q 231 631 204 631 l 376 631 q 419 643 410 631 q 429 672 429 656 l 429 693 q 419 722 429 710 q 376 735 410 735 l 118 735 q 80 747 92 735 q 68 785 68 758 l 68 950 q 80 988 68 976 q 118 1000 92 1000 l 506 1000 q 677 947 621 1000 q 733 801 733 893 l 733 721 q 715 629 733 668 q 651 571 697 590 q 788 510 750 560 q 826 369 826 461 l 826 231 q 758 62 826 124 q 557 0 690 0 l 118 0 q 80 12 92 0 q 68 50 68 24 l 68 213 q 80 251 68 239 q 118 263 92 263 z "},"4":{"ha":985,"x_min":88,"x_max":889,"o":"m 575 232 l 340 232 q 147 288 206 232 q 88 463 88 344 l 88 950 q 99 988 88 976 q 138 1000 111 1000 l 353 1000 q 391 988 379 1000 q 403 950 403 976 l 403 569 q 415 535 403 547 q 446 522 426 522 l 575 522 l 575 950 q 587 988 575 976 q 625 1000 599 1000 l 839 1000 q 877 988 865 1000 q 889 950 889 976 l 889 50 q 877 12 889 24 q 839 0 865 0 l 625 0 q 587 12 599 0 q 575 50 575 24 l 575 232 z "},"5":{"ha":899,"x_min":76,"x_max":839,"o":"m 568 0 l 126 0 q 88 12 100 0 q 76 50 76 24 l 76 213 q 88 251 76 239 q 126 263 100 263 l 485 263 q 512 270 501 263 q 522 294 522 278 l 522 349 q 512 373 522 365 q 485 381 501 381 l 140 381 q 102 392 114 381 q 90 431 90 404 l 90 950 q 102 988 90 976 q 140 1000 114 1000 l 739 1000 q 777 988 765 1000 q 789 950 789 976 l 789 785 q 777 747 789 758 q 739 735 765 735 l 406 735 l 406 644 l 596 644 q 774 589 708 644 q 839 424 839 533 l 839 231 q 766 63 839 125 q 568 0 693 0 z "},"6":{"ha":963,"x_min":81,"x_max":897,"o":"m 497 -21 q 288 -1 369 -21 q 161 56 207 19 q 98 144 115 93 q 81 260 81 196 l 81 715 q 153 921 81 842 q 422 1000 226 1000 l 742 1000 q 780 988 768 1000 q 792 950 792 976 l 792 786 q 780 748 792 760 q 742 736 768 736 l 482 736 q 413 720 431 736 q 394 653 394 704 l 394 622 q 472 638 428 632 q 571 643 515 643 q 828 580 758 643 q 897 393 897 517 l 897 260 q 880 144 897 196 q 817 56 863 93 q 694 -1 772 19 q 497 -21 617 -21 m 394 364 l 394 282 q 411 245 394 260 q 488 231 428 231 q 567 245 550 231 q 583 282 583 260 l 583 364 q 567 399 583 385 q 488 414 550 414 q 411 399 428 414 q 394 364 394 385 z "},"7":{"ha":871,"x_min":53,"x_max":799,"o":"m 749 1000 q 787 988 775 1000 q 799 950 799 976 l 799 599 q 785 488 799 533 q 746 411 772 442 q 678 360 719 381 q 582 324 638 340 l 479 293 l 479 50 q 467 12 479 24 q 429 0 456 0 l 204 0 q 166 12 178 0 q 154 50 154 24 l 154 301 q 167 413 154 367 q 207 489 181 458 q 274 540 233 519 q 371 576 315 560 l 483 607 l 483 732 l 103 732 q 65 744 76 732 q 53 782 53 756 l 53 950 q 65 988 53 976 q 103 1000 76 1000 l 749 1000 z "},"8":{"ha":988,"x_min":65,"x_max":922,"o":"m 922 356 l 922 221 q 902 122 922 167 q 833 46 882 78 q 702 -3 785 14 q 494 -21 619 -21 q 286 -3 369 -21 q 154 46 203 14 q 85 122 106 78 q 65 221 65 167 l 65 356 q 108 506 65 453 q 213 571 150 558 q 149 629 167 590 q 131 721 131 668 l 131 801 q 149 893 131 853 q 208 962 167 933 q 321 1006 250 990 q 496 1021 392 1021 q 670 1006 600 1021 q 781 962 740 990 q 840 893 822 933 q 857 801 857 853 l 857 721 q 839 629 857 668 q 775 571 821 590 q 880 506 838 558 q 922 356 922 453 m 407 667 q 422 630 407 644 q 494 615 436 615 q 567 630 554 615 q 581 667 581 644 l 581 728 q 567 763 581 749 q 494 778 554 778 q 422 763 436 778 q 407 728 407 749 l 407 667 m 372 274 q 396 237 372 251 q 494 222 419 222 q 592 237 569 222 q 615 274 615 251 l 615 347 q 592 383 615 368 q 494 397 569 397 q 396 383 419 397 q 372 347 372 368 l 372 274 z "},"9":{"ha":963,"x_min":65,"x_max":882,"o":"m 540 0 l 221 0 q 183 12 194 0 q 171 50 171 24 l 171 214 q 183 252 171 240 q 221 264 194 264 l 481 264 q 550 280 532 264 q 568 347 568 296 l 568 378 q 491 363 535 368 q 392 357 447 357 q 135 420 204 357 q 65 607 65 483 l 65 740 q 83 856 65 804 q 145 944 100 907 q 268 1001 190 981 q 465 1021 346 1021 q 674 1001 593 1021 q 801 944 756 981 q 865 856 847 907 q 882 740 882 804 l 882 285 q 809 79 882 158 q 540 0 736 0 m 568 636 l 568 718 q 551 755 568 740 q 475 769 535 769 q 396 755 413 769 q 379 718 379 740 l 379 636 q 396 601 379 615 q 475 586 413 586 q 551 601 535 586 q 568 636 568 615 z "}," ":{"ha":313,"x_min":0,"x_max":0,"o":""},"A":{"ha":1014,"x_min":75,"x_max":939,"o":"m 458 708 l 393 497 l 611 497 l 546 708 q 534 726 540 721 q 519 732 528 732 l 485 732 q 470 726 476 732 q 458 708 464 721 m 379 50 q 367 12 379 24 q 329 0 356 0 l 125 0 q 87 12 99 0 q 75 50 75 24 l 75 417 q 88 513 75 458 q 129 639 101 567 l 250 954 q 276 989 258 978 q 321 1000 293 1000 l 694 1000 q 738 989 721 1000 q 764 954 756 978 l 885 639 q 926 513 913 567 q 939 417 939 458 l 939 50 q 927 12 939 24 q 889 0 915 0 l 679 0 q 638 12 651 0 q 625 50 625 24 l 625 244 l 379 244 l 379 50 z "},"À":{"ha":1014,"x_min":75,"x_max":939,"o":"m 458 708 l 393 497 l 611 497 l 546 708 q 534 726 540 721 q 519 732 528 732 l 485 732 q 470 726 476 732 q 458 708 464 721 m 379 50 q 367 12 379 24 q 329 0 356 0 l 125 0 q 87 12 99 0 q 75 50 75 24 l 75 417 q 88 513 75 458 q 129 639 101 567 l 250 954 q 276 989 258 978 q 321 1000 293 1000 l 694 1000 q 738 989 721 1000 q 764 954 756 978 l 885 639 q 926 513 913 567 q 939 417 939 458 l 939 50 q 927 12 939 24 q 889 0 915 0 l 679 0 q 638 12 651 0 q 625 50 625 24 l 625 244 l 379 244 l 379 50 m 750 1046 l 265 1106 q 227 1119 239 1108 q 215 1156 215 1129 l 215 1289 q 227 1325 215 1313 q 263 1335 239 1338 l 747 1275 q 785 1262 774 1272 q 797 1225 797 1251 l 797 1092 q 785 1056 797 1068 q 750 1046 774 1043 z "},"Á":{"ha":1014,"x_min":75,"x_max":939,"o":"m 458 708 l 393 497 l 611 497 l 546 708 q 534 726 540 721 q 519 732 528 732 l 485 732 q 470 726 476 732 q 458 708 464 721 m 379 50 q 367 12 379 24 q 329 0 356 0 l 125 0 q 87 12 99 0 q 75 50 75 24 l 75 417 q 88 513 75 458 q 129 639 101 567 l 250 954 q 276 989 258 978 q 321 1000 293 1000 l 694 1000 q 738 989 721 1000 q 764 954 756 978 l 885 639 q 926 513 913 567 q 939 417 939 458 l 939 50 q 927 12 939 24 q 889 0 915 0 l 679 0 q 638 12 651 0 q 625 50 625 24 l 625 244 l 379 244 l 379 50 m 747 1106 l 263 1046 q 227 1056 239 1043 q 215 1092 215 1068 l 215 1225 q 227 1262 215 1251 q 265 1275 239 1272 l 750 1335 q 785 1325 774 1338 q 797 1289 797 1313 l 797 1156 q 785 1119 797 1129 q 747 1106 774 1108 z "},"Â":{"ha":1014,"x_min":75,"x_max":939,"o":"m 458 708 l 393 497 l 611 497 l 546 708 q 534 726 540 721 q 519 732 528 732 l 485 732 q 470 726 476 732 q 458 708 464 721 m 379 50 q 367 12 379 24 q 329 0 356 0 l 125 0 q 87 12 99 0 q 75 50 75 24 l 75 417 q 88 513 75 458 q 129 639 101 567 l 250 954 q 276 989 258 978 q 321 1000 293 1000 l 694 1000 q 738 989 721 1000 q 764 954 756 978 l 885 639 q 926 513 913 567 q 939 417 939 458 l 939 50 q 927 12 939 24 q 889 0 915 0 l 679 0 q 638 12 651 0 q 625 50 625 24 l 625 244 l 379 244 l 379 50 m 463 1107 l 272 1051 q 226 1049 238 1040 q 215 1094 215 1057 l 215 1207 q 227 1256 215 1244 q 272 1281 239 1267 l 450 1344 q 477 1353 463 1350 q 504 1357 492 1356 q 528 1356 517 1357 q 549 1350 539 1354 l 739 1281 q 785 1256 774 1267 q 797 1207 797 1244 l 797 1094 q 786 1049 797 1057 q 739 1051 775 1040 l 549 1107 q 506 1113 525 1113 q 463 1107 486 1113 z "},"Ã":{"ha":1014,"x_min":75,"x_max":939,"o":"m 458 708 l 393 497 l 611 497 l 546 708 q 534 726 540 721 q 519 732 528 732 l 485 732 q 470 726 476 732 q 458 708 464 721 m 379 50 q 367 12 379 24 q 329 0 356 0 l 125 0 q 87 12 99 0 q 75 50 75 24 l 75 417 q 88 513 75 458 q 129 639 101 567 l 250 954 q 276 989 258 978 q 321 1000 293 1000 l 694 1000 q 738 989 721 1000 q 764 954 756 978 l 885 639 q 926 513 913 567 q 939 417 939 458 l 939 50 q 927 12 939 24 q 889 0 915 0 l 679 0 q 638 12 651 0 q 625 50 625 24 l 625 244 l 379 244 l 379 50 m 506 1061 l 467 1067 q 401 1074 428 1072 q 354 1074 375 1076 q 313 1067 333 1072 q 265 1054 293 1063 q 228 1056 240 1047 q 215 1090 215 1064 l 215 1231 q 228 1267 215 1257 q 265 1288 242 1278 q 321 1302 299 1297 q 365 1307 343 1307 q 413 1303 386 1307 q 482 1294 440 1300 l 506 1292 l 536 1288 q 609 1278 582 1281 q 656 1276 636 1275 q 696 1283 676 1278 q 746 1299 715 1289 q 783 1297 771 1306 q 796 1263 796 1289 l 796 1122 q 783 1085 796 1096 q 746 1065 769 1075 q 690 1051 713 1056 q 646 1046 668 1046 q 597 1049 624 1046 q 528 1058 569 1053 l 506 1061 z "},"Ä":{"ha":1014,"x_min":75,"x_max":939,"o":"m 458 708 l 393 497 l 611 497 l 546 708 q 534 726 540 721 q 519 732 528 732 l 485 732 q 470 726 476 732 q 458 708 464 721 m 379 50 q 367 12 379 24 q 329 0 356 0 l 125 0 q 87 12 99 0 q 75 50 75 24 l 75 417 q 88 513 75 458 q 129 639 101 567 l 250 954 q 276 989 258 978 q 321 1000 293 1000 l 694 1000 q 738 989 721 1000 q 764 954 756 978 l 885 639 q 926 513 913 567 q 939 417 939 458 l 939 50 q 927 12 939 24 q 889 0 915 0 l 679 0 q 638 12 651 0 q 625 50 625 24 l 625 244 l 379 244 l 379 50 m 779 1056 l 588 1056 q 553 1067 564 1056 q 542 1101 542 1078 l 542 1269 q 553 1304 542 1293 q 588 1315 564 1315 l 779 1315 q 814 1304 803 1315 q 825 1269 825 1293 l 825 1101 q 814 1067 825 1078 q 779 1056 803 1056 m 421 1056 l 229 1056 q 194 1067 206 1056 q 182 1101 182 1078 l 182 1269 q 194 1304 182 1293 q 229 1315 206 1315 l 421 1315 q 456 1304 444 1315 q 467 1269 467 1293 l 467 1101 q 456 1067 467 1078 q 421 1056 444 1056 z "},"Å":{"ha":1014,"x_min":75,"x_max":939,"o":"m 590 1061 l 590 1110 q 575 1151 590 1136 q 508 1165 560 1165 q 443 1151 457 1165 q 429 1110 429 1136 l 429 1061 q 443 1016 429 1031 q 508 1001 457 1001 q 575 1016 560 1001 q 590 1061 590 1031 m 458 708 l 393 497 l 611 497 l 546 708 q 535 726 542 721 q 519 732 528 732 l 485 732 q 469 726 476 732 q 458 708 463 721 m 379 50 q 367 12 379 24 q 329 0 356 0 l 125 0 q 87 12 99 0 q 75 50 75 24 l 75 417 q 88 513 75 458 q 129 639 101 567 l 246 944 q 215 1001 224 969 q 206 1071 206 1033 l 206 1151 q 219 1233 206 1196 q 266 1295 232 1269 q 358 1335 300 1321 q 507 1350 417 1350 q 656 1335 597 1350 q 748 1295 714 1321 q 795 1233 782 1269 q 808 1151 808 1196 l 808 1071 q 799 1001 808 1033 q 768 944 790 969 l 885 639 q 926 513 913 567 q 939 417 939 458 l 939 50 q 927 12 939 24 q 889 0 915 0 l 679 0 q 638 12 651 0 q 625 50 625 24 l 625 244 l 379 244 l 379 50 z "},"Ā":{"ha":1014,"x_min":75,"x_max":939,"o":"m 458 708 l 393 497 l 611 497 l 546 708 q 534 726 540 721 q 519 732 528 732 l 485 732 q 470 726 476 732 q 458 708 464 721 m 379 50 q 367 12 379 24 q 329 0 356 0 l 125 0 q 87 12 99 0 q 75 50 75 24 l 75 417 q 88 513 75 458 q 129 639 101 567 l 250 954 q 276 989 258 978 q 321 1000 293 1000 l 694 1000 q 738 989 721 1000 q 764 954 756 978 l 885 639 q 926 513 913 567 q 939 417 939 458 l 939 50 q 927 12 939 24 q 889 0 915 0 l 679 0 q 638 12 651 0 q 625 50 625 24 l 625 244 l 379 244 l 379 50 m 747 1056 l 265 1056 q 227 1067 239 1056 q 215 1106 215 1079 l 215 1235 q 227 1273 215 1261 q 265 1285 239 1285 l 747 1285 q 785 1273 774 1285 q 797 1235 797 1261 l 797 1106 q 785 1067 797 1079 q 747 1056 774 1056 z "},"Ă":{"ha":1014,"x_min":75,"x_max":939,"o":"m 458 708 l 393 497 l 611 497 l 546 708 q 534 726 540 721 q 519 732 528 732 l 485 732 q 470 726 476 732 q 458 708 464 721 m 379 50 q 367 12 379 24 q 329 0 356 0 l 125 0 q 87 12 99 0 q 75 50 75 24 l 75 417 q 88 513 75 458 q 129 639 101 567 l 250 954 q 276 989 258 978 q 321 1000 293 1000 l 694 1000 q 738 989 721 1000 q 764 954 756 978 l 885 639 q 926 513 913 567 q 939 417 939 458 l 939 50 q 927 12 939 24 q 889 0 915 0 l 679 0 q 638 12 651 0 q 625 50 625 24 l 625 244 l 379 244 l 379 50 m 808 1246 q 795 1165 808 1201 q 748 1102 782 1128 q 656 1062 714 1076 q 507 1047 597 1047 q 358 1062 417 1047 q 266 1102 300 1076 q 219 1165 232 1128 q 206 1246 206 1201 l 206 1307 q 217 1345 206 1333 q 256 1357 229 1357 l 389 1357 q 420 1348 411 1357 q 429 1314 429 1339 l 429 1285 q 443 1252 429 1265 q 508 1239 457 1239 q 575 1252 560 1239 q 590 1285 590 1265 l 590 1314 q 599 1348 590 1339 q 632 1357 608 1357 l 758 1357 q 797 1345 785 1357 q 808 1307 808 1333 l 808 1246 z "},"Ą":{"ha":1014,"x_min":75,"x_max":939,"o":"m 939 -211 q 929 -248 939 -237 q 893 -258 919 -258 l 739 -258 q 617 -212 650 -258 q 599 -71 585 -167 l 625 78 l 625 244 l 379 244 l 379 50 q 367 12 379 24 q 329 0 356 0 l 125 0 q 87 12 99 0 q 75 50 75 24 l 75 417 q 88 513 75 458 q 129 639 101 567 l 250 954 q 276 989 258 978 q 321 1000 293 1000 l 694 1000 q 738 989 721 1000 q 764 954 756 978 l 885 639 q 926 513 913 567 q 939 417 939 458 l 939 50 q 927 12 939 24 q 889 0 915 0 l 842 0 l 832 -64 l 889 -64 q 928 -74 918 -64 q 939 -111 939 -85 l 939 -211 m 458 708 l 393 497 l 611 497 l 546 708 q 534 726 540 721 q 519 732 528 732 l 485 732 q 470 726 476 732 q 458 708 464 721 z "},"B":{"ha":1007,"x_min":96,"x_max":949,"o":"m 679 0 l 146 0 q 108 12 119 0 q 96 50 96 24 l 96 950 q 108 988 96 976 q 146 1000 119 1000 l 589 1000 q 790 948 725 1000 q 856 788 856 896 l 856 721 q 835 626 856 663 q 774 571 815 589 q 906 510 863 563 q 949 356 949 457 l 949 228 q 883 56 949 111 q 679 0 817 0 m 408 764 l 408 614 l 526 614 q 566 628 553 614 q 579 669 579 642 l 579 708 q 566 750 579 736 q 526 764 553 764 l 408 764 m 408 400 l 408 236 l 589 236 q 628 250 615 236 q 642 292 642 264 l 642 346 q 628 387 642 374 q 589 400 615 400 l 408 400 z "},"C":{"ha":872,"x_min":81,"x_max":811,"o":"m 761 0 l 422 0 q 165 69 249 0 q 81 283 81 139 l 81 715 q 165 930 81 860 q 422 1000 249 1000 l 761 1000 q 799 988 788 1000 q 811 950 811 976 l 811 782 q 799 744 811 756 q 761 732 788 732 l 482 732 q 418 715 439 732 q 397 663 397 697 l 397 332 q 418 281 397 297 q 482 265 439 265 l 761 265 q 799 253 788 265 q 811 215 811 242 l 811 50 q 799 12 811 24 q 761 0 788 0 z "},"Ç":{"ha":872,"x_min":81,"x_max":811,"o":"m 604 -133 q 582 -165 597 -156 q 540 -175 567 -175 l 365 -175 q 322 -160 331 -175 q 324 -119 314 -144 l 368 1 q 151 81 222 11 q 81 283 81 150 l 81 715 q 165 930 81 860 q 422 1000 249 1000 l 761 1000 q 799 988 788 1000 q 811 950 811 976 l 811 782 q 799 744 811 756 q 761 732 788 732 l 482 732 q 418 715 439 732 q 397 663 397 697 l 397 332 q 418 281 397 297 q 482 265 439 265 l 761 265 q 799 253 788 265 q 811 215 811 242 l 811 50 q 799 12 811 24 q 761 0 788 0 l 651 0 l 604 -133 z "},"Ć":{"ha":872,"x_min":81,"x_max":811,"o":"m 761 0 l 422 0 q 165 69 249 0 q 81 283 81 139 l 81 715 q 165 930 81 860 q 422 1000 249 1000 l 761 1000 q 799 988 788 1000 q 811 950 811 976 l 811 782 q 799 744 811 756 q 761 732 788 732 l 482 732 q 418 715 439 732 q 397 663 397 697 l 397 332 q 418 281 397 297 q 482 265 439 265 l 761 265 q 799 253 788 265 q 811 215 811 242 l 811 50 q 799 12 811 24 q 761 0 788 0 m 761 1106 l 276 1046 q 241 1056 253 1043 q 229 1092 229 1068 l 229 1225 q 241 1262 229 1251 q 279 1275 253 1272 l 764 1335 q 799 1325 788 1338 q 811 1289 811 1313 l 811 1156 q 799 1119 811 1129 q 761 1106 788 1108 z "},"Ĉ":{"ha":872,"x_min":81,"x_max":811,"o":"m 761 0 l 422 0 q 165 69 249 0 q 81 283 81 139 l 81 715 q 165 930 81 860 q 422 1000 249 1000 l 761 1000 q 799 988 788 1000 q 811 950 811 976 l 811 782 q 799 744 811 756 q 761 732 788 732 l 482 732 q 418 715 439 732 q 397 663 397 697 l 397 332 q 418 281 397 297 q 482 265 439 265 l 761 265 q 799 253 788 265 q 811 215 811 242 l 811 50 q 799 12 811 24 q 761 0 788 0 m 435 1107 l 244 1051 q 199 1049 210 1040 q 188 1094 188 1057 l 188 1207 q 199 1256 188 1244 q 244 1281 211 1267 l 422 1344 q 449 1353 435 1350 q 476 1357 464 1356 q 500 1356 489 1357 q 521 1350 511 1354 l 711 1281 q 758 1256 746 1267 q 769 1207 769 1244 l 769 1094 q 758 1049 769 1057 q 711 1051 747 1040 l 521 1107 q 478 1113 497 1113 q 435 1107 458 1113 z "},"Ċ":{"ha":872,"x_min":81,"x_max":811,"o":"m 761 0 l 422 0 q 165 69 249 0 q 81 283 81 139 l 81 715 q 165 930 81 860 q 422 1000 249 1000 l 761 1000 q 799 988 788 1000 q 811 950 811 976 l 811 782 q 799 744 811 756 q 761 732 788 732 l 482 732 q 418 715 439 732 q 397 663 397 697 l 397 332 q 418 281 397 297 q 482 265 439 265 l 761 265 q 799 253 788 265 q 811 215 811 242 l 811 50 q 799 12 811 24 q 761 0 788 0 m 604 1056 l 385 1056 q 347 1067 358 1056 q 335 1106 335 1079 l 335 1282 q 347 1320 335 1308 q 385 1332 358 1332 l 604 1332 q 642 1320 631 1332 q 654 1282 654 1308 l 654 1106 q 642 1067 654 1079 q 604 1056 631 1056 z "},"Č":{"ha":872,"x_min":81,"x_max":811,"o":"m 761 0 l 422 0 q 165 69 249 0 q 81 283 81 139 l 81 715 q 165 930 81 860 q 422 1000 249 1000 l 761 1000 q 799 988 788 1000 q 811 950 811 976 l 811 782 q 799 744 811 756 q 761 732 788 732 l 482 732 q 418 715 439 732 q 397 663 397 697 l 397 332 q 418 281 397 297 q 482 265 439 265 l 761 265 q 799 253 788 265 q 811 215 811 242 l 811 50 q 799 12 811 24 q 761 0 788 0 m 522 1294 l 713 1350 q 758 1353 747 1361 q 769 1307 769 1344 l 769 1194 q 758 1146 769 1157 q 713 1121 746 1135 l 535 1057 q 508 1049 522 1051 q 481 1044 493 1046 q 457 1046 468 1044 q 436 1051 446 1047 l 246 1121 q 199 1146 211 1135 q 188 1194 188 1157 l 188 1307 q 199 1353 188 1344 q 246 1350 210 1361 l 436 1294 q 479 1289 460 1289 q 522 1294 499 1289 z "},"D":{"ha":1036,"x_min":96,"x_max":956,"o":"m 614 0 l 146 0 q 108 12 119 0 q 96 50 96 24 l 96 950 q 108 988 96 976 q 146 1000 119 1000 l 614 1000 q 872 931 788 1000 q 956 717 956 861 l 956 283 q 872 69 956 139 q 614 0 788 0 m 411 735 l 411 263 l 576 263 q 626 279 610 263 q 642 331 642 296 l 642 668 q 626 719 642 703 q 576 735 610 735 l 411 735 z "},"Ď":{"ha":1036,"x_min":96,"x_max":956,"o":"m 614 0 l 146 0 q 108 12 119 0 q 96 50 96 24 l 96 950 q 108 988 96 976 q 146 1000 119 1000 l 614 1000 q 872 931 788 1000 q 956 717 956 861 l 956 283 q 872 69 956 139 q 614 0 788 0 m 411 735 l 411 263 l 576 263 q 626 279 610 263 q 642 331 642 296 l 642 668 q 626 719 642 703 q 576 735 610 735 l 411 735 m 561 1294 l 751 1350 q 797 1353 786 1361 q 808 1307 808 1344 l 808 1194 q 797 1146 808 1157 q 751 1121 785 1135 l 574 1057 q 547 1049 561 1051 q 519 1044 532 1046 q 496 1046 507 1044 q 475 1051 485 1047 l 285 1121 q 238 1146 250 1135 q 226 1194 226 1157 l 226 1307 q 238 1353 226 1344 q 285 1350 249 1361 l 475 1294 q 518 1289 499 1289 q 561 1294 538 1289 z "},"E":{"ha":908,"x_min":96,"x_max":840,"o":"m 790 0 l 146 0 q 108 12 119 0 q 96 50 96 24 l 96 950 q 108 988 96 976 q 146 1000 119 1000 l 790 1000 q 828 988 817 1000 q 840 950 840 976 l 840 788 q 828 749 840 761 q 790 738 817 738 l 407 738 l 407 631 l 678 631 q 716 619 704 631 q 728 581 728 607 l 728 432 q 716 394 728 406 q 678 382 704 382 l 407 382 l 407 263 l 790 263 q 828 251 817 263 q 840 213 840 239 l 840 50 q 828 12 840 24 q 790 0 817 0 z "},"È":{"ha":908,"x_min":96,"x_max":840,"o":"m 790 0 l 146 0 q 108 12 119 0 q 96 50 96 24 l 96 950 q 108 988 96 976 q 146 1000 119 1000 l 790 1000 q 828 988 817 1000 q 840 950 840 976 l 840 788 q 828 749 840 761 q 790 738 817 738 l 407 738 l 407 631 l 678 631 q 716 619 704 631 q 728 581 728 607 l 728 432 q 716 394 728 406 q 678 382 704 382 l 407 382 l 407 263 l 790 263 q 828 251 817 263 q 840 213 840 239 l 840 50 q 828 12 840 24 q 790 0 817 0 m 697 1046 l 213 1106 q 174 1119 186 1108 q 163 1156 163 1129 l 163 1289 q 174 1325 163 1313 q 210 1335 186 1338 l 694 1275 q 733 1262 721 1272 q 744 1225 744 1251 l 744 1092 q 733 1056 744 1068 q 697 1046 721 1043 z "},"É":{"ha":908,"x_min":96,"x_max":840,"o":"m 790 0 l 146 0 q 108 12 119 0 q 96 50 96 24 l 96 950 q 108 988 96 976 q 146 1000 119 1000 l 790 1000 q 828 988 817 1000 q 840 950 840 976 l 840 788 q 828 749 840 761 q 790 738 817 738 l 407 738 l 407 631 l 678 631 q 716 619 704 631 q 728 581 728 607 l 728 432 q 716 394 728 406 q 678 382 704 382 l 407 382 l 407 263 l 790 263 q 828 251 817 263 q 840 213 840 239 l 840 50 q 828 12 840 24 q 790 0 817 0 m 736 1106 l 251 1046 q 216 1056 228 1043 q 204 1092 204 1068 l 204 1225 q 216 1262 204 1251 q 254 1275 228 1272 l 739 1335 q 774 1325 763 1338 q 786 1289 786 1313 l 786 1156 q 774 1119 786 1129 q 736 1106 763 1108 z "},"Ê":{"ha":908,"x_min":96,"x_max":840,"o":"m 790 0 l 146 0 q 108 12 119 0 q 96 50 96 24 l 96 950 q 108 988 96 976 q 146 1000 119 1000 l 790 1000 q 828 988 817 1000 q 840 950 840 976 l 840 788 q 828 749 840 761 q 790 738 817 738 l 407 738 l 407 631 l 678 631 q 716 619 704 631 q 728 581 728 607 l 728 432 q 716 394 728 406 q 678 382 704 382 l 407 382 l 407 263 l 790 263 q 828 251 817 263 q 840 213 840 239 l 840 50 q 828 12 840 24 q 790 0 817 0 m 424 1107 l 233 1051 q 188 1049 199 1040 q 176 1094 176 1057 l 176 1207 q 188 1256 176 1244 q 233 1281 200 1267 l 411 1344 q 438 1353 424 1350 q 465 1357 453 1356 q 489 1356 478 1357 q 510 1350 500 1354 l 700 1281 q 747 1256 735 1267 q 758 1207 758 1244 l 758 1094 q 747 1049 758 1057 q 700 1051 736 1040 l 510 1107 q 467 1113 486 1113 q 424 1107 447 1113 z "},"Ë":{"ha":908,"x_min":96,"x_max":840,"o":"m 790 0 l 146 0 q 108 12 119 0 q 96 50 96 24 l 96 950 q 108 988 96 976 q 146 1000 119 1000 l 790 1000 q 828 988 817 1000 q 840 950 840 976 l 840 788 q 828 749 840 761 q 790 738 817 738 l 407 738 l 407 631 l 678 631 q 716 619 704 631 q 728 581 728 607 l 728 432 q 716 394 728 406 q 678 382 704 382 l 407 382 l 407 263 l 790 263 q 828 251 817 263 q 840 213 840 239 l 840 50 q 828 12 840 24 q 790 0 817 0 m 754 1056 l 563 1056 q 528 1067 539 1056 q 517 1101 517 1078 l 517 1269 q 528 1304 517 1293 q 563 1315 539 1315 l 754 1315 q 789 1304 778 1315 q 800 1269 800 1293 l 800 1101 q 789 1067 800 1078 q 754 1056 778 1056 m 396 1056 l 204 1056 q 169 1067 181 1056 q 157 1101 157 1078 l 157 1269 q 169 1304 157 1293 q 204 1315 181 1315 l 396 1315 q 431 1304 419 1315 q 442 1269 442 1293 l 442 1101 q 431 1067 442 1078 q 396 1056 419 1056 z "},"Ē":{"ha":908,"x_min":96,"x_max":840,"o":"m 790 0 l 146 0 q 108 12 119 0 q 96 50 96 24 l 96 950 q 108 988 96 976 q 146 1000 119 1000 l 790 1000 q 828 988 817 1000 q 840 950 840 976 l 840 788 q 828 749 840 761 q 790 738 817 738 l 407 738 l 407 631 l 678 631 q 716 619 704 631 q 728 581 728 607 l 728 432 q 716 394 728 406 q 678 382 704 382 l 407 382 l 407 263 l 790 263 q 828 251 817 263 q 840 213 840 239 l 840 50 q 828 12 840 24 q 790 0 817 0 m 708 1056 l 226 1056 q 188 1067 200 1056 q 176 1106 176 1079 l 176 1235 q 188 1273 176 1261 q 226 1285 200 1285 l 708 1285 q 747 1273 735 1285 q 758 1235 758 1261 l 758 1106 q 747 1067 758 1079 q 708 1056 735 1056 z "},"Ĕ":{"ha":908,"x_min":96,"x_max":840,"o":"m 790 0 l 146 0 q 108 12 119 0 q 96 50 96 24 l 96 950 q 108 988 96 976 q 146 1000 119 1000 l 790 1000 q 828 988 817 1000 q 840 950 840 976 l 840 788 q 828 749 840 761 q 790 738 817 738 l 407 738 l 407 631 l 678 631 q 716 619 704 631 q 728 581 728 607 l 728 432 q 716 394 728 406 q 678 382 704 382 l 407 382 l 407 263 l 790 263 q 828 251 817 263 q 840 213 840 239 l 840 50 q 828 12 840 24 q 790 0 817 0 m 783 1246 q 770 1165 783 1201 q 723 1102 757 1128 q 631 1062 689 1076 q 482 1047 572 1047 q 333 1062 392 1047 q 241 1102 275 1076 q 194 1165 207 1128 q 181 1246 181 1201 l 181 1307 q 192 1345 181 1333 q 231 1357 204 1357 l 364 1357 q 395 1348 386 1357 q 404 1314 404 1339 l 404 1285 q 418 1252 404 1265 q 483 1239 432 1239 q 550 1252 535 1239 q 565 1285 565 1265 l 565 1314 q 574 1348 565 1339 q 607 1357 583 1357 l 733 1357 q 772 1345 760 1357 q 783 1307 783 1333 l 783 1246 z "},"Ė":{"ha":908,"x_min":96,"x_max":840,"o":"m 790 0 l 146 0 q 108 12 119 0 q 96 50 96 24 l 96 950 q 108 988 96 976 q 146 1000 119 1000 l 790 1000 q 828 988 817 1000 q 840 950 840 976 l 840 788 q 828 749 840 761 q 790 738 817 738 l 407 738 l 407 631 l 678 631 q 716 619 704 631 q 728 581 728 607 l 728 432 q 716 394 728 406 q 678 382 704 382 l 407 382 l 407 263 l 790 263 q 828 251 817 263 q 840 213 840 239 l 840 50 q 828 12 840 24 q 790 0 817 0 m 563 1056 l 343 1056 q 305 1067 317 1056 q 293 1106 293 1079 l 293 1282 q 305 1320 293 1308 q 343 1332 317 1332 l 563 1332 q 601 1320 589 1332 q 613 1282 613 1308 l 613 1106 q 601 1067 613 1079 q 563 1056 589 1056 z "},"Ę":{"ha":908,"x_min":96,"x_max":840,"o":"m 840 -211 q 831 -248 840 -237 q 794 -258 821 -258 l 640 -258 q 519 -212 551 -258 q 500 -71 486 -167 l 513 0 l 146 0 q 108 12 119 0 q 96 50 96 24 l 96 950 q 108 988 96 976 q 146 1000 119 1000 l 790 1000 q 828 988 817 1000 q 840 950 840 976 l 840 788 q 828 749 840 761 q 790 738 817 738 l 407 738 l 407 631 l 678 631 q 716 619 704 631 q 728 581 728 607 l 728 432 q 716 394 728 406 q 678 382 704 382 l 407 382 l 407 263 l 790 263 q 828 251 817 263 q 840 213 840 239 l 840 50 q 828 12 840 24 q 790 0 817 0 l 743 0 l 733 -64 l 790 -64 q 830 -74 819 -64 q 840 -111 840 -85 l 840 -211 z "},"Ě":{"ha":908,"x_min":96,"x_max":840,"o":"m 790 0 l 146 0 q 108 12 119 0 q 96 50 96 24 l 96 950 q 108 988 96 976 q 146 1000 119 1000 l 790 1000 q 828 988 817 1000 q 840 950 840 976 l 840 788 q 828 749 840 761 q 790 738 817 738 l 407 738 l 407 631 l 678 631 q 716 619 704 631 q 728 581 728 607 l 728 432 q 716 394 728 406 q 678 382 704 382 l 407 382 l 407 263 l 790 263 q 828 251 817 263 q 840 213 840 239 l 840 50 q 828 12 840 24 q 790 0 817 0 m 521 1294 l 711 1350 q 757 1353 746 1361 q 768 1307 768 1344 l 768 1194 q 756 1146 768 1157 q 711 1121 744 1135 l 533 1057 q 506 1049 521 1051 q 479 1044 492 1046 q 456 1046 467 1044 q 435 1051 444 1047 l 244 1121 q 198 1146 210 1135 q 186 1194 186 1157 l 186 1307 q 197 1353 186 1344 q 244 1350 208 1361 l 435 1294 q 478 1289 458 1289 q 521 1294 497 1289 z "},"F":{"ha":858,"x_min":96,"x_max":815,"o":"m 361 0 l 146 0 q 108 12 119 0 q 96 50 96 24 l 96 950 q 108 988 96 976 q 146 1000 119 1000 l 765 1000 q 803 988 792 1000 q 815 950 815 976 l 815 785 q 803 747 815 758 q 765 735 792 735 l 411 735 l 411 590 l 653 590 q 691 578 679 590 q 703 540 703 567 l 703 374 q 691 335 703 347 q 653 324 679 324 l 411 324 l 411 50 q 399 12 411 24 q 361 0 388 0 z "},"G":{"ha":983,"x_min":81,"x_max":910,"o":"m 860 0 l 422 0 q 165 69 249 0 q 81 283 81 139 l 81 717 q 165 931 81 861 q 422 1000 249 1000 l 769 1000 q 808 988 796 1000 q 819 950 819 976 l 819 782 q 808 744 819 756 q 769 732 796 732 l 481 732 q 417 715 438 732 q 396 663 396 697 l 396 331 q 412 279 396 296 q 460 263 428 263 l 594 263 l 594 479 q 606 517 594 506 q 644 529 618 529 l 860 529 q 898 517 886 529 q 910 479 910 506 l 910 50 q 898 12 910 24 q 860 0 886 0 z "},"Ĝ":{"ha":983,"x_min":81,"x_max":910,"o":"m 860 0 l 422 0 q 165 69 249 0 q 81 283 81 139 l 81 717 q 165 931 81 861 q 422 1000 249 1000 l 769 1000 q 808 988 796 1000 q 819 950 819 976 l 819 782 q 808 744 819 756 q 769 732 796 732 l 481 732 q 417 715 438 732 q 396 663 396 697 l 396 331 q 412 279 396 296 q 460 263 428 263 l 594 263 l 594 479 q 606 517 594 506 q 644 529 618 529 l 860 529 q 898 517 886 529 q 910 479 910 506 l 910 50 q 898 12 910 24 q 860 0 886 0 m 485 1107 l 294 1051 q 249 1049 260 1040 q 238 1094 238 1057 l 238 1207 q 249 1256 238 1244 q 294 1281 261 1267 l 472 1344 q 499 1353 485 1350 q 526 1357 514 1356 q 550 1356 539 1357 q 571 1350 561 1354 l 761 1281 q 808 1256 796 1267 q 819 1207 819 1244 l 819 1094 q 808 1049 819 1057 q 761 1051 797 1040 l 571 1107 q 528 1113 547 1113 q 485 1107 508 1113 z "},"Ğ":{"ha":983,"x_min":81,"x_max":910,"o":"m 860 0 l 422 0 q 165 69 249 0 q 81 283 81 139 l 81 717 q 165 931 81 861 q 422 1000 249 1000 l 769 1000 q 808 988 796 1000 q 819 950 819 976 l 819 782 q 808 744 819 756 q 769 732 796 732 l 481 732 q 417 715 438 732 q 396 663 396 697 l 396 331 q 412 279 396 296 q 460 263 428 263 l 594 263 l 594 479 q 606 517 594 506 q 644 529 618 529 l 860 529 q 898 517 886 529 q 910 479 910 506 l 910 50 q 898 12 910 24 q 860 0 886 0 m 821 1246 q 808 1165 821 1201 q 760 1102 794 1128 q 668 1062 726 1076 q 519 1047 610 1047 q 371 1062 429 1047 q 278 1102 313 1076 q 231 1165 244 1128 q 218 1246 218 1201 l 218 1307 q 230 1345 218 1333 q 268 1357 242 1357 l 401 1357 q 433 1348 424 1357 q 442 1314 442 1339 l 442 1285 q 456 1252 442 1265 q 521 1239 469 1239 q 588 1252 572 1239 q 603 1285 603 1265 l 603 1314 q 612 1348 603 1339 q 644 1357 621 1357 l 771 1357 q 809 1345 797 1357 q 821 1307 821 1333 l 821 1246 z "},"Ġ":{"ha":983,"x_min":81,"x_max":910,"o":"m 860 0 l 422 0 q 165 69 249 0 q 81 283 81 139 l 81 717 q 165 931 81 861 q 422 1000 249 1000 l 769 1000 q 808 988 796 1000 q 819 950 819 976 l 819 782 q 808 744 819 756 q 769 732 796 732 l 481 732 q 417 715 438 732 q 396 663 396 697 l 396 331 q 412 279 396 296 q 460 263 428 263 l 594 263 l 594 479 q 606 517 594 506 q 644 529 618 529 l 860 529 q 898 517 886 529 q 910 479 910 506 l 910 50 q 898 12 910 24 q 860 0 886 0 m 631 1056 l 411 1056 q 373 1067 385 1056 q 361 1106 361 1079 l 361 1282 q 373 1320 361 1308 q 411 1332 385 1332 l 631 1332 q 669 1320 657 1332 q 681 1282 681 1308 l 681 1106 q 669 1067 681 1079 q 631 1056 657 1056 z "},"Ģ":{"ha":983,"x_min":81,"x_max":910,"o":"m 860 0 l 422 0 q 165 69 249 0 q 81 283 81 139 l 81 717 q 165 931 81 861 q 422 1000 249 1000 l 769 1000 q 808 988 796 1000 q 819 950 819 976 l 819 782 q 808 744 819 756 q 769 732 796 732 l 481 732 q 417 715 438 732 q 396 663 396 697 l 396 331 q 412 279 396 296 q 460 263 428 263 l 594 263 l 594 479 q 606 517 594 506 q 644 529 618 529 l 860 529 q 898 517 886 529 q 910 479 910 506 l 910 50 q 898 12 910 24 q 860 0 886 0 m 507 -503 l 415 -503 q 383 -492 393 -503 q 374 -460 374 -482 l 374 -412 q 383 -381 374 -390 q 415 -371 393 -371 l 497 -371 q 521 -362 513 -371 q 529 -337 529 -353 l 529 -319 l 410 -319 q 369 -308 381 -319 q 358 -265 358 -296 l 358 -114 q 369 -72 358 -83 q 410 -60 381 -60 l 629 -60 q 669 -72 658 -60 q 681 -114 681 -83 l 681 -325 q 633 -458 681 -414 q 507 -503 586 -503 z "},"H":{"ha":1054,"x_min":96,"x_max":958,"o":"m 361 0 l 146 0 q 108 12 119 0 q 96 50 96 24 l 96 950 q 108 988 96 976 q 146 1000 119 1000 l 361 1000 q 399 988 388 1000 q 411 950 411 976 l 411 649 l 643 649 l 643 950 q 655 988 643 976 q 693 1000 667 1000 l 908 1000 q 947 988 935 1000 q 958 950 958 976 l 958 50 q 947 12 958 24 q 908 0 935 0 l 693 0 q 655 12 667 0 q 643 50 643 24 l 643 358 l 411 358 l 411 50 q 399 12 411 24 q 361 0 388 0 z "},"Ĥ":{"ha":1054,"x_min":96,"x_max":958,"o":"m 361 0 l 146 0 q 108 12 119 0 q 96 50 96 24 l 96 950 q 108 988 96 976 q 146 1000 119 1000 l 361 1000 q 399 988 388 1000 q 411 950 411 976 l 411 649 l 643 649 l 643 950 q 655 988 643 976 q 693 1000 667 1000 l 908 1000 q 947 988 935 1000 q 958 950 958 976 l 958 50 q 947 12 958 24 q 908 0 935 0 l 693 0 q 655 12 667 0 q 643 50 643 24 l 643 358 l 411 358 l 411 50 q 399 12 411 24 q 361 0 388 0 m 482 1107 l 292 1051 q 246 1049 257 1040 q 235 1094 235 1057 l 235 1207 q 247 1256 235 1244 q 292 1281 258 1267 l 469 1344 q 497 1353 482 1350 q 524 1357 511 1356 q 547 1356 536 1357 q 568 1350 558 1354 l 758 1281 q 805 1256 793 1267 q 817 1207 817 1244 l 817 1094 q 806 1049 817 1057 q 758 1051 794 1040 l 568 1107 q 525 1113 544 1113 q 482 1107 506 1113 z "},"I":{"ha":840,"x_min":74,"x_max":765,"o":"m 124 0 q 85 12 97 0 q 74 50 74 24 l 74 215 q 85 253 74 242 q 124 265 97 265 l 261 265 l 261 732 l 124 732 q 85 744 97 732 q 74 782 74 756 l 74 950 q 85 988 74 976 q 124 1000 97 1000 l 715 1000 q 753 988 742 1000 q 765 950 765 976 l 765 782 q 753 744 765 756 q 715 732 742 732 l 581 732 l 581 265 l 715 265 q 753 253 742 265 q 765 215 765 242 l 765 50 q 753 12 765 24 q 715 0 742 0 l 124 0 z "},"Ì":{"ha":840,"x_min":74,"x_max":765,"o":"m 124 0 q 85 12 97 0 q 74 50 74 24 l 74 215 q 85 253 74 242 q 124 265 97 265 l 261 265 l 261 732 l 124 732 q 85 744 97 732 q 74 782 74 756 l 74 950 q 85 988 74 976 q 124 1000 97 1000 l 715 1000 q 753 988 742 1000 q 765 950 765 976 l 765 782 q 753 744 765 756 q 715 732 742 732 l 581 732 l 581 265 l 715 265 q 753 253 742 265 q 765 215 765 242 l 765 50 q 753 12 765 24 q 715 0 742 0 l 124 0 m 663 1046 l 178 1106 q 140 1119 151 1108 q 128 1156 128 1129 l 128 1289 q 140 1325 128 1313 q 175 1335 151 1338 l 660 1275 q 698 1262 686 1272 q 710 1225 710 1251 l 710 1092 q 698 1056 710 1068 q 663 1046 686 1043 z "},"Í":{"ha":840,"x_min":74,"x_max":765,"o":"m 124 0 q 85 12 97 0 q 74 50 74 24 l 74 215 q 85 253 74 242 q 124 265 97 265 l 261 265 l 261 732 l 124 732 q 85 744 97 732 q 74 782 74 756 l 74 950 q 85 988 74 976 q 124 1000 97 1000 l 715 1000 q 753 988 742 1000 q 765 950 765 976 l 765 782 q 753 744 765 756 q 715 732 742 732 l 581 732 l 581 265 l 715 265 q 753 253 742 265 q 765 215 765 242 l 765 50 q 753 12 765 24 q 715 0 742 0 l 124 0 m 660 1106 l 175 1046 q 140 1056 151 1043 q 128 1092 128 1068 l 128 1225 q 140 1262 128 1251 q 178 1275 151 1272 l 663 1335 q 698 1325 686 1338 q 710 1289 710 1313 l 710 1156 q 698 1119 710 1129 q 660 1106 686 1108 z "},"Î":{"ha":840,"x_min":74,"x_max":765,"o":"m 124 0 q 85 12 97 0 q 74 50 74 24 l 74 215 q 85 253 74 242 q 124 265 97 265 l 261 265 l 261 732 l 124 732 q 85 744 97 732 q 74 782 74 756 l 74 950 q 85 988 74 976 q 124 1000 97 1000 l 715 1000 q 753 988 742 1000 q 765 950 765 976 l 765 782 q 753 744 765 756 q 715 732 742 732 l 581 732 l 581 265 l 715 265 q 753 253 742 265 q 765 215 765 242 l 765 50 q 753 12 765 24 q 715 0 742 0 l 124 0 m 375 1107 l 185 1051 q 139 1049 150 1040 q 128 1094 128 1057 l 128 1207 q 140 1256 128 1244 q 185 1281 151 1267 l 363 1344 q 390 1353 375 1350 q 417 1357 404 1356 q 440 1356 429 1357 q 461 1350 451 1354 l 651 1281 q 698 1256 686 1267 q 710 1207 710 1244 l 710 1094 q 699 1049 710 1057 q 651 1051 688 1040 l 461 1107 q 418 1113 438 1113 q 375 1107 399 1113 z "},"Ï":{"ha":840,"x_min":74,"x_max":765,"o":"m 124 0 q 85 12 97 0 q 74 50 74 24 l 74 215 q 85 253 74 242 q 124 265 97 265 l 261 265 l 261 732 l 124 732 q 85 744 97 732 q 74 782 74 756 l 74 950 q 85 988 74 976 q 124 1000 97 1000 l 715 1000 q 753 988 742 1000 q 765 950 765 976 l 765 782 q 753 744 765 756 q 715 732 742 732 l 581 732 l 581 265 l 715 265 q 753 253 742 265 q 765 215 765 242 l 765 50 q 753 12 765 24 q 715 0 742 0 l 124 0 m 692 1056 l 500 1056 q 465 1067 476 1056 q 454 1101 454 1078 l 454 1269 q 465 1304 454 1293 q 500 1315 476 1315 l 692 1315 q 726 1304 715 1315 q 738 1269 738 1293 l 738 1101 q 726 1067 738 1078 q 692 1056 715 1056 m 333 1056 l 142 1056 q 106 1067 118 1056 q 94 1101 94 1078 l 94 1269 q 106 1304 94 1293 q 142 1315 118 1315 l 333 1315 q 368 1304 357 1315 q 379 1269 379 1293 l 379 1101 q 368 1067 379 1078 q 333 1056 357 1056 z "},"Ĩ":{"ha":840,"x_min":74,"x_max":765,"o":"m 124 0 q 85 12 97 0 q 74 50 74 24 l 74 215 q 85 253 74 242 q 124 265 97 265 l 261 265 l 261 732 l 124 732 q 85 744 97 732 q 74 782 74 756 l 74 950 q 85 988 74 976 q 124 1000 97 1000 l 715 1000 q 753 988 742 1000 q 765 950 765 976 l 765 782 q 753 744 765 756 q 715 732 742 732 l 581 732 l 581 265 l 715 265 q 753 253 742 265 q 765 215 765 242 l 765 50 q 753 12 765 24 q 715 0 742 0 l 124 0 m 418 1061 l 379 1067 q 314 1074 340 1072 q 267 1074 288 1076 q 226 1067 246 1072 q 178 1054 206 1063 q 140 1056 153 1047 q 128 1090 128 1064 l 128 1231 q 141 1267 128 1257 q 178 1288 154 1278 q 233 1302 211 1297 q 277 1307 256 1307 q 326 1303 299 1307 q 394 1294 353 1300 l 418 1292 l 449 1288 q 522 1278 494 1281 q 569 1276 549 1275 q 608 1283 589 1278 q 658 1299 628 1289 q 696 1297 683 1306 q 708 1263 708 1289 l 708 1122 q 695 1085 708 1096 q 658 1065 682 1075 q 603 1051 625 1056 q 558 1046 581 1046 q 509 1049 536 1046 q 440 1058 482 1053 l 418 1061 z "},"Ī":{"ha":840,"x_min":74,"x_max":765,"o":"m 124 0 q 85 12 97 0 q 74 50 74 24 l 74 215 q 85 253 74 242 q 124 265 97 265 l 261 265 l 261 732 l 124 732 q 85 744 97 732 q 74 782 74 756 l 74 950 q 85 988 74 976 q 124 1000 97 1000 l 715 1000 q 753 988 742 1000 q 765 950 765 976 l 765 782 q 753 744 765 756 q 715 732 742 732 l 581 732 l 581 265 l 715 265 q 753 253 742 265 q 765 215 765 242 l 765 50 q 753 12 765 24 q 715 0 742 0 l 124 0 m 660 1056 l 178 1056 q 140 1067 151 1056 q 128 1106 128 1079 l 128 1235 q 140 1273 128 1261 q 178 1285 151 1285 l 660 1285 q 698 1273 686 1285 q 710 1235 710 1261 l 710 1106 q 698 1067 710 1079 q 660 1056 686 1056 z "},"Ĭ":{"ha":840,"x_min":74,"x_max":765,"o":"m 124 0 q 85 12 97 0 q 74 50 74 24 l 74 215 q 85 253 74 242 q 124 265 97 265 l 261 265 l 261 732 l 124 732 q 85 744 97 732 q 74 782 74 756 l 74 950 q 85 988 74 976 q 124 1000 97 1000 l 715 1000 q 753 988 742 1000 q 765 950 765 976 l 765 782 q 753 744 765 756 q 715 732 742 732 l 581 732 l 581 265 l 715 265 q 753 253 742 265 q 765 215 765 242 l 765 50 q 753 12 765 24 q 715 0 742 0 l 124 0 m 721 1246 q 708 1165 721 1201 q 660 1102 694 1128 q 568 1062 626 1076 q 419 1047 510 1047 q 271 1062 329 1047 q 178 1102 213 1076 q 131 1165 144 1128 q 118 1246 118 1201 l 118 1307 q 130 1345 118 1333 q 168 1357 142 1357 l 301 1357 q 333 1348 324 1357 q 342 1314 342 1339 l 342 1285 q 356 1252 342 1265 q 421 1239 369 1239 q 488 1252 472 1239 q 503 1285 503 1265 l 503 1314 q 512 1348 503 1339 q 544 1357 521 1357 l 671 1357 q 709 1345 697 1357 q 721 1307 721 1333 l 721 1246 z "},"Į":{"ha":840,"x_min":74,"x_max":765,"o":"m 765 -211 q 756 -248 765 -237 q 719 -258 746 -258 l 565 -258 q 444 -212 476 -258 q 425 -71 411 -167 l 438 0 l 124 0 q 85 12 97 0 q 74 50 74 24 l 74 215 q 85 253 74 242 q 124 265 97 265 l 261 265 l 261 732 l 124 732 q 85 744 97 732 q 74 782 74 756 l 74 950 q 85 988 74 976 q 124 1000 97 1000 l 715 1000 q 753 988 742 1000 q 765 950 765 976 l 765 782 q 753 744 765 756 q 715 732 742 732 l 581 732 l 581 265 l 715 265 q 753 253 742 265 q 765 215 765 242 l 765 50 q 753 12 765 24 q 715 0 742 0 l 668 0 l 658 -64 l 715 -64 q 755 -74 744 -64 q 765 -111 765 -85 l 765 -211 z "},"İ":{"ha":840,"x_min":74,"x_max":765,"o":"m 124 0 q 85 12 97 0 q 74 50 74 24 l 74 215 q 85 253 74 242 q 124 265 97 265 l 261 265 l 261 732 l 124 732 q 85 744 97 732 q 74 782 74 756 l 74 950 q 85 988 74 976 q 124 1000 97 1000 l 715 1000 q 753 988 742 1000 q 765 950 765 976 l 765 782 q 753 744 765 756 q 715 732 742 732 l 581 732 l 581 265 l 715 265 q 753 253 742 265 q 765 215 765 242 l 765 50 q 753 12 765 24 q 715 0 742 0 l 124 0 m 531 1056 l 311 1056 q 273 1067 285 1056 q 261 1106 261 1079 l 261 1282 q 273 1320 261 1308 q 311 1332 285 1332 l 531 1332 q 569 1320 557 1332 q 581 1282 581 1308 l 581 1106 q 569 1067 581 1079 q 531 1056 557 1056 z "},"J":{"ha":956,"x_min":57,"x_max":867,"o":"m 867 263 q 849 147 867 199 q 785 58 831 94 q 661 0 740 21 q 460 -21 582 -21 q 260 0 339 -21 q 137 58 182 21 q 74 147 92 94 q 57 263 57 199 l 57 488 q 69 526 57 514 q 107 538 81 538 l 308 538 q 347 526 335 538 q 358 488 358 514 l 358 318 q 376 272 358 290 q 457 253 393 253 q 533 272 517 253 q 549 318 549 290 l 549 950 q 560 988 549 976 q 599 1000 572 1000 l 817 1000 q 855 988 843 1000 q 867 950 867 976 l 867 263 z "},"Ĵ":{"ha":956,"x_min":57,"x_max":988,"o":"m 867 263 q 849 147 867 199 q 785 58 831 94 q 661 0 740 21 q 460 -21 582 -21 q 260 0 339 -21 q 137 58 182 21 q 74 147 92 94 q 57 263 57 199 l 57 488 q 69 526 57 514 q 107 538 81 538 l 308 538 q 347 526 335 538 q 358 488 358 514 l 358 318 q 376 272 358 290 q 457 253 393 253 q 533 272 517 253 q 549 318 549 290 l 549 950 q 560 988 549 976 q 599 1000 572 1000 l 817 1000 q 855 988 843 1000 q 867 950 867 976 l 867 263 m 653 1107 l 463 1051 q 417 1049 428 1040 q 406 1094 406 1057 l 406 1207 q 417 1256 406 1244 q 463 1281 429 1267 l 640 1344 q 667 1353 653 1350 q 694 1357 682 1356 q 718 1356 707 1357 q 739 1350 729 1354 l 929 1281 q 976 1256 964 1267 q 988 1207 988 1244 l 988 1094 q 976 1049 988 1057 q 929 1051 965 1040 l 739 1107 q 696 1113 715 1113 q 653 1107 676 1113 z "},"K":{"ha":1036,"x_min":96,"x_max":953,"o":"m 361 0 l 146 0 q 108 12 119 0 q 96 50 96 24 l 96 950 q 108 988 96 976 q 146 1000 119 1000 l 361 1000 q 399 988 388 1000 q 411 950 411 976 l 411 631 l 467 631 l 610 954 q 636 990 619 979 q 679 1000 653 1000 l 893 1000 q 925 988 917 1000 q 924 954 933 976 l 782 631 q 906 576 860 626 q 953 442 953 525 l 953 50 q 941 12 953 24 q 903 0 929 0 l 689 0 q 651 12 663 0 q 639 50 639 24 l 639 321 q 628 356 639 343 q 594 368 617 368 l 411 368 l 411 50 q 399 12 411 24 q 361 0 388 0 z "},"Ķ":{"ha":1036,"x_min":96,"x_max":953,"o":"m 361 0 l 146 0 q 108 12 119 0 q 96 50 96 24 l 96 950 q 108 988 96 976 q 146 1000 119 1000 l 361 1000 q 399 988 388 1000 q 411 950 411 976 l 411 631 l 467 631 l 610 954 q 636 990 619 979 q 679 1000 653 1000 l 893 1000 q 925 988 917 1000 q 924 954 933 976 l 782 631 q 906 576 860 626 q 953 442 953 525 l 953 50 q 941 12 953 24 q 903 0 929 0 l 689 0 q 651 12 663 0 q 639 50 639 24 l 639 321 q 628 356 639 343 q 594 368 617 368 l 411 368 l 411 50 q 399 12 411 24 q 361 0 388 0 m 506 -503 l 414 -503 q 382 -492 392 -503 q 372 -460 372 -482 l 372 -412 q 382 -381 372 -390 q 414 -371 392 -371 l 496 -371 q 519 -362 511 -371 q 528 -337 528 -353 l 528 -319 l 408 -319 q 368 -308 379 -319 q 357 -265 357 -296 l 357 -114 q 368 -72 357 -83 q 408 -60 379 -60 l 628 -60 q 668 -72 657 -60 q 679 -114 679 -83 l 679 -325 q 632 -458 679 -414 q 506 -503 585 -503 z "},"L":{"ha":965,"x_min":96,"x_max":903,"o":"m 853 0 l 146 0 q 108 12 119 0 q 96 50 96 24 l 96 950 q 108 988 96 976 q 146 1000 119 1000 l 361 1000 q 399 988 388 1000 q 411 950 411 976 l 411 263 l 601 263 l 601 488 q 613 526 601 514 q 651 538 625 538 l 853 538 q 891 526 879 538 q 903 488 903 514 l 903 50 q 891 12 903 24 q 853 0 879 0 z "},"Ĺ":{"ha":965,"x_min":96,"x_max":903,"o":"m 853 0 l 146 0 q 108 12 119 0 q 96 50 96 24 l 96 950 q 108 988 96 976 q 146 1000 119 1000 l 361 1000 q 399 988 388 1000 q 411 950 411 976 l 411 263 l 601 263 l 601 488 q 613 526 601 514 q 651 538 625 538 l 853 538 q 891 526 879 538 q 903 488 903 514 l 903 50 q 891 12 903 24 q 853 0 879 0 m 628 1106 l 143 1046 q 108 1056 119 1043 q 96 1092 96 1068 l 96 1225 q 108 1262 96 1251 q 146 1275 119 1272 l 631 1335 q 666 1325 654 1338 q 678 1289 678 1313 l 678 1156 q 666 1119 678 1129 q 628 1106 654 1108 z "},"Ļ":{"ha":965,"x_min":96,"x_max":903,"o":"m 853 0 l 146 0 q 108 12 119 0 q 96 50 96 24 l 96 950 q 108 988 96 976 q 146 1000 119 1000 l 361 1000 q 399 988 388 1000 q 411 950 411 976 l 411 263 l 601 263 l 601 488 q 613 526 601 514 q 651 538 625 538 l 853 538 q 891 526 879 538 q 903 488 903 514 l 903 50 q 891 12 903 24 q 853 0 879 0 m 493 -503 l 401 -503 q 369 -492 379 -503 q 360 -460 360 -482 l 360 -412 q 369 -381 360 -390 q 401 -371 379 -371 l 483 -371 q 507 -362 499 -371 q 515 -337 515 -353 l 515 -319 l 396 -319 q 356 -308 367 -319 q 344 -265 344 -296 l 344 -114 q 356 -72 344 -83 q 396 -60 367 -60 l 615 -60 q 656 -72 644 -60 q 667 -114 667 -83 l 667 -325 q 619 -458 667 -414 q 493 -503 572 -503 z "},"Ľ":{"ha":965,"x_min":96,"x_max":903,"o":"m 853 0 l 146 0 q 108 12 119 0 q 96 50 96 24 l 96 950 q 108 988 96 976 q 146 1000 119 1000 l 361 1000 q 399 988 388 1000 q 411 950 411 976 l 411 263 l 601 263 l 601 488 q 613 526 601 514 q 651 538 625 538 l 853 538 q 891 526 879 538 q 903 488 903 514 l 903 50 q 891 12 903 24 q 853 0 879 0 m 778 628 l 606 628 q 565 640 579 628 q 556 678 551 651 l 601 950 q 615 988 606 976 q 651 1000 625 1000 l 843 1000 q 884 988 869 1000 q 893 950 899 975 l 828 678 q 813 640 822 653 q 778 628 804 628 z "},"M":{"ha":1179,"x_min":96,"x_max":1083,"o":"m 353 0 l 146 0 q 108 12 119 0 q 96 50 96 24 l 96 950 q 108 988 96 976 q 146 1000 119 1000 l 369 1000 q 406 990 392 1000 q 433 958 421 981 l 558 732 q 570 714 565 719 q 583 708 575 708 l 596 708 q 609 714 604 708 q 621 732 614 719 l 744 958 q 772 990 757 981 q 808 1000 786 1000 l 1033 1000 q 1072 988 1060 1000 q 1083 950 1083 976 l 1083 50 q 1072 12 1083 24 q 1033 0 1060 0 l 819 0 q 781 12 793 0 q 769 50 769 24 l 769 539 l 688 388 q 658 353 675 364 q 614 343 640 343 l 558 343 q 515 353 532 343 q 485 388 497 364 l 403 539 l 403 50 q 391 12 403 24 q 353 0 379 0 z "},"N":{"ha":1046,"x_min":96,"x_max":950,"o":"m 354 0 l 146 0 q 108 12 119 0 q 96 50 96 24 l 96 950 q 108 988 96 976 q 146 1000 119 1000 l 290 1000 q 335 992 317 1000 q 372 963 354 983 l 642 654 l 642 950 q 653 988 642 976 q 692 1000 665 1000 l 900 1000 q 938 988 926 1000 q 950 950 950 976 l 950 50 q 938 12 950 24 q 900 0 926 0 l 692 0 q 653 12 665 0 q 642 50 642 24 l 642 221 l 404 508 l 404 50 q 392 12 404 24 q 354 0 381 0 z "},"Ñ":{"ha":1046,"x_min":96,"x_max":950,"o":"m 354 0 l 146 0 q 108 12 119 0 q 96 50 96 24 l 96 950 q 108 988 96 976 q 146 1000 119 1000 l 290 1000 q 335 992 317 1000 q 372 963 354 983 l 642 654 l 642 950 q 653 988 642 976 q 692 1000 665 1000 l 900 1000 q 938 988 926 1000 q 950 950 950 976 l 950 50 q 938 12 950 24 q 900 0 926 0 l 692 0 q 653 12 665 0 q 642 50 642 24 l 642 221 l 404 508 l 404 50 q 392 12 404 24 q 354 0 381 0 m 521 1061 l 482 1067 q 417 1074 443 1072 q 369 1074 390 1076 q 328 1067 349 1072 q 281 1054 308 1063 q 243 1056 256 1047 q 231 1090 231 1064 l 231 1231 q 244 1267 231 1257 q 281 1288 257 1278 q 336 1302 314 1297 q 380 1307 358 1307 q 428 1303 401 1307 q 497 1294 456 1300 l 521 1292 l 551 1288 q 624 1278 597 1281 q 672 1276 651 1275 q 711 1283 692 1278 q 761 1299 731 1289 q 799 1297 786 1306 q 811 1263 811 1289 l 811 1122 q 798 1085 811 1096 q 761 1065 785 1075 q 706 1051 728 1056 q 661 1046 683 1046 q 612 1049 639 1046 q 543 1058 585 1053 l 521 1061 z "},"Ń":{"ha":1046,"x_min":96,"x_max":950,"o":"m 354 0 l 146 0 q 108 12 119 0 q 96 50 96 24 l 96 950 q 108 988 96 976 q 146 1000 119 1000 l 290 1000 q 335 992 317 1000 q 372 963 354 983 l 642 654 l 642 950 q 653 988 642 976 q 692 1000 665 1000 l 900 1000 q 938 988 926 1000 q 950 950 950 976 l 950 50 q 938 12 950 24 q 900 0 926 0 l 692 0 q 653 12 665 0 q 642 50 642 24 l 642 221 l 404 508 l 404 50 q 392 12 404 24 q 354 0 381 0 m 776 1106 l 292 1046 q 256 1056 268 1043 q 244 1092 244 1068 l 244 1225 q 256 1262 244 1251 q 294 1275 268 1272 l 779 1335 q 815 1325 803 1338 q 826 1289 826 1313 l 826 1156 q 815 1119 826 1129 q 776 1106 803 1108 z "},"Ņ":{"ha":1046,"x_min":96,"x_max":950,"o":"m 354 0 l 146 0 q 108 12 119 0 q 96 50 96 24 l 96 950 q 108 988 96 976 q 146 1000 119 1000 l 290 1000 q 335 992 317 1000 q 372 963 354 983 l 642 654 l 642 950 q 653 988 642 976 q 692 1000 665 1000 l 900 1000 q 938 988 926 1000 q 950 950 950 976 l 950 50 q 938 12 950 24 q 900 0 926 0 l 692 0 q 653 12 665 0 q 642 50 642 24 l 642 221 l 404 508 l 404 50 q 392 12 404 24 q 354 0 381 0 m 510 -503 l 418 -503 q 386 -492 396 -503 q 376 -460 376 -482 l 376 -412 q 386 -381 376 -390 q 418 -371 396 -371 l 500 -371 q 524 -362 515 -371 q 532 -337 532 -353 l 532 -319 l 413 -319 q 372 -308 383 -319 q 361 -265 361 -296 l 361 -114 q 372 -72 361 -83 q 413 -60 383 -60 l 632 -60 q 672 -72 661 -60 q 683 -114 683 -83 l 683 -325 q 636 -458 683 -414 q 510 -503 589 -503 z "},"Ň":{"ha":1046,"x_min":96,"x_max":950,"o":"m 354 0 l 146 0 q 108 12 119 0 q 96 50 96 24 l 96 950 q 108 988 96 976 q 146 1000 119 1000 l 290 1000 q 335 992 317 1000 q 372 963 354 983 l 642 654 l 642 950 q 653 988 642 976 q 692 1000 665 1000 l 900 1000 q 938 988 926 1000 q 950 950 950 976 l 950 50 q 938 12 950 24 q 900 0 926 0 l 692 0 q 653 12 665 0 q 642 50 642 24 l 642 221 l 404 508 l 404 50 q 392 12 404 24 q 354 0 381 0 m 551 1294 l 742 1350 q 788 1353 776 1361 q 799 1307 799 1344 l 799 1194 q 787 1146 799 1157 q 742 1121 775 1135 l 564 1057 q 537 1049 551 1051 q 510 1044 522 1046 q 486 1046 497 1044 q 465 1051 475 1047 l 275 1121 q 228 1146 240 1135 q 217 1194 217 1157 l 217 1307 q 228 1353 217 1344 q 275 1350 239 1361 l 465 1294 q 508 1289 489 1289 q 551 1294 528 1289 z "},"O":{"ha":1024,"x_min":81,"x_max":943,"o":"m 943 263 q 924 147 943 199 q 858 58 906 94 q 726 0 810 21 q 513 -21 642 -21 q 299 0 383 -21 q 166 58 214 21 q 99 147 118 94 q 81 263 81 199 l 81 736 q 99 852 81 800 q 166 942 118 904 q 299 1000 214 979 q 513 1021 383 1021 q 726 1000 642 1021 q 858 942 810 979 q 924 852 906 904 q 943 736 943 800 l 943 263 m 396 313 q 417 266 396 285 q 513 247 438 247 q 608 266 588 247 q 629 313 629 285 l 629 686 q 608 731 629 713 q 513 750 588 750 q 417 731 438 750 q 396 686 396 713 l 396 313 z "},"Ò":{"ha":1024,"x_min":81,"x_max":943,"o":"m 943 263 q 924 147 943 199 q 858 58 906 94 q 726 0 810 21 q 513 -21 642 -21 q 299 0 383 -21 q 166 58 214 21 q 99 147 118 94 q 81 263 81 199 l 81 736 q 99 852 81 800 q 166 942 118 904 q 299 1000 214 979 q 513 1021 383 1021 q 726 1000 642 1021 q 858 942 810 979 q 924 852 906 904 q 943 736 943 800 l 943 263 m 396 313 q 417 266 396 285 q 513 247 438 247 q 608 266 588 247 q 629 313 629 285 l 629 686 q 608 731 629 713 q 513 750 588 750 q 417 731 438 750 q 396 686 396 713 l 396 313 m 754 1046 l 269 1106 q 231 1119 243 1108 q 219 1156 219 1129 l 219 1289 q 231 1325 219 1313 q 267 1335 243 1338 l 751 1275 q 790 1262 778 1272 q 801 1225 801 1251 l 801 1092 q 790 1056 801 1068 q 754 1046 778 1043 z "},"Ó":{"ha":1024,"x_min":81,"x_max":943,"o":"m 943 263 q 924 147 943 199 q 858 58 906 94 q 726 0 810 21 q 513 -21 642 -21 q 299 0 383 -21 q 166 58 214 21 q 99 147 118 94 q 81 263 81 199 l 81 736 q 99 852 81 800 q 166 942 118 904 q 299 1000 214 979 q 513 1021 383 1021 q 726 1000 642 1021 q 858 942 810 979 q 924 852 906 904 q 943 736 943 800 l 943 263 m 396 313 q 417 266 396 285 q 513 247 438 247 q 608 266 588 247 q 629 313 629 285 l 629 686 q 608 731 629 713 q 513 750 588 750 q 417 731 438 750 q 396 686 396 713 l 396 313 m 751 1106 l 267 1046 q 231 1056 243 1043 q 219 1092 219 1068 l 219 1225 q 231 1262 219 1251 q 269 1275 243 1272 l 754 1335 q 790 1325 778 1338 q 801 1289 801 1313 l 801 1156 q 790 1119 801 1129 q 751 1106 778 1108 z "},"Ô":{"ha":1024,"x_min":81,"x_max":943,"o":"m 943 263 q 924 147 943 199 q 858 58 906 94 q 726 0 810 21 q 513 -21 642 -21 q 299 0 383 -21 q 166 58 214 21 q 99 147 118 94 q 81 263 81 199 l 81 736 q 99 852 81 800 q 166 942 118 904 q 299 1000 214 979 q 513 1021 383 1021 q 726 1000 642 1021 q 858 942 810 979 q 924 852 906 904 q 943 736 943 800 l 943 263 m 396 313 q 417 266 396 285 q 513 247 438 247 q 608 266 588 247 q 629 313 629 285 l 629 686 q 608 731 629 713 q 513 750 588 750 q 417 731 438 750 q 396 686 396 713 l 396 313 m 467 1107 l 276 1051 q 231 1049 242 1040 q 219 1094 219 1057 l 219 1207 q 231 1256 219 1244 q 276 1281 243 1267 l 454 1344 q 481 1353 467 1350 q 508 1357 496 1356 q 532 1356 521 1357 q 553 1350 543 1354 l 743 1281 q 790 1256 778 1267 q 801 1207 801 1244 l 801 1094 q 790 1049 801 1057 q 743 1051 779 1040 l 553 1107 q 510 1113 529 1113 q 467 1107 490 1113 z "},"Õ":{"ha":1024,"x_min":81,"x_max":943,"o":"m 943 263 q 924 147 943 199 q 858 58 906 94 q 726 0 810 21 q 513 -21 642 -21 q 299 0 383 -21 q 166 58 214 21 q 99 147 118 94 q 81 263 81 199 l 81 736 q 99 852 81 800 q 166 942 118 904 q 299 1000 214 979 q 513 1021 383 1021 q 726 1000 642 1021 q 858 942 810 979 q 924 852 906 904 q 943 736 943 800 l 943 263 m 396 313 q 417 266 396 285 q 513 247 438 247 q 608 266 588 247 q 629 313 629 285 l 629 686 q 608 731 629 713 q 513 750 588 750 q 417 731 438 750 q 396 686 396 713 l 396 313 m 510 1061 l 471 1067 q 406 1074 432 1072 q 358 1074 379 1076 q 317 1067 338 1072 q 269 1054 297 1063 q 232 1056 244 1047 q 219 1090 219 1064 l 219 1231 q 233 1267 219 1257 q 269 1288 246 1278 q 325 1302 303 1297 q 369 1307 347 1307 q 417 1303 390 1307 q 486 1294 444 1300 l 510 1292 l 540 1288 q 613 1278 586 1281 q 660 1276 640 1275 q 700 1283 681 1278 q 750 1299 719 1289 q 788 1297 775 1306 q 800 1263 800 1289 l 800 1122 q 787 1085 800 1096 q 750 1065 774 1075 q 694 1051 717 1056 q 650 1046 672 1046 q 601 1049 628 1046 q 532 1058 574 1053 l 510 1061 z "},"Ö":{"ha":1024,"x_min":81,"x_max":943,"o":"m 943 263 q 924 147 943 199 q 858 58 906 94 q 726 0 810 21 q 513 -21 642 -21 q 299 0 383 -21 q 166 58 214 21 q 99 147 118 94 q 81 263 81 199 l 81 736 q 99 852 81 800 q 166 942 118 904 q 299 1000 214 979 q 513 1021 383 1021 q 726 1000 642 1021 q 858 942 810 979 q 924 852 906 904 q 943 736 943 800 l 943 263 m 396 313 q 417 266 396 285 q 513 247 438 247 q 608 266 588 247 q 629 313 629 285 l 629 686 q 608 731 629 713 q 513 750 588 750 q 417 731 438 750 q 396 686 396 713 l 396 313 m 783 1056 l 592 1056 q 557 1067 568 1056 q 546 1101 546 1078 l 546 1269 q 557 1304 546 1293 q 592 1315 568 1315 l 783 1315 q 818 1304 807 1315 q 829 1269 829 1293 l 829 1101 q 818 1067 829 1078 q 783 1056 807 1056 m 425 1056 l 233 1056 q 198 1067 210 1056 q 186 1101 186 1078 l 186 1269 q 198 1304 186 1293 q 233 1315 210 1315 l 425 1315 q 460 1304 449 1315 q 471 1269 471 1293 l 471 1101 q 460 1067 471 1078 q 425 1056 449 1056 z "},"Ō":{"ha":1024,"x_min":81,"x_max":943,"o":"m 943 263 q 924 147 943 199 q 858 58 906 94 q 726 0 810 21 q 513 -21 642 -21 q 299 0 383 -21 q 166 58 214 21 q 99 147 118 94 q 81 263 81 199 l 81 736 q 99 852 81 800 q 166 942 118 904 q 299 1000 214 979 q 513 1021 383 1021 q 726 1000 642 1021 q 858 942 810 979 q 924 852 906 904 q 943 736 943 800 l 943 263 m 396 313 q 417 266 396 285 q 513 247 438 247 q 608 266 588 247 q 629 313 629 285 l 629 686 q 608 731 629 713 q 513 750 588 750 q 417 731 438 750 q 396 686 396 713 l 396 313 m 751 1056 l 269 1056 q 231 1067 243 1056 q 219 1106 219 1079 l 219 1235 q 231 1273 219 1261 q 269 1285 243 1285 l 751 1285 q 790 1273 778 1285 q 801 1235 801 1261 l 801 1106 q 790 1067 801 1079 q 751 1056 778 1056 z "},"Ŏ":{"ha":1024,"x_min":81,"x_max":943,"o":"m 943 263 q 924 147 943 199 q 858 58 906 94 q 726 0 810 21 q 513 -21 642 -21 q 299 0 383 -21 q 166 58 214 21 q 99 147 118 94 q 81 263 81 199 l 81 736 q 99 852 81 800 q 166 942 118 904 q 299 1000 214 979 q 513 1021 383 1021 q 726 1000 642 1021 q 858 942 810 979 q 924 852 906 904 q 943 736 943 800 l 943 263 m 396 313 q 417 266 396 285 q 513 247 438 247 q 608 266 588 247 q 629 313 629 285 l 629 686 q 608 731 629 713 q 513 750 588 750 q 417 731 438 750 q 396 686 396 713 l 396 313 m 813 1246 q 799 1165 813 1201 q 752 1102 786 1128 q 660 1062 718 1076 q 511 1047 601 1047 q 363 1062 421 1047 q 270 1102 304 1076 q 223 1165 236 1128 q 210 1246 210 1201 l 210 1307 q 222 1345 210 1333 q 260 1357 233 1357 l 393 1357 q 424 1348 415 1357 q 433 1314 433 1339 l 433 1285 q 447 1252 433 1265 q 513 1239 461 1239 q 579 1252 564 1239 q 594 1285 594 1265 l 594 1314 q 603 1348 594 1339 q 636 1357 613 1357 l 763 1357 q 801 1345 789 1357 q 813 1307 813 1333 l 813 1246 z "},"Ő":{"ha":1024,"x_min":81,"x_max":943,"o":"m 943 263 q 924 147 943 199 q 858 58 906 94 q 726 0 810 21 q 513 -21 642 -21 q 299 0 383 -21 q 166 58 214 21 q 99 147 118 94 q 81 263 81 199 l 81 736 q 99 852 81 800 q 166 942 118 904 q 299 1000 214 979 q 513 1021 383 1021 q 726 1000 642 1021 q 858 942 810 979 q 924 852 906 904 q 943 736 943 800 l 943 263 m 396 313 q 417 266 396 285 q 513 247 438 247 q 608 266 588 247 q 629 313 629 285 l 629 686 q 608 731 629 713 q 513 750 588 750 q 417 731 438 750 q 396 686 396 713 l 396 313 m 567 1103 l 640 1390 q 655 1428 646 1415 q 690 1440 664 1440 l 838 1440 q 875 1428 861 1440 q 883 1393 889 1415 l 810 1106 q 795 1068 804 1081 q 760 1056 786 1056 l 613 1056 q 575 1068 589 1056 q 567 1103 561 1081 m 206 1103 l 279 1390 q 294 1428 285 1415 q 329 1440 303 1440 l 476 1440 q 514 1428 500 1440 q 522 1393 528 1415 l 449 1106 q 434 1068 443 1081 q 399 1056 425 1056 l 251 1056 q 214 1068 228 1056 q 206 1103 200 1081 z "},"P":{"ha":947,"x_min":96,"x_max":899,"o":"m 361 0 l 146 0 q 108 12 119 0 q 96 50 96 24 l 96 950 q 108 988 96 976 q 146 1000 119 1000 l 571 1000 q 829 925 760 1000 q 899 729 899 850 l 899 551 q 829 356 899 431 q 571 281 760 281 l 411 281 l 411 50 q 399 12 411 24 q 361 0 388 0 m 408 740 l 408 531 l 533 531 q 586 551 574 531 q 599 599 599 572 l 599 672 q 586 719 599 699 q 533 740 574 740 l 408 740 z "},"Q":{"ha":1024,"x_min":81,"x_max":943,"o":"m 618 -125 l 404 -125 q 366 -113 378 -125 q 354 -75 354 -101 l 354 1 q 137 98 193 25 q 81 275 81 171 l 81 736 q 99 852 81 800 q 166 942 118 904 q 299 1000 214 979 q 513 1021 383 1021 q 726 1000 642 1021 q 858 942 810 979 q 924 852 906 904 q 943 736 943 800 l 943 275 q 931 177 943 222 q 888 97 918 132 q 803 38 857 63 q 668 1 750 13 l 668 -75 q 656 -113 668 -101 q 618 -125 644 -125 m 396 306 q 417 259 396 278 q 513 240 438 240 q 608 259 588 240 q 629 306 629 278 l 629 685 q 608 730 629 711 q 513 749 588 749 q 417 730 438 749 q 396 685 396 711 l 396 306 z "},"R":{"ha":1032,"x_min":96,"x_max":972,"o":"m 410 750 l 410 572 l 514 572 q 563 591 550 572 q 575 638 575 610 l 575 685 q 563 731 575 713 q 514 750 550 750 l 410 750 m 360 0 l 146 0 q 108 12 119 0 q 96 50 96 24 l 96 950 q 108 988 96 976 q 146 1000 119 1000 l 608 1000 q 823 935 764 1000 q 882 768 882 871 l 882 704 q 865 605 882 646 q 804 546 847 564 q 926 485 879 538 q 972 344 972 432 l 972 50 q 960 12 972 24 q 922 0 949 0 l 707 0 q 669 12 681 0 q 657 50 657 24 l 657 263 q 645 308 657 293 q 604 322 633 322 l 410 322 l 410 50 q 398 12 410 24 q 360 0 386 0 z "},"Ŕ":{"ha":1032,"x_min":96,"x_max":972,"o":"m 410 750 l 410 572 l 514 572 q 563 591 550 572 q 575 638 575 610 l 575 685 q 563 731 575 713 q 514 750 550 750 l 410 750 m 360 0 l 146 0 q 108 12 119 0 q 96 50 96 24 l 96 950 q 108 988 96 976 q 146 1000 119 1000 l 608 1000 q 823 935 764 1000 q 882 768 882 871 l 882 704 q 865 605 882 646 q 804 546 847 564 q 926 485 879 538 q 972 344 972 432 l 972 50 q 960 12 972 24 q 922 0 949 0 l 707 0 q 669 12 681 0 q 657 50 657 24 l 657 263 q 645 308 657 293 q 604 322 633 322 l 410 322 l 410 50 q 398 12 410 24 q 360 0 386 0 m 742 1106 l 257 1046 q 222 1056 233 1043 q 210 1092 210 1068 l 210 1225 q 222 1262 210 1251 q 260 1275 233 1272 l 744 1335 q 780 1325 768 1338 q 792 1289 792 1313 l 792 1156 q 780 1119 792 1129 q 742 1106 768 1108 z "},"Ŗ":{"ha":1032,"x_min":96,"x_max":972,"o":"m 410 750 l 410 572 l 514 572 q 563 591 550 572 q 575 638 575 610 l 575 685 q 563 731 575 713 q 514 750 550 750 l 410 750 m 360 0 l 146 0 q 108 12 119 0 q 96 50 96 24 l 96 950 q 108 988 96 976 q 146 1000 119 1000 l 608 1000 q 823 935 764 1000 q 882 768 882 871 l 882 704 q 865 605 882 646 q 804 546 847 564 q 926 485 879 538 q 972 344 972 432 l 972 50 q 960 12 972 24 q 922 0 949 0 l 707 0 q 669 12 681 0 q 657 50 657 24 l 657 263 q 645 308 657 293 q 604 322 633 322 l 410 322 l 410 50 q 398 12 410 24 q 360 0 386 0 m 517 -503 l 425 -503 q 393 -492 403 -503 q 383 -460 383 -482 l 383 -412 q 393 -381 383 -390 q 425 -371 403 -371 l 507 -371 q 531 -362 522 -371 q 539 -337 539 -353 l 539 -319 l 419 -319 q 379 -308 390 -319 q 368 -265 368 -296 l 368 -114 q 379 -72 368 -83 q 419 -60 390 -60 l 639 -60 q 679 -72 668 -60 q 690 -114 690 -83 l 690 -325 q 643 -458 690 -414 q 517 -503 596 -503 z "},"Ř":{"ha":1032,"x_min":96,"x_max":972,"o":"m 410 750 l 410 572 l 514 572 q 563 591 550 572 q 575 638 575 610 l 575 685 q 563 731 575 713 q 514 750 550 750 l 410 750 m 360 0 l 146 0 q 108 12 119 0 q 96 50 96 24 l 96 950 q 108 988 96 976 q 146 1000 119 1000 l 608 1000 q 823 935 764 1000 q 882 768 882 871 l 882 704 q 865 605 882 646 q 804 546 847 564 q 926 485 879 538 q 972 344 972 432 l 972 50 q 960 12 972 24 q 922 0 949 0 l 707 0 q 669 12 681 0 q 657 50 657 24 l 657 263 q 645 308 657 293 q 604 322 633 322 l 410 322 l 410 50 q 398 12 410 24 q 360 0 386 0 m 558 1294 l 749 1350 q 794 1353 783 1361 q 806 1307 806 1344 l 806 1194 q 794 1146 806 1157 q 749 1121 782 1135 l 571 1057 q 544 1049 558 1051 q 517 1044 529 1046 q 493 1046 504 1044 q 472 1051 482 1047 l 282 1121 q 235 1146 247 1135 q 224 1194 224 1157 l 224 1307 q 235 1353 224 1344 q 282 1350 246 1361 l 472 1294 q 515 1289 496 1289 q 558 1294 535 1289 z "},"S":{"ha":903,"x_min":71,"x_max":847,"o":"m 560 0 l 121 0 q 83 12 94 0 q 71 50 71 24 l 71 213 q 83 251 71 239 q 121 263 94 263 l 494 263 q 522 274 513 263 q 531 303 531 286 q 522 338 531 326 q 494 350 513 349 l 286 379 q 130 443 189 393 q 71 610 71 493 l 71 756 q 147 937 71 874 q 358 1000 224 1000 l 747 1000 q 785 988 774 1000 q 797 950 797 976 l 797 785 q 785 747 797 758 q 747 735 774 735 l 424 735 q 396 723 406 735 q 386 693 386 711 q 396 663 386 675 q 424 649 406 650 l 631 621 q 788 557 728 607 q 847 390 847 507 l 847 244 q 770 63 847 126 q 560 0 693 0 z "},"Ś":{"ha":903,"x_min":71,"x_max":847,"o":"m 560 0 l 121 0 q 83 12 94 0 q 71 50 71 24 l 71 213 q 83 251 71 239 q 121 263 94 263 l 494 263 q 522 274 513 263 q 531 303 531 286 q 522 338 531 326 q 494 350 513 349 l 286 379 q 130 443 189 393 q 71 610 71 493 l 71 756 q 147 937 71 874 q 358 1000 224 1000 l 747 1000 q 785 988 774 1000 q 797 950 797 976 l 797 785 q 785 747 797 758 q 747 735 774 735 l 424 735 q 396 723 406 735 q 386 693 386 711 q 396 663 386 675 q 424 649 406 650 l 631 621 q 788 557 728 607 q 847 390 847 507 l 847 244 q 770 63 847 126 q 560 0 693 0 m 706 1106 l 221 1046 q 185 1056 197 1043 q 174 1092 174 1068 l 174 1225 q 185 1262 174 1251 q 224 1275 197 1272 l 708 1335 q 744 1325 732 1338 q 756 1289 756 1313 l 756 1156 q 744 1119 756 1129 q 706 1106 732 1108 z "},"Ŝ":{"ha":903,"x_min":71,"x_max":847,"o":"m 560 0 l 121 0 q 83 12 94 0 q 71 50 71 24 l 71 213 q 83 251 71 239 q 121 263 94 263 l 494 263 q 522 274 513 263 q 531 303 531 286 q 522 338 531 326 q 494 350 513 349 l 286 379 q 130 443 189 393 q 71 610 71 493 l 71 756 q 147 937 71 874 q 358 1000 224 1000 l 747 1000 q 785 988 774 1000 q 797 950 797 976 l 797 785 q 785 747 797 758 q 747 735 774 735 l 424 735 q 396 723 406 735 q 386 693 386 711 q 396 663 386 675 q 424 649 406 650 l 631 621 q 788 557 728 607 q 847 390 847 507 l 847 244 q 770 63 847 126 q 560 0 693 0 m 407 1107 l 217 1051 q 171 1049 182 1040 q 160 1094 160 1057 l 160 1207 q 172 1256 160 1244 q 217 1281 183 1267 l 394 1344 q 422 1353 407 1350 q 449 1357 436 1356 q 472 1356 461 1357 q 493 1350 483 1354 l 683 1281 q 730 1256 718 1267 q 742 1207 742 1244 l 742 1094 q 731 1049 742 1057 q 683 1051 719 1040 l 493 1107 q 450 1113 469 1113 q 407 1107 431 1113 z "},"Ş":{"ha":903,"x_min":71,"x_max":847,"o":"m 471 -175 l 296 -175 q 253 -160 261 -175 q 254 -119 244 -144 l 299 0 l 121 0 q 83 12 94 0 q 71 50 71 24 l 71 213 q 83 251 71 239 q 121 263 94 263 l 494 263 q 522 274 513 263 q 531 303 531 286 q 522 338 531 326 q 494 350 513 349 l 286 379 q 130 443 189 393 q 71 610 71 493 l 71 756 q 147 937 71 874 q 358 1000 224 1000 l 747 1000 q 785 988 774 1000 q 797 950 797 976 l 797 785 q 785 747 797 758 q 747 735 774 735 l 424 735 q 396 723 406 735 q 386 693 386 711 q 396 663 386 675 q 424 649 406 650 l 631 621 q 788 557 728 607 q 847 390 847 507 l 847 244 q 777 69 847 132 q 582 0 707 6 l 535 -133 q 513 -165 528 -156 q 471 -175 497 -175 z "},"Š":{"ha":903,"x_min":71,"x_max":847,"o":"m 560 0 l 121 0 q 83 12 94 0 q 71 50 71 24 l 71 213 q 83 251 71 239 q 121 263 94 263 l 494 263 q 522 274 513 263 q 531 303 531 286 q 522 338 531 326 q 494 350 513 349 l 286 379 q 130 443 189 393 q 71 610 71 493 l 71 756 q 147 937 71 874 q 358 1000 224 1000 l 747 1000 q 785 988 774 1000 q 797 950 797 976 l 797 785 q 785 747 797 758 q 747 735 774 735 l 424 735 q 396 723 406 735 q 386 693 386 711 q 396 663 386 675 q 424 649 406 650 l 631 621 q 788 557 728 607 q 847 390 847 507 l 847 244 q 770 63 847 126 q 560 0 693 0 m 508 1294 l 699 1350 q 744 1353 733 1361 q 756 1307 756 1344 l 756 1194 q 744 1146 756 1157 q 699 1121 732 1135 l 521 1057 q 494 1049 508 1051 q 467 1044 479 1046 q 443 1046 454 1044 q 422 1051 432 1047 l 232 1121 q 185 1146 197 1135 q 174 1194 174 1157 l 174 1307 q 185 1353 174 1344 q 232 1350 196 1361 l 422 1294 q 465 1289 446 1289 q 508 1294 485 1289 z "},"Ș":{"ha":903,"x_min":71,"x_max":847,"o":"m 560 0 l 121 0 q 83 12 94 0 q 71 50 71 24 l 71 213 q 83 251 71 239 q 121 263 94 263 l 494 263 q 522 274 513 263 q 531 303 531 286 q 522 338 531 326 q 494 350 513 349 l 286 379 q 130 443 189 393 q 71 610 71 493 l 71 756 q 147 937 71 874 q 358 1000 224 1000 l 747 1000 q 785 988 774 1000 q 797 950 797 976 l 797 785 q 785 747 797 758 q 747 735 774 735 l 424 735 q 396 723 406 735 q 386 693 386 711 q 396 663 386 675 q 424 649 406 650 l 631 621 q 788 557 728 607 q 847 390 847 507 l 847 244 q 770 63 847 126 q 560 0 693 0 m 453 -503 l 361 -503 q 329 -492 339 -503 q 319 -460 319 -482 l 319 -412 q 329 -381 319 -390 q 361 -371 339 -371 l 443 -371 q 467 -362 458 -371 q 475 -337 475 -353 l 475 -319 l 356 -319 q 315 -308 326 -319 q 304 -265 304 -296 l 304 -114 q 315 -72 304 -83 q 356 -60 326 -60 l 575 -60 q 615 -72 604 -60 q 626 -114 626 -83 l 626 -325 q 579 -458 626 -414 q 453 -503 532 -503 z "},"T":{"ha":911,"x_min":39,"x_max":872,"o":"m 568 0 l 343 0 q 305 12 317 0 q 293 50 293 24 l 293 732 l 89 732 q 51 744 63 732 q 39 782 39 756 l 39 950 q 51 988 39 976 q 89 1000 63 1000 l 822 1000 q 860 988 849 1000 q 872 950 872 976 l 872 782 q 860 744 872 756 q 822 732 849 732 l 618 732 l 618 50 q 606 12 618 24 q 568 0 594 0 z "},"Ţ":{"ha":911,"x_min":39,"x_max":872,"o":"m 568 0 l 343 0 q 305 12 317 0 q 293 50 293 24 l 293 732 l 89 732 q 51 744 63 732 q 39 782 39 756 l 39 950 q 51 988 39 976 q 89 1000 63 1000 l 822 1000 q 860 988 849 1000 q 872 950 872 976 l 872 782 q 860 744 872 756 q 822 732 849 732 l 618 732 l 618 50 q 606 12 618 24 q 568 0 594 0 m 443 -503 l 351 -503 q 319 -492 329 -503 q 310 -460 310 -482 l 310 -412 q 319 -381 310 -390 q 351 -371 329 -371 l 433 -371 q 457 -362 449 -371 q 465 -337 465 -353 l 465 -319 l 346 -319 q 306 -308 317 -319 q 294 -265 294 -296 l 294 -114 q 306 -72 294 -83 q 346 -60 317 -60 l 565 -60 q 606 -72 594 -60 q 617 -114 617 -83 l 617 -325 q 569 -458 617 -414 q 443 -503 522 -503 z "},"Ť":{"ha":911,"x_min":39,"x_max":872,"o":"m 568 0 l 343 0 q 305 12 317 0 q 293 50 293 24 l 293 732 l 89 732 q 51 744 63 732 q 39 782 39 756 l 39 950 q 51 988 39 976 q 89 1000 63 1000 l 822 1000 q 860 988 849 1000 q 872 950 872 976 l 872 782 q 860 744 872 756 q 822 732 849 732 l 618 732 l 618 50 q 606 12 618 24 q 568 0 594 0 m 499 1294 l 689 1350 q 735 1353 724 1361 q 746 1307 746 1344 l 746 1194 q 734 1146 746 1157 q 689 1121 722 1135 l 511 1057 q 484 1049 499 1051 q 457 1044 469 1046 q 433 1046 444 1044 q 413 1051 422 1047 l 222 1121 q 176 1146 188 1135 q 164 1194 164 1157 l 164 1307 q 175 1353 164 1344 q 222 1350 186 1361 l 413 1294 q 456 1289 436 1289 q 499 1294 475 1289 z "},"U":{"ha":1036,"x_min":89,"x_max":947,"o":"m 947 263 q 928 147 947 199 q 862 58 910 94 q 731 0 814 21 q 518 -21 647 -21 q 306 0 389 -21 q 174 58 222 21 q 108 147 126 94 q 89 263 89 199 l 89 950 q 101 988 89 976 q 139 1000 113 1000 l 357 1000 q 395 988 383 1000 q 407 950 407 976 l 407 317 q 428 270 407 289 q 521 251 449 251 q 615 270 594 251 q 636 317 636 289 l 636 950 q 648 988 636 976 q 686 1000 660 1000 l 897 1000 q 935 988 924 1000 q 947 950 947 976 l 947 263 z "},"Ù":{"ha":1036,"x_min":89,"x_max":947,"o":"m 947 263 q 928 147 947 199 q 862 58 910 94 q 731 0 814 21 q 518 -21 647 -21 q 306 0 389 -21 q 174 58 222 21 q 108 147 126 94 q 89 263 89 199 l 89 950 q 101 988 89 976 q 139 1000 113 1000 l 357 1000 q 395 988 383 1000 q 407 950 407 976 l 407 317 q 428 270 407 289 q 521 251 449 251 q 615 270 594 251 q 636 317 636 289 l 636 950 q 648 988 636 976 q 686 1000 660 1000 l 897 1000 q 935 988 924 1000 q 947 950 947 976 l 947 263 m 747 1046 l 263 1106 q 224 1119 236 1108 q 213 1156 213 1129 l 213 1289 q 224 1325 213 1313 q 260 1335 236 1338 l 744 1275 q 783 1262 771 1272 q 794 1225 794 1251 l 794 1092 q 783 1056 794 1068 q 747 1046 771 1043 z "},"Ú":{"ha":1036,"x_min":89,"x_max":947,"o":"m 947 263 q 928 147 947 199 q 862 58 910 94 q 731 0 814 21 q 518 -21 647 -21 q 306 0 389 -21 q 174 58 222 21 q 108 147 126 94 q 89 263 89 199 l 89 950 q 101 988 89 976 q 139 1000 113 1000 l 357 1000 q 395 988 383 1000 q 407 950 407 976 l 407 317 q 428 270 407 289 q 521 251 449 251 q 615 270 594 251 q 636 317 636 289 l 636 950 q 648 988 636 976 q 686 1000 660 1000 l 897 1000 q 935 988 924 1000 q 947 950 947 976 l 947 263 m 772 1106 l 288 1046 q 252 1056 264 1043 q 240 1092 240 1068 l 240 1225 q 252 1262 240 1251 q 290 1275 264 1272 l 775 1335 q 810 1325 799 1338 q 822 1289 822 1313 l 822 1156 q 810 1119 822 1129 q 772 1106 799 1108 z "},"Û":{"ha":1036,"x_min":89,"x_max":947,"o":"m 947 263 q 928 147 947 199 q 862 58 910 94 q 731 0 814 21 q 518 -21 647 -21 q 306 0 389 -21 q 174 58 222 21 q 108 147 126 94 q 89 263 89 199 l 89 950 q 101 988 89 976 q 139 1000 113 1000 l 357 1000 q 395 988 383 1000 q 407 950 407 976 l 407 317 q 428 270 407 289 q 521 251 449 251 q 615 270 594 251 q 636 317 636 289 l 636 950 q 648 988 636 976 q 686 1000 660 1000 l 897 1000 q 935 988 924 1000 q 947 950 947 976 l 947 263 m 474 1107 l 283 1051 q 238 1049 249 1040 q 226 1094 226 1057 l 226 1207 q 238 1256 226 1244 q 283 1281 250 1267 l 461 1344 q 488 1353 474 1350 q 515 1357 503 1356 q 539 1356 528 1357 q 560 1350 550 1354 l 750 1281 q 797 1256 785 1267 q 808 1207 808 1244 l 808 1094 q 797 1049 808 1057 q 750 1051 786 1040 l 560 1107 q 517 1113 536 1113 q 474 1107 497 1113 z "},"Ü":{"ha":1036,"x_min":89,"x_max":947,"o":"m 947 263 q 928 147 947 199 q 862 58 910 94 q 731 0 814 21 q 518 -21 647 -21 q 306 0 389 -21 q 174 58 222 21 q 108 147 126 94 q 89 263 89 199 l 89 950 q 101 988 89 976 q 139 1000 113 1000 l 357 1000 q 395 988 383 1000 q 407 950 407 976 l 407 317 q 428 270 407 289 q 521 251 449 251 q 615 270 594 251 q 636 317 636 289 l 636 950 q 648 988 636 976 q 686 1000 660 1000 l 897 1000 q 935 988 924 1000 q 947 950 947 976 l 947 263 m 790 1056 l 599 1056 q 564 1067 575 1056 q 553 1101 553 1078 l 553 1269 q 564 1304 553 1293 q 599 1315 575 1315 l 790 1315 q 825 1304 814 1315 q 836 1269 836 1293 l 836 1101 q 825 1067 836 1078 q 790 1056 814 1056 m 432 1056 l 240 1056 q 205 1067 217 1056 q 193 1101 193 1078 l 193 1269 q 205 1304 193 1293 q 240 1315 217 1315 l 432 1315 q 467 1304 456 1315 q 478 1269 478 1293 l 478 1101 q 467 1067 478 1078 q 432 1056 456 1056 z "},"Ũ":{"ha":1036,"x_min":89,"x_max":947,"o":"m 947 263 q 928 147 947 199 q 862 58 910 94 q 731 0 814 21 q 518 -21 647 -21 q 306 0 389 -21 q 174 58 222 21 q 108 147 126 94 q 89 263 89 199 l 89 950 q 101 988 89 976 q 139 1000 113 1000 l 357 1000 q 395 988 383 1000 q 407 950 407 976 l 407 317 q 428 270 407 289 q 521 251 449 251 q 615 270 594 251 q 636 317 636 289 l 636 950 q 648 988 636 976 q 686 1000 660 1000 l 897 1000 q 935 988 924 1000 q 947 950 947 976 l 947 263 m 517 1061 l 478 1067 q 413 1074 439 1072 q 365 1074 386 1076 q 324 1067 344 1072 q 276 1054 304 1063 q 239 1056 251 1047 q 226 1090 226 1064 l 226 1231 q 240 1267 226 1257 q 276 1288 253 1278 q 332 1302 310 1297 q 376 1307 354 1307 q 424 1303 397 1307 q 493 1294 451 1300 l 517 1292 l 547 1288 q 620 1278 593 1281 q 667 1276 647 1275 q 707 1283 688 1278 q 757 1299 726 1289 q 794 1297 782 1306 q 807 1263 807 1289 l 807 1122 q 794 1085 807 1096 q 757 1065 781 1075 q 701 1051 724 1056 q 657 1046 679 1046 q 608 1049 635 1046 q 539 1058 581 1053 l 517 1061 z "},"Ū":{"ha":1036,"x_min":89,"x_max":947,"o":"m 947 263 q 928 147 947 199 q 862 58 910 94 q 731 0 814 21 q 518 -21 647 -21 q 306 0 389 -21 q 174 58 222 21 q 108 147 126 94 q 89 263 89 199 l 89 950 q 101 988 89 976 q 139 1000 113 1000 l 357 1000 q 395 988 383 1000 q 407 950 407 976 l 407 317 q 428 270 407 289 q 521 251 449 251 q 615 270 594 251 q 636 317 636 289 l 636 950 q 648 988 636 976 q 686 1000 660 1000 l 897 1000 q 935 988 924 1000 q 947 950 947 976 l 947 263 m 758 1056 l 276 1056 q 238 1067 250 1056 q 226 1106 226 1079 l 226 1235 q 238 1273 226 1261 q 276 1285 250 1285 l 758 1285 q 797 1273 785 1285 q 808 1235 808 1261 l 808 1106 q 797 1067 808 1079 q 758 1056 785 1056 z "},"Ŭ":{"ha":1036,"x_min":89,"x_max":947,"o":"m 947 263 q 928 147 947 199 q 862 58 910 94 q 731 0 814 21 q 518 -21 647 -21 q 306 0 389 -21 q 174 58 222 21 q 108 147 126 94 q 89 263 89 199 l 89 950 q 101 988 89 976 q 139 1000 113 1000 l 357 1000 q 395 988 383 1000 q 407 950 407 976 l 407 317 q 428 270 407 289 q 521 251 449 251 q 615 270 594 251 q 636 317 636 289 l 636 950 q 648 988 636 976 q 686 1000 660 1000 l 897 1000 q 935 988 924 1000 q 947 950 947 976 l 947 263 m 819 1246 q 806 1165 819 1201 q 759 1102 793 1128 q 667 1062 725 1076 q 518 1047 608 1047 q 369 1062 428 1047 q 277 1102 311 1076 q 230 1165 243 1128 q 217 1246 217 1201 l 217 1307 q 228 1345 217 1333 q 267 1357 240 1357 l 400 1357 q 431 1348 422 1357 q 440 1314 440 1339 l 440 1285 q 454 1252 440 1265 q 519 1239 468 1239 q 586 1252 571 1239 q 601 1285 601 1265 l 601 1314 q 610 1348 601 1339 q 643 1357 619 1357 l 769 1357 q 808 1345 796 1357 q 819 1307 819 1333 l 819 1246 z "},"Ů":{"ha":1036,"x_min":89,"x_max":947,"o":"m 947 263 q 928 147 947 199 q 862 58 910 94 q 731 0 814 21 q 518 -21 647 -21 q 306 0 389 -21 q 174 58 222 21 q 108 147 126 94 q 89 263 89 199 l 89 950 q 101 988 89 976 q 139 1000 113 1000 l 357 1000 q 395 988 383 1000 q 407 950 407 976 l 407 317 q 428 270 407 289 q 521 251 449 251 q 615 270 594 251 q 636 317 636 289 l 636 950 q 648 988 636 976 q 686 1000 660 1000 l 897 1000 q 935 988 924 1000 q 947 950 947 976 l 947 263 m 819 1382 l 819 1246 q 806 1165 819 1201 q 759 1102 793 1128 q 667 1062 725 1076 q 518 1047 608 1047 q 369 1062 428 1047 q 277 1102 311 1076 q 230 1165 243 1128 q 217 1246 217 1201 l 217 1382 q 230 1463 217 1426 q 277 1526 243 1500 q 369 1566 311 1551 q 518 1581 428 1581 q 667 1566 608 1581 q 759 1526 725 1551 q 806 1463 793 1500 q 819 1382 819 1426 m 601 1292 l 601 1340 q 586 1381 601 1367 q 519 1396 571 1396 q 454 1381 468 1396 q 440 1340 440 1367 l 440 1292 q 454 1247 440 1261 q 519 1232 468 1232 q 586 1247 571 1232 q 601 1292 601 1261 z "},"Ű":{"ha":1036,"x_min":89,"x_max":947,"o":"m 947 263 q 928 147 947 199 q 862 58 910 94 q 731 0 814 21 q 518 -21 647 -21 q 306 0 389 -21 q 174 58 222 21 q 108 147 126 94 q 89 263 89 199 l 89 950 q 101 988 89 976 q 139 1000 113 1000 l 357 1000 q 395 988 383 1000 q 407 950 407 976 l 407 317 q 428 270 407 289 q 521 251 449 251 q 615 270 594 251 q 636 317 636 289 l 636 950 q 648 988 636 976 q 686 1000 660 1000 l 897 1000 q 935 988 924 1000 q 947 950 947 976 l 947 263 m 579 1103 l 653 1390 q 667 1428 658 1415 q 703 1440 676 1440 l 850 1440 q 888 1428 874 1440 q 896 1393 901 1415 l 822 1106 q 808 1068 817 1081 q 772 1056 799 1056 l 625 1056 q 588 1068 601 1056 q 579 1103 574 1081 m 218 1103 l 292 1390 q 306 1428 297 1415 q 342 1440 315 1440 l 489 1440 q 526 1428 513 1440 q 535 1393 540 1415 l 461 1106 q 447 1068 456 1081 q 411 1056 438 1056 l 264 1056 q 226 1068 240 1056 q 218 1103 213 1081 z "},"Ų":{"ha":1036,"x_min":89,"x_max":947,"o":"m 678 -272 l 524 -272 q 402 -226 435 -272 q 383 -85 369 -181 l 396 -15 q 246 18 306 -6 q 151 78 186 42 q 103 160 117 114 q 89 263 89 207 l 89 950 q 101 988 89 976 q 139 1000 113 1000 l 357 1000 q 395 988 383 1000 q 407 950 407 976 l 407 317 q 428 270 407 289 q 521 251 449 251 q 615 270 594 251 q 636 317 636 289 l 636 950 q 648 988 636 976 q 686 1000 660 1000 l 897 1000 q 935 988 924 1000 q 947 950 947 976 l 947 263 q 933 159 947 207 q 882 75 918 111 q 783 15 846 39 q 625 -17 721 -8 l 617 -78 l 674 -78 q 713 -88 703 -78 q 724 -125 724 -99 l 724 -225 q 714 -262 724 -251 q 678 -272 704 -272 z "},"V":{"ha":1014,"x_min":75,"x_max":939,"o":"m 688 0 l 326 0 q 283 10 300 0 q 256 46 265 19 l 119 386 q 99 440 107 417 q 85 483 90 463 q 77 527 79 504 q 75 583 75 550 l 75 950 q 87 988 75 976 q 125 1000 99 1000 l 346 1000 q 386 988 372 1000 q 400 950 400 976 l 400 567 q 403 539 400 553 q 411 510 406 525 l 476 315 q 486 297 481 301 q 503 292 492 292 l 518 292 q 535 297 529 292 q 544 315 540 301 l 610 511 q 618 540 615 526 q 621 568 621 554 l 621 950 q 633 988 621 976 q 671 1000 644 1000 l 889 1000 q 927 988 915 1000 q 939 950 939 976 l 939 583 q 937 527 939 550 q 929 483 935 504 q 915 440 924 463 q 894 386 907 417 l 758 46 q 731 10 749 19 q 688 0 714 0 z "},"W":{"ha":1154,"x_min":83,"x_max":1071,"o":"m 814 1000 l 1021 1000 q 1059 988 1047 1000 q 1071 950 1071 976 l 1071 411 q 1067 328 1071 367 q 1046 239 1064 290 l 976 50 q 956 15 969 29 q 921 0 943 0 l 736 0 q 696 10 714 0 q 672 42 678 19 l 608 268 q 598 287 604 282 q 583 292 592 292 l 571 292 q 556 287 563 292 q 546 268 550 282 l 481 42 q 460 10 475 21 q 422 0 444 0 l 239 0 q 201 14 217 0 q 178 50 185 28 l 108 242 q 87 331 90 293 q 83 414 83 369 l 83 950 q 95 988 83 976 q 133 1000 107 1000 l 347 1000 q 385 988 374 1000 q 397 950 397 976 l 397 439 l 478 614 q 507 647 489 638 q 551 657 525 657 l 610 657 q 654 647 636 657 q 683 614 672 638 l 764 439 l 764 950 q 776 988 764 976 q 814 1000 788 1000 z "},"Ŵ":{"ha":1154,"x_min":83,"x_max":1071,"o":"m 814 1000 l 1021 1000 q 1059 988 1047 1000 q 1071 950 1071 976 l 1071 411 q 1067 328 1071 367 q 1046 239 1064 290 l 976 50 q 956 15 969 29 q 921 0 943 0 l 736 0 q 696 10 714 0 q 672 42 678 19 l 608 268 q 598 287 604 282 q 583 292 592 292 l 571 292 q 556 287 563 292 q 546 268 550 282 l 481 42 q 460 10 475 21 q 422 0 444 0 l 239 0 q 201 14 217 0 q 178 50 185 28 l 108 242 q 87 331 90 293 q 83 414 83 369 l 83 950 q 95 988 83 976 q 133 1000 107 1000 l 347 1000 q 385 988 374 1000 q 397 950 397 976 l 397 439 l 478 614 q 507 647 489 638 q 551 657 525 657 l 610 657 q 654 647 636 657 q 683 614 672 638 l 764 439 l 764 950 q 776 988 764 976 q 814 1000 788 1000 m 532 1107 l 342 1051 q 296 1049 307 1040 q 285 1094 285 1057 l 285 1207 q 297 1256 285 1244 q 342 1281 308 1267 l 519 1344 q 547 1353 532 1350 q 574 1357 561 1356 q 597 1356 586 1357 q 618 1350 608 1354 l 808 1281 q 855 1256 843 1267 q 867 1207 867 1244 l 867 1094 q 856 1049 867 1057 q 808 1051 844 1040 l 618 1107 q 575 1113 594 1113 q 532 1107 556 1113 z "},"Ẁ":{"ha":1154,"x_min":83,"x_max":1071,"o":"m 814 1000 l 1021 1000 q 1059 988 1047 1000 q 1071 950 1071 976 l 1071 411 q 1067 328 1071 367 q 1046 239 1064 290 l 976 50 q 956 15 969 29 q 921 0 943 0 l 736 0 q 696 10 714 0 q 672 42 678 19 l 608 268 q 598 287 604 282 q 583 292 592 292 l 571 292 q 556 287 563 292 q 546 268 550 282 l 481 42 q 460 10 475 21 q 422 0 444 0 l 239 0 q 201 14 217 0 q 178 50 185 28 l 108 242 q 87 331 90 293 q 83 414 83 369 l 83 950 q 95 988 83 976 q 133 1000 107 1000 l 347 1000 q 385 988 374 1000 q 397 950 397 976 l 397 439 l 478 614 q 507 647 489 638 q 551 657 525 657 l 610 657 q 654 647 636 657 q 683 614 672 638 l 764 439 l 764 950 q 776 988 764 976 q 814 1000 788 1000 m 806 1046 l 321 1106 q 283 1119 294 1108 q 271 1156 271 1129 l 271 1289 q 283 1325 271 1313 q 318 1335 294 1338 l 803 1275 q 841 1262 829 1272 q 853 1225 853 1251 l 853 1092 q 841 1056 853 1068 q 806 1046 829 1043 z "},"Ẃ":{"ha":1154,"x_min":83,"x_max":1071,"o":"m 814 1000 l 1021 1000 q 1059 988 1047 1000 q 1071 950 1071 976 l 1071 411 q 1067 328 1071 367 q 1046 239 1064 290 l 976 50 q 956 15 969 29 q 921 0 943 0 l 736 0 q 696 10 714 0 q 672 42 678 19 l 608 268 q 598 287 604 282 q 583 292 592 292 l 571 292 q 556 287 563 292 q 546 268 550 282 l 481 42 q 460 10 475 21 q 422 0 444 0 l 239 0 q 201 14 217 0 q 178 50 185 28 l 108 242 q 87 331 90 293 q 83 414 83 369 l 83 950 q 95 988 83 976 q 133 1000 107 1000 l 347 1000 q 385 988 374 1000 q 397 950 397 976 l 397 439 l 478 614 q 507 647 489 638 q 551 657 525 657 l 610 657 q 654 647 636 657 q 683 614 672 638 l 764 439 l 764 950 q 776 988 764 976 q 814 1000 788 1000 m 831 1106 l 346 1046 q 310 1056 322 1043 q 299 1092 299 1068 l 299 1225 q 310 1262 299 1251 q 349 1275 322 1272 l 833 1335 q 869 1325 857 1338 q 881 1289 881 1313 l 881 1156 q 869 1119 881 1129 q 831 1106 857 1108 z "},"Ẅ":{"ha":1154,"x_min":83,"x_max":1071,"o":"m 814 1000 l 1021 1000 q 1059 988 1047 1000 q 1071 950 1071 976 l 1071 411 q 1067 328 1071 367 q 1046 239 1064 290 l 976 50 q 956 15 969 29 q 921 0 943 0 l 736 0 q 696 10 714 0 q 672 42 678 19 l 608 268 q 598 287 604 282 q 583 292 592 292 l 571 292 q 556 287 563 292 q 546 268 550 282 l 481 42 q 460 10 475 21 q 422 0 444 0 l 239 0 q 201 14 217 0 q 178 50 185 28 l 108 242 q 87 331 90 293 q 83 414 83 369 l 83 950 q 95 988 83 976 q 133 1000 107 1000 l 347 1000 q 385 988 374 1000 q 397 950 397 976 l 397 439 l 478 614 q 507 647 489 638 q 551 657 525 657 l 610 657 q 654 647 636 657 q 683 614 672 638 l 764 439 l 764 950 q 776 988 764 976 q 814 1000 788 1000 m 849 1056 l 657 1056 q 622 1067 633 1056 q 611 1101 611 1078 l 611 1269 q 622 1304 611 1293 q 657 1315 633 1315 l 849 1315 q 883 1304 872 1315 q 894 1269 894 1293 l 894 1101 q 883 1067 894 1078 q 849 1056 872 1056 m 490 1056 l 299 1056 q 263 1067 275 1056 q 251 1101 251 1078 l 251 1269 q 263 1304 251 1293 q 299 1315 275 1315 l 490 1315 q 525 1304 514 1315 q 536 1269 536 1293 l 536 1101 q 525 1067 536 1078 q 490 1056 514 1056 z "},"X":{"ha":1024,"x_min":83,"x_max":940,"o":"m 394 50 q 383 12 394 24 q 344 0 371 0 l 133 0 q 95 12 107 0 q 83 50 83 24 l 83 199 q 94 294 83 263 q 136 369 106 326 l 249 521 l 136 672 q 94 747 104 715 q 83 843 83 779 l 83 950 q 95 988 83 976 q 133 1000 107 1000 l 347 1000 q 385 988 374 1000 q 397 950 397 976 l 397 854 q 399 825 397 840 q 410 796 400 810 l 471 708 q 485 691 478 697 q 504 685 493 685 l 521 685 q 539 691 532 685 q 554 708 546 697 l 617 796 q 628 825 626 810 q 629 854 629 840 l 629 950 q 641 988 629 976 q 679 1000 653 1000 l 890 1000 q 928 988 917 1000 q 940 950 940 976 l 940 843 q 929 747 940 779 q 888 672 918 715 l 775 519 l 888 369 q 930 294 919 326 q 940 199 940 263 l 940 50 q 928 12 940 24 q 890 0 917 0 l 679 0 q 641 12 653 0 q 629 50 629 24 l 629 188 q 628 217 629 201 q 617 246 626 232 l 556 333 q 540 351 547 346 q 522 357 533 357 l 503 357 q 485 351 492 357 q 469 333 478 346 l 407 246 q 396 217 397 232 q 394 188 394 201 l 394 50 z "},"Y":{"ha":979,"x_min":63,"x_max":917,"o":"m 603 0 l 378 0 q 340 12 351 0 q 328 50 328 24 l 328 228 l 115 513 q 73 588 83 556 q 63 683 63 619 l 63 950 q 74 988 63 976 q 113 1000 86 1000 l 326 1000 q 365 988 353 1000 q 376 950 376 976 l 376 722 q 378 693 376 708 q 389 664 379 678 l 453 564 q 467 546 460 551 q 486 540 475 540 l 500 540 q 519 546 511 540 q 533 564 526 551 l 597 664 q 608 693 607 678 q 610 722 610 708 l 610 950 q 622 988 610 976 q 660 1000 633 1000 l 867 1000 q 905 988 893 1000 q 917 950 917 976 l 917 683 q 906 588 917 619 q 864 513 894 556 l 653 226 l 653 50 q 641 12 653 24 q 603 0 629 0 z "},"Ý":{"ha":979,"x_min":63,"x_max":917,"o":"m 603 0 l 378 0 q 340 12 351 0 q 328 50 328 24 l 328 228 l 115 513 q 73 588 83 556 q 63 683 63 619 l 63 950 q 74 988 63 976 q 113 1000 86 1000 l 326 1000 q 365 988 353 1000 q 376 950 376 976 l 376 722 q 378 693 376 708 q 389 664 379 678 l 453 564 q 467 546 460 551 q 486 540 475 540 l 500 540 q 519 546 511 540 q 533 564 526 551 l 597 664 q 608 693 607 678 q 610 722 610 708 l 610 950 q 622 988 610 976 q 660 1000 633 1000 l 867 1000 q 905 988 893 1000 q 917 950 917 976 l 917 683 q 906 588 917 619 q 864 513 894 556 l 653 226 l 653 50 q 641 12 653 24 q 603 0 629 0 m 743 1106 l 258 1046 q 223 1056 235 1043 q 211 1092 211 1068 l 211 1225 q 223 1262 211 1251 q 261 1275 235 1272 l 746 1335 q 781 1325 769 1338 q 793 1289 793 1313 l 793 1156 q 781 1119 793 1129 q 743 1106 769 1108 z "},"Ŷ":{"ha":979,"x_min":63,"x_max":917,"o":"m 603 0 l 378 0 q 340 12 351 0 q 328 50 328 24 l 328 228 l 115 513 q 73 588 83 556 q 63 683 63 619 l 63 950 q 74 988 63 976 q 113 1000 86 1000 l 326 1000 q 365 988 353 1000 q 376 950 376 976 l 376 722 q 378 693 376 708 q 389 664 379 678 l 453 564 q 467 546 460 551 q 486 540 475 540 l 500 540 q 519 546 511 540 q 533 564 526 551 l 597 664 q 608 693 607 678 q 610 722 610 708 l 610 950 q 622 988 610 976 q 660 1000 633 1000 l 867 1000 q 905 988 893 1000 q 917 950 917 976 l 917 683 q 906 588 917 619 q 864 513 894 556 l 653 226 l 653 50 q 641 12 653 24 q 603 0 629 0 m 444 1107 l 254 1051 q 208 1049 219 1040 q 197 1094 197 1057 l 197 1207 q 209 1256 197 1244 q 254 1281 221 1267 l 432 1344 q 459 1353 444 1350 q 486 1357 474 1356 q 510 1356 499 1357 q 531 1350 521 1354 l 721 1281 q 767 1256 756 1267 q 779 1207 779 1244 l 779 1094 q 768 1049 779 1057 q 721 1051 757 1040 l 531 1107 q 488 1113 507 1113 q 444 1107 468 1113 z "},"Ÿ":{"ha":979,"x_min":63,"x_max":917,"o":"m 603 0 l 378 0 q 340 12 351 0 q 328 50 328 24 l 328 228 l 115 513 q 73 588 83 556 q 63 683 63 619 l 63 950 q 74 988 63 976 q 113 1000 86 1000 l 326 1000 q 365 988 353 1000 q 376 950 376 976 l 376 722 q 378 693 376 708 q 389 664 379 678 l 453 564 q 467 546 460 551 q 486 540 475 540 l 500 540 q 519 546 511 540 q 533 564 526 551 l 597 664 q 608 693 607 678 q 610 722 610 708 l 610 950 q 622 988 610 976 q 660 1000 633 1000 l 867 1000 q 905 988 893 1000 q 917 950 917 976 l 917 683 q 906 588 917 619 q 864 513 894 556 l 653 226 l 653 50 q 641 12 653 24 q 603 0 629 0 m 761 1056 l 569 1056 q 535 1067 546 1056 q 524 1101 524 1078 l 524 1269 q 535 1304 524 1293 q 569 1315 546 1315 l 761 1315 q 796 1304 785 1315 q 807 1269 807 1293 l 807 1101 q 796 1067 807 1078 q 761 1056 785 1056 m 403 1056 l 211 1056 q 176 1067 188 1056 q 164 1101 164 1078 l 164 1269 q 176 1304 164 1293 q 211 1315 188 1315 l 403 1315 q 438 1304 426 1315 q 449 1269 449 1293 l 449 1101 q 438 1067 449 1078 q 403 1056 426 1056 z "},"Ỳ":{"ha":979,"x_min":63,"x_max":917,"o":"m 603 0 l 378 0 q 340 12 351 0 q 328 50 328 24 l 328 228 l 115 513 q 73 588 83 556 q 63 683 63 619 l 63 950 q 74 988 63 976 q 113 1000 86 1000 l 326 1000 q 365 988 353 1000 q 376 950 376 976 l 376 722 q 378 693 376 708 q 389 664 379 678 l 453 564 q 467 546 460 551 q 486 540 475 540 l 500 540 q 519 546 511 540 q 533 564 526 551 l 597 664 q 608 693 607 678 q 610 722 610 708 l 610 950 q 622 988 610 976 q 660 1000 633 1000 l 867 1000 q 905 988 893 1000 q 917 950 917 976 l 917 683 q 906 588 917 619 q 864 513 894 556 l 653 226 l 653 50 q 641 12 653 24 q 603 0 629 0 m 718 1046 l 233 1106 q 195 1119 207 1108 q 183 1156 183 1129 l 183 1289 q 195 1325 183 1313 q 231 1335 207 1338 l 715 1275 q 753 1262 742 1272 q 765 1225 765 1251 l 765 1092 q 753 1056 765 1068 q 718 1046 742 1043 z "},"Z":{"ha":917,"x_min":64,"x_max":853,"o":"m 803 0 l 114 0 q 76 12 88 0 q 64 50 64 24 l 64 236 q 72 283 64 263 q 99 322 81 303 l 436 732 l 139 732 q 101 744 113 732 q 89 782 89 756 l 89 950 q 101 988 89 976 q 139 1000 113 1000 l 778 1000 q 816 988 804 1000 q 828 950 828 976 l 828 743 q 819 695 828 715 q 793 656 811 675 l 471 265 l 803 265 q 841 253 829 265 q 853 215 853 242 l 853 50 q 841 12 853 24 q 803 0 829 0 z "},"Ź":{"ha":917,"x_min":64,"x_max":853,"o":"m 803 0 l 114 0 q 76 12 88 0 q 64 50 64 24 l 64 236 q 72 283 64 263 q 99 322 81 303 l 436 732 l 139 732 q 101 744 113 732 q 89 782 89 756 l 89 950 q 101 988 89 976 q 139 1000 113 1000 l 778 1000 q 816 988 804 1000 q 828 950 828 976 l 828 743 q 819 695 828 715 q 793 656 811 675 l 471 265 l 803 265 q 841 253 829 265 q 853 215 853 242 l 853 50 q 841 12 853 24 q 803 0 829 0 m 713 1106 l 228 1046 q 192 1056 204 1043 q 181 1092 181 1068 l 181 1225 q 192 1262 181 1251 q 231 1275 204 1272 l 715 1335 q 751 1325 739 1338 q 763 1289 763 1313 l 763 1156 q 751 1119 763 1129 q 713 1106 739 1108 z "},"Ż":{"ha":917,"x_min":64,"x_max":853,"o":"m 803 0 l 114 0 q 76 12 88 0 q 64 50 64 24 l 64 236 q 72 283 64 263 q 99 322 81 303 l 436 732 l 139 732 q 101 744 113 732 q 89 782 89 756 l 89 950 q 101 988 89 976 q 139 1000 113 1000 l 778 1000 q 816 988 804 1000 q 828 950 828 976 l 828 743 q 819 695 828 715 q 793 656 811 675 l 471 265 l 803 265 q 841 253 829 265 q 853 215 853 242 l 853 50 q 841 12 853 24 q 803 0 829 0 m 569 1056 l 350 1056 q 312 1067 324 1056 q 300 1106 300 1079 l 300 1282 q 312 1320 300 1308 q 350 1332 324 1332 l 569 1332 q 608 1320 596 1332 q 619 1282 619 1308 l 619 1106 q 608 1067 619 1079 q 569 1056 596 1056 z "},"Ž":{"ha":917,"x_min":64,"x_max":853,"o":"m 803 0 l 114 0 q 76 12 88 0 q 64 50 64 24 l 64 236 q 72 283 64 263 q 99 322 81 303 l 436 732 l 139 732 q 101 744 113 732 q 89 782 89 756 l 89 950 q 101 988 89 976 q 139 1000 113 1000 l 778 1000 q 816 988 804 1000 q 828 950 828 976 l 828 743 q 819 695 828 715 q 793 656 811 675 l 471 265 l 803 265 q 841 253 829 265 q 853 215 853 242 l 853 50 q 841 12 853 24 q 803 0 829 0 m 501 1294 l 692 1350 q 738 1353 726 1361 q 749 1307 749 1344 l 749 1194 q 737 1146 749 1157 q 692 1121 725 1135 l 514 1057 q 487 1049 501 1051 q 460 1044 472 1046 q 436 1046 447 1044 q 415 1051 425 1047 l 225 1121 q 178 1146 190 1135 q 167 1194 167 1157 l 167 1307 q 178 1353 167 1344 q 225 1350 189 1361 l 415 1294 q 458 1289 439 1289 q 501 1294 478 1289 z "},"Æ":{"ha":1396,"x_min":75,"x_max":1328,"o":"m 464 714 l 392 497 l 611 497 l 611 738 l 490 738 q 474 733 479 738 q 464 714 469 728 m 378 50 q 366 12 378 24 q 328 0 354 0 l 125 0 q 87 12 99 0 q 75 50 75 24 l 75 403 q 85 512 75 464 q 115 611 96 560 l 236 943 q 267 988 247 975 q 322 1000 288 1000 l 1278 1000 q 1316 988 1304 1000 q 1328 950 1328 976 l 1328 788 q 1316 749 1328 761 q 1278 738 1304 738 l 926 738 l 926 631 l 1165 631 q 1203 619 1192 631 q 1215 581 1215 607 l 1215 432 q 1203 394 1215 406 q 1165 382 1192 382 l 926 382 l 926 263 l 1278 263 q 1316 251 1304 263 q 1328 213 1328 239 l 1328 50 q 1316 12 1328 24 q 1278 0 1304 0 l 661 0 q 623 12 635 0 q 611 50 611 24 l 611 244 l 378 244 l 378 50 z "},"Ð":{"ha":1050,"x_min":28,"x_max":969,"o":"m 628 0 l 160 0 q 122 12 133 0 q 110 50 110 24 l 110 368 l 78 368 q 40 380 51 368 q 28 418 28 392 l 28 567 q 40 605 28 593 q 78 617 51 617 l 110 617 l 110 950 q 122 988 110 976 q 160 1000 133 1000 l 628 1000 q 897 921 824 1000 q 969 717 969 842 l 969 283 q 897 79 969 158 q 628 0 824 0 m 421 263 l 590 263 q 644 283 632 263 q 656 331 656 303 l 656 668 q 644 715 656 694 q 590 735 632 735 l 421 735 l 421 617 l 478 617 q 516 605 504 617 q 528 567 528 593 l 528 418 q 516 380 528 392 q 478 368 504 368 l 421 368 l 421 263 z "},"Ø":{"ha":1024,"x_min":81,"x_max":943,"o":"m 368 686 l 368 385 l 529 764 q 526 764 529 764 q 513 764 524 764 q 394 742 419 764 q 368 686 368 719 m 513 233 q 632 256 607 233 q 657 313 657 278 l 657 619 l 493 233 q 497 233 494 233 q 513 233 500 233 m 410 -47 q 385 -83 397 -69 q 346 -97 372 -97 l 186 -97 q 149 -83 160 -97 q 150 -47 138 -69 l 188 43 q 104 137 128 81 q 81 263 81 193 l 81 736 q 99 852 81 800 q 166 942 118 904 q 299 1000 214 979 q 513 1021 383 1021 q 558 1020 536 1021 q 601 1018 581 1019 l 614 1047 q 639 1083 626 1069 q 678 1097 651 1097 l 838 1097 q 875 1083 864 1097 q 874 1047 886 1069 l 836 957 q 920 863 897 919 q 943 736 943 807 l 943 263 q 924 147 943 199 q 858 58 906 94 q 726 0 810 21 q 513 -21 642 -21 q 466 -20 489 -21 q 422 -18 443 -19 l 410 -47 z "},"Þ":{"ha":961,"x_min":96,"x_max":899,"o":"m 361 0 l 146 0 q 108 12 119 0 q 96 50 96 24 l 96 950 q 108 988 96 976 q 146 1000 119 1000 l 361 1000 q 399 988 388 1000 q 411 950 411 976 l 411 861 l 571 861 q 829 786 760 861 q 899 590 899 711 l 899 413 q 829 217 899 292 q 571 142 760 142 l 411 142 l 411 50 q 399 12 411 24 q 361 0 388 0 m 408 601 l 408 392 l 533 392 q 586 413 574 392 q 599 460 599 433 l 599 533 q 586 581 599 560 q 533 601 574 601 l 408 601 z "},"Đ":{"ha":1050,"x_min":28,"x_max":969,"o":"m 628 0 l 160 0 q 122 12 133 0 q 110 50 110 24 l 110 368 l 78 368 q 40 380 51 368 q 28 418 28 392 l 28 567 q 40 605 28 593 q 78 617 51 617 l 110 617 l 110 950 q 122 988 110 976 q 160 1000 133 1000 l 628 1000 q 897 921 824 1000 q 969 717 969 842 l 969 283 q 897 79 969 158 q 628 0 824 0 m 421 263 l 590 263 q 644 283 632 263 q 656 331 656 303 l 656 668 q 644 715 656 694 q 590 735 632 735 l 421 735 l 421 617 l 478 617 q 516 605 504 617 q 528 567 528 593 l 528 418 q 516 380 528 392 q 478 368 504 368 l 421 368 l 421 263 z "},"Ħ":{"ha":1082,"x_min":42,"x_max":1040,"o":"m 421 482 l 661 482 l 661 590 l 421 590 l 421 482 m 421 50 q 409 12 421 24 q 371 0 397 0 l 160 0 q 122 12 133 0 q 110 50 110 24 l 110 590 l 92 590 q 53 602 65 590 q 42 640 42 614 l 42 775 q 53 813 42 801 q 92 825 65 825 l 110 825 l 110 950 q 122 988 110 976 q 160 1000 133 1000 l 371 1000 q 409 988 397 1000 q 421 950 421 976 l 421 825 l 661 825 l 661 950 q 673 988 661 976 q 711 1000 685 1000 l 922 1000 q 960 988 949 1000 q 972 950 972 976 l 972 825 l 990 825 q 1028 813 1017 825 q 1040 775 1040 801 l 1040 640 q 1028 602 1040 614 q 990 590 1017 590 l 972 590 l 972 50 q 960 12 972 24 q 922 0 949 0 l 711 0 q 673 12 685 0 q 661 50 661 24 l 661 206 l 421 206 l 421 50 z "},"Ĳ":{"ha":1033,"x_min":96,"x_max":944,"o":"m 361 431 l 146 431 q 108 442 119 431 q 96 481 96 454 l 96 950 q 108 988 96 976 q 146 1000 119 1000 l 361 1000 q 399 988 388 1000 q 411 950 411 976 l 411 481 q 399 442 411 454 q 361 431 388 431 m 96 50 l 96 218 q 108 256 96 244 q 146 268 119 268 l 528 268 q 603 290 578 268 q 629 361 629 311 l 629 950 q 641 988 629 976 q 679 1000 653 1000 l 894 1000 q 933 988 921 1000 q 944 950 944 976 l 944 292 q 865 77 944 154 q 649 0 786 0 l 146 0 q 108 12 119 0 q 96 50 96 24 z "},"Ŀ":{"ha":965,"x_min":96,"x_max":903,"o":"m 853 0 l 146 0 q 108 12 119 0 q 96 50 96 24 l 96 950 q 108 988 96 976 q 146 1000 119 1000 l 361 1000 q 399 988 388 1000 q 411 950 411 976 l 411 263 l 601 263 l 601 376 q 613 415 601 403 q 651 426 625 426 l 853 426 q 891 415 879 426 q 903 376 903 403 l 903 50 q 891 12 903 24 q 853 0 879 0 m 839 517 l 638 517 q 599 528 611 517 q 588 567 588 540 l 588 743 q 599 781 588 769 q 638 793 611 793 l 839 793 q 877 781 865 793 q 889 743 889 769 l 889 567 q 877 528 889 540 q 839 517 865 517 z "},"Ł":{"ha":979,"x_min":28,"x_max":917,"o":"m 867 0 l 160 0 q 122 12 133 0 q 110 50 110 24 l 110 401 l 78 396 q 40 406 51 392 q 28 446 28 419 l 28 594 q 40 631 28 621 q 78 644 51 640 l 110 650 l 110 950 q 122 988 110 976 q 160 1000 133 1000 l 375 1000 q 413 988 401 1000 q 425 950 425 976 l 425 701 l 506 714 q 544 704 532 718 q 556 664 556 690 l 556 515 q 544 479 556 489 q 506 465 532 469 l 425 453 l 425 263 l 615 263 l 615 488 q 627 526 615 514 q 665 538 639 538 l 867 538 q 905 526 893 538 q 917 488 917 514 l 917 50 q 905 12 917 24 q 867 0 893 0 z "},"Ŋ":{"ha":1036,"x_min":89,"x_max":947,"o":"m 89 738 q 108 853 89 801 q 174 942 126 906 q 306 1000 222 979 q 518 1021 389 1021 q 731 1000 647 1021 q 862 942 814 979 q 928 853 910 906 q 947 738 947 801 l 947 158 q 874 -46 947 33 q 606 -125 801 -125 l 543 -125 q 505 -113 517 -125 q 493 -75 493 -101 l 493 90 q 505 128 493 117 q 543 140 517 140 l 572 140 q 619 159 608 140 q 629 207 629 178 l 629 683 q 608 730 629 711 q 515 749 588 749 q 421 730 442 749 q 400 683 400 711 l 400 50 q 388 12 400 24 q 350 0 376 0 l 139 0 q 101 12 113 0 q 89 50 89 24 l 89 738 z "},"Œ":{"ha":1410,"x_min":81,"x_max":1342,"o":"m 611 263 l 611 735 l 460 735 q 406 715 418 735 q 394 668 394 694 l 394 331 q 406 283 394 303 q 460 263 418 263 l 611 263 m 422 0 q 153 79 226 0 q 81 283 81 158 l 81 717 q 153 921 81 842 q 422 1000 226 1000 l 1292 1000 q 1330 988 1318 1000 q 1342 950 1342 976 l 1342 788 q 1330 749 1342 761 q 1292 738 1318 738 l 926 738 l 926 631 l 1179 631 q 1217 619 1206 631 q 1229 581 1229 607 l 1229 432 q 1217 394 1229 406 q 1179 382 1206 382 l 926 382 l 926 263 l 1292 263 q 1330 251 1318 263 q 1342 213 1342 239 l 1342 50 q 1330 12 1342 24 q 1292 0 1318 0 l 422 0 z "},"Ŧ":{"ha":911,"x_min":39,"x_max":872,"o":"m 618 50 q 606 12 618 24 q 568 0 594 0 l 343 0 q 305 12 317 0 q 293 50 293 24 l 293 308 l 186 308 q 148 320 160 308 q 136 358 136 332 l 136 507 q 148 545 136 533 q 186 557 160 557 l 293 557 l 293 732 l 89 732 q 51 744 63 732 q 39 782 39 756 l 39 950 q 51 988 39 976 q 89 1000 63 1000 l 822 1000 q 860 988 849 1000 q 872 950 872 976 l 872 782 q 860 744 872 756 q 822 732 849 732 l 618 732 l 618 557 l 724 557 q 762 545 750 557 q 774 507 774 533 l 774 358 q 762 320 774 332 q 724 308 750 308 l 618 308 l 618 50 z "},"ẞ":{"ha":1054,"x_min":96,"x_max":1007,"o":"m 411 50 q 399 12 411 24 q 361 0 388 0 l 146 0 q 108 12 119 0 q 96 50 96 24 l 96 950 q 108 988 96 975 q 146 1000 121 1000 l 661 1000 q 838 925 783 1000 q 861 735 893 850 l 829 619 q 955 551 903 606 q 1007 401 1007 497 l 1007 231 q 934 63 1007 125 q 736 0 861 0 l 544 0 q 506 12 518 0 q 494 50 494 24 l 494 213 q 506 251 494 239 q 544 263 518 263 l 653 263 q 680 270 669 263 q 690 294 690 278 l 690 363 q 680 387 690 379 q 653 394 669 394 l 553 394 q 506 414 519 394 q 501 472 493 433 l 547 699 q 544 726 550 714 q 521 738 539 738 l 411 738 l 411 50 z "},"":{"ha":1022,"x_min":89,"x_max":933,"o":"m 393 690 l 393 511 l 622 511 l 622 690 q 601 737 622 718 q 508 756 581 756 q 414 737 435 756 q 393 690 393 718 m 393 50 q 381 12 393 24 q 343 0 369 0 l 139 0 q 101 12 113 0 q 89 50 89 24 l 89 738 q 106 853 89 800 q 170 942 124 906 q 299 1000 217 979 q 510 1021 381 1021 q 722 1000 639 1021 q 851 942 804 979 q 916 853 899 906 q 933 738 933 800 l 933 50 q 922 12 933 24 q 883 0 910 0 l 672 0 q 634 12 646 0 q 622 50 622 24 l 622 257 l 393 257 l 393 50 z "},"":{"ha":1022,"x_min":89,"x_max":933,"o":"m 393 690 l 393 511 l 622 511 l 622 690 q 601 737 622 718 q 508 756 581 756 q 414 737 435 756 q 393 690 393 718 m 393 50 q 381 12 393 24 q 343 0 369 0 l 139 0 q 101 12 113 0 q 89 50 89 24 l 89 738 q 106 853 89 800 q 170 942 124 906 q 299 1000 217 979 q 510 1021 381 1021 q 722 1000 639 1021 q 851 942 804 979 q 916 853 899 906 q 933 738 933 800 l 933 50 q 922 12 933 24 q 883 0 910 0 l 672 0 q 634 12 646 0 q 622 50 622 24 l 622 257 l 393 257 l 393 50 m 754 1046 l 269 1106 q 231 1119 243 1108 q 219 1156 219 1129 l 219 1289 q 231 1325 219 1313 q 267 1335 243 1338 l 751 1275 q 790 1262 778 1272 q 801 1225 801 1251 l 801 1092 q 790 1056 801 1068 q 754 1046 778 1043 z "},"":{"ha":1022,"x_min":89,"x_max":933,"o":"m 393 690 l 393 511 l 622 511 l 622 690 q 601 737 622 718 q 508 756 581 756 q 414 737 435 756 q 393 690 393 718 m 393 50 q 381 12 393 24 q 343 0 369 0 l 139 0 q 101 12 113 0 q 89 50 89 24 l 89 738 q 106 853 89 800 q 170 942 124 906 q 299 1000 217 979 q 510 1021 381 1021 q 722 1000 639 1021 q 851 942 804 979 q 916 853 899 906 q 933 738 933 800 l 933 50 q 922 12 933 24 q 883 0 910 0 l 672 0 q 634 12 646 0 q 622 50 622 24 l 622 257 l 393 257 l 393 50 m 765 1106 l 281 1046 q 245 1056 257 1043 q 233 1092 233 1068 l 233 1225 q 245 1262 233 1251 q 283 1275 257 1272 l 768 1335 q 803 1325 792 1338 q 815 1289 815 1313 l 815 1156 q 803 1119 815 1129 q 765 1106 792 1108 z "},"":{"ha":1022,"x_min":89,"x_max":933,"o":"m 393 690 l 393 511 l 622 511 l 622 690 q 601 737 622 718 q 508 756 581 756 q 414 737 435 756 q 393 690 393 718 m 393 50 q 381 12 393 24 q 343 0 369 0 l 139 0 q 101 12 113 0 q 89 50 89 24 l 89 738 q 106 853 89 800 q 170 942 124 906 q 299 1000 217 979 q 510 1021 381 1021 q 722 1000 639 1021 q 851 942 804 979 q 916 853 899 906 q 933 738 933 800 l 933 50 q 922 12 933 24 q 883 0 910 0 l 672 0 q 634 12 646 0 q 622 50 622 24 l 622 257 l 393 257 l 393 50 m 467 1107 l 276 1051 q 231 1049 242 1040 q 219 1094 219 1057 l 219 1207 q 231 1256 219 1244 q 276 1281 243 1267 l 454 1344 q 481 1353 467 1350 q 508 1357 496 1356 q 532 1356 521 1357 q 553 1350 543 1354 l 743 1281 q 790 1256 778 1267 q 801 1207 801 1244 l 801 1094 q 790 1049 801 1057 q 743 1051 779 1040 l 553 1107 q 510 1113 529 1113 q 467 1107 490 1113 z "},"":{"ha":1022,"x_min":89,"x_max":933,"o":"m 393 690 l 393 511 l 622 511 l 622 690 q 601 737 622 718 q 508 756 581 756 q 414 737 435 756 q 393 690 393 718 m 393 50 q 381 12 393 24 q 343 0 369 0 l 139 0 q 101 12 113 0 q 89 50 89 24 l 89 738 q 106 853 89 800 q 170 942 124 906 q 299 1000 217 979 q 510 1021 381 1021 q 722 1000 639 1021 q 851 942 804 979 q 916 853 899 906 q 933 738 933 800 l 933 50 q 922 12 933 24 q 883 0 910 0 l 672 0 q 634 12 646 0 q 622 50 622 24 l 622 257 l 393 257 l 393 50 m 510 1061 l 471 1067 q 406 1074 432 1072 q 358 1074 379 1076 q 317 1067 338 1072 q 269 1054 297 1063 q 232 1056 244 1047 q 219 1090 219 1064 l 219 1231 q 233 1267 219 1257 q 269 1288 246 1278 q 325 1302 303 1297 q 369 1307 347 1307 q 417 1303 390 1307 q 486 1294 444 1300 l 510 1292 l 540 1288 q 613 1278 586 1281 q 660 1276 640 1275 q 700 1283 681 1278 q 750 1299 719 1289 q 788 1297 775 1306 q 800 1263 800 1289 l 800 1122 q 787 1085 800 1096 q 750 1065 774 1075 q 694 1051 717 1056 q 650 1046 672 1046 q 601 1049 628 1046 q 532 1058 574 1053 l 510 1061 z "},"":{"ha":1022,"x_min":89,"x_max":933,"o":"m 393 690 l 393 511 l 622 511 l 622 690 q 601 737 622 718 q 508 756 581 756 q 414 737 435 756 q 393 690 393 718 m 393 50 q 381 12 393 24 q 343 0 369 0 l 139 0 q 101 12 113 0 q 89 50 89 24 l 89 738 q 106 853 89 800 q 170 942 124 906 q 299 1000 217 979 q 510 1021 381 1021 q 722 1000 639 1021 q 851 942 804 979 q 916 853 899 906 q 933 738 933 800 l 933 50 q 922 12 933 24 q 883 0 910 0 l 672 0 q 634 12 646 0 q 622 50 622 24 l 622 257 l 393 257 l 393 50 m 783 1056 l 592 1056 q 557 1067 568 1056 q 546 1101 546 1078 l 546 1269 q 557 1304 546 1293 q 592 1315 568 1315 l 783 1315 q 818 1304 807 1315 q 829 1269 829 1293 l 829 1101 q 818 1067 829 1078 q 783 1056 807 1056 m 425 1056 l 233 1056 q 198 1067 210 1056 q 186 1101 186 1078 l 186 1269 q 198 1304 186 1293 q 233 1315 210 1315 l 425 1315 q 460 1304 449 1315 q 471 1269 471 1293 l 471 1101 q 460 1067 471 1078 q 425 1056 449 1056 z "},"":{"ha":1022,"x_min":89,"x_max":933,"o":"m 590 1061 l 590 1110 q 575 1151 590 1136 q 508 1165 560 1165 q 443 1151 457 1165 q 429 1110 429 1136 l 429 1061 q 443 1016 429 1031 q 508 1001 457 1001 q 575 1016 560 1001 q 590 1061 590 1031 m 393 690 l 393 511 l 622 511 l 622 690 q 601 737 622 718 q 508 756 581 756 q 414 737 435 756 q 393 690 393 718 m 393 50 q 381 12 393 24 q 343 0 369 0 l 139 0 q 101 12 113 0 q 89 50 89 24 l 89 738 q 117 878 89 817 q 225 975 146 939 q 210 1020 215 996 q 206 1071 206 1044 l 206 1151 q 219 1233 206 1196 q 266 1295 232 1269 q 358 1335 300 1321 q 507 1350 417 1350 q 656 1335 597 1350 q 748 1295 714 1321 q 795 1233 782 1269 q 808 1151 808 1196 l 808 1071 q 804 1022 808 1044 q 790 978 800 999 q 903 880 874 943 q 933 738 933 817 l 933 50 q 922 12 933 24 q 883 0 910 0 l 672 0 q 634 12 646 0 q 622 50 622 24 l 622 257 l 393 257 l 393 50 z "},"":{"ha":1022,"x_min":89,"x_max":933,"o":"m 393 690 l 393 511 l 622 511 l 622 690 q 601 737 622 718 q 508 756 581 756 q 414 737 435 756 q 393 690 393 718 m 393 50 q 381 12 393 24 q 343 0 369 0 l 139 0 q 101 12 113 0 q 89 50 89 24 l 89 738 q 106 853 89 800 q 170 942 124 906 q 299 1000 217 979 q 510 1021 381 1021 q 722 1000 639 1021 q 851 942 804 979 q 916 853 899 906 q 933 738 933 800 l 933 50 q 922 12 933 24 q 883 0 910 0 l 672 0 q 634 12 646 0 q 622 50 622 24 l 622 257 l 393 257 l 393 50 m 751 1056 l 269 1056 q 231 1067 243 1056 q 219 1106 219 1079 l 219 1235 q 231 1273 219 1261 q 269 1285 243 1285 l 751 1285 q 790 1273 778 1285 q 801 1235 801 1261 l 801 1106 q 790 1067 801 1079 q 751 1056 778 1056 z "},"":{"ha":1022,"x_min":89,"x_max":933,"o":"m 393 690 l 393 511 l 622 511 l 622 690 q 601 737 622 718 q 508 756 581 756 q 414 737 435 756 q 393 690 393 718 m 393 50 q 381 12 393 24 q 343 0 369 0 l 139 0 q 101 12 113 0 q 89 50 89 24 l 89 738 q 106 853 89 800 q 170 942 124 906 q 299 1000 217 979 q 510 1021 381 1021 q 722 1000 639 1021 q 851 942 804 979 q 916 853 899 906 q 933 738 933 800 l 933 50 q 922 12 933 24 q 883 0 910 0 l 672 0 q 634 12 646 0 q 622 50 622 24 l 622 257 l 393 257 l 393 50 m 813 1246 q 799 1165 813 1201 q 752 1102 786 1128 q 660 1062 718 1076 q 511 1047 601 1047 q 363 1062 421 1047 q 270 1102 304 1076 q 223 1165 236 1128 q 210 1246 210 1201 l 210 1307 q 222 1345 210 1333 q 260 1357 233 1357 l 393 1357 q 424 1348 415 1357 q 433 1314 433 1339 l 433 1285 q 447 1252 433 1265 q 513 1239 461 1239 q 579 1252 564 1239 q 594 1285 594 1265 l 594 1314 q 603 1348 594 1339 q 636 1357 613 1357 l 763 1357 q 801 1345 789 1357 q 813 1307 813 1333 l 813 1246 z "},"":{"ha":1022,"x_min":89,"x_max":933,"o":"m 933 -211 q 924 -248 933 -237 q 888 -258 914 -258 l 733 -258 q 612 -212 644 -258 q 593 -71 579 -167 l 622 93 l 622 257 l 393 257 l 393 50 q 381 12 393 24 q 343 0 369 0 l 139 0 q 101 12 113 0 q 89 50 89 24 l 89 738 q 106 853 89 800 q 170 942 124 906 q 299 1000 217 979 q 510 1021 381 1021 q 722 1000 639 1021 q 851 942 804 979 q 916 853 899 906 q 933 738 933 800 l 933 50 q 922 12 933 24 q 883 0 910 0 l 836 0 l 826 -64 l 883 -64 q 923 -74 913 -64 q 933 -111 933 -85 l 933 -211 m 393 690 l 393 511 l 622 511 l 622 690 q 601 737 622 718 q 508 756 581 756 q 414 737 435 756 q 393 690 393 718 z "},"":{"ha":893,"x_min":81,"x_max":825,"o":"m 825 50 q 813 12 825 24 q 775 0 801 0 l 422 0 q 153 79 226 0 q 81 283 81 158 l 81 715 q 153 921 81 842 q 422 1000 226 1000 l 775 1000 q 813 988 801 1000 q 825 950 825 976 l 825 788 q 813 749 825 761 q 775 738 801 738 l 468 738 q 399 716 414 738 q 383 668 383 694 l 383 631 l 664 631 q 702 619 690 631 q 714 581 714 607 l 714 432 q 702 394 714 406 q 664 382 690 382 l 383 382 l 383 329 q 399 281 383 300 q 468 263 414 263 l 775 263 q 813 251 801 263 q 825 213 825 239 l 825 50 z "},"":{"ha":893,"x_min":81,"x_max":825,"o":"m 825 50 q 813 12 825 24 q 775 0 801 0 l 422 0 q 153 79 226 0 q 81 283 81 158 l 81 715 q 153 921 81 842 q 422 1000 226 1000 l 775 1000 q 813 988 801 1000 q 825 950 825 976 l 825 788 q 813 749 825 761 q 775 738 801 738 l 468 738 q 399 716 414 738 q 383 668 383 694 l 383 631 l 664 631 q 702 619 690 631 q 714 581 714 607 l 714 432 q 702 394 714 406 q 664 382 690 382 l 383 382 l 383 329 q 399 281 383 300 q 468 263 414 263 l 775 263 q 813 251 801 263 q 825 213 825 239 l 825 50 m 711 1046 l 226 1106 q 188 1119 200 1108 q 176 1156 176 1129 l 176 1289 q 188 1325 176 1313 q 224 1335 200 1338 l 708 1275 q 747 1262 735 1272 q 758 1225 758 1251 l 758 1092 q 747 1056 758 1068 q 711 1046 735 1043 z "},"":{"ha":893,"x_min":81,"x_max":825,"o":"m 825 50 q 813 12 825 24 q 775 0 801 0 l 422 0 q 153 79 226 0 q 81 283 81 158 l 81 715 q 153 921 81 842 q 422 1000 226 1000 l 775 1000 q 813 988 801 1000 q 825 950 825 976 l 825 788 q 813 749 825 761 q 775 738 801 738 l 468 738 q 399 716 414 738 q 383 668 383 694 l 383 631 l 664 631 q 702 619 690 631 q 714 581 714 607 l 714 432 q 702 394 714 406 q 664 382 690 382 l 383 382 l 383 329 q 399 281 383 300 q 468 263 414 263 l 775 263 q 813 251 801 263 q 825 213 825 239 l 825 50 m 736 1106 l 251 1046 q 216 1056 228 1043 q 204 1092 204 1068 l 204 1225 q 216 1262 204 1251 q 254 1275 228 1272 l 739 1335 q 774 1325 763 1338 q 786 1289 786 1313 l 786 1156 q 774 1119 786 1129 q 736 1106 763 1108 z "},"":{"ha":893,"x_min":81,"x_max":825,"o":"m 825 50 q 813 12 825 24 q 775 0 801 0 l 422 0 q 153 79 226 0 q 81 283 81 158 l 81 715 q 153 921 81 842 q 422 1000 226 1000 l 775 1000 q 813 988 801 1000 q 825 950 825 976 l 825 788 q 813 749 825 761 q 775 738 801 738 l 468 738 q 399 716 414 738 q 383 668 383 694 l 383 631 l 664 631 q 702 619 690 631 q 714 581 714 607 l 714 432 q 702 394 714 406 q 664 382 690 382 l 383 382 l 383 329 q 399 281 383 300 q 468 263 414 263 l 775 263 q 813 251 801 263 q 825 213 825 239 l 825 50 m 438 1107 l 247 1051 q 201 1049 213 1040 q 190 1094 190 1057 l 190 1207 q 202 1256 190 1244 q 247 1281 214 1267 l 425 1344 q 452 1353 438 1350 q 479 1357 467 1356 q 503 1356 492 1357 q 524 1350 514 1354 l 714 1281 q 760 1256 749 1267 q 772 1207 772 1244 l 772 1094 q 761 1049 772 1057 q 714 1051 750 1040 l 524 1107 q 481 1113 500 1113 q 438 1107 461 1113 z "},"":{"ha":893,"x_min":81,"x_max":825,"o":"m 825 50 q 813 12 825 24 q 775 0 801 0 l 422 0 q 153 79 226 0 q 81 283 81 158 l 81 715 q 153 921 81 842 q 422 1000 226 1000 l 775 1000 q 813 988 801 1000 q 825 950 825 976 l 825 788 q 813 749 825 761 q 775 738 801 738 l 468 738 q 399 716 414 738 q 383 668 383 694 l 383 631 l 664 631 q 702 619 690 631 q 714 581 714 607 l 714 432 q 702 394 714 406 q 664 382 690 382 l 383 382 l 383 329 q 399 281 383 300 q 468 263 414 263 l 775 263 q 813 251 801 263 q 825 213 825 239 l 825 50 m 768 1056 l 576 1056 q 542 1067 553 1056 q 531 1101 531 1078 l 531 1269 q 542 1304 531 1293 q 576 1315 553 1315 l 768 1315 q 803 1304 792 1315 q 814 1269 814 1293 l 814 1101 q 803 1067 814 1078 q 768 1056 792 1056 m 410 1056 l 218 1056 q 183 1067 194 1056 q 171 1101 171 1078 l 171 1269 q 183 1304 171 1293 q 218 1315 194 1315 l 410 1315 q 444 1304 433 1315 q 456 1269 456 1293 l 456 1101 q 444 1067 456 1078 q 410 1056 433 1056 z "},"":{"ha":893,"x_min":81,"x_max":825,"o":"m 825 50 q 813 12 825 24 q 775 0 801 0 l 422 0 q 153 79 226 0 q 81 283 81 158 l 81 715 q 153 921 81 842 q 422 1000 226 1000 l 775 1000 q 813 988 801 1000 q 825 950 825 976 l 825 788 q 813 749 825 761 q 775 738 801 738 l 468 738 q 399 716 414 738 q 383 668 383 694 l 383 631 l 664 631 q 702 619 690 631 q 714 581 714 607 l 714 432 q 702 394 714 406 q 664 382 690 382 l 383 382 l 383 329 q 399 281 383 300 q 468 263 414 263 l 775 263 q 813 251 801 263 q 825 213 825 239 l 825 50 m 736 1056 l 254 1056 q 216 1067 228 1056 q 204 1106 204 1079 l 204 1235 q 216 1273 204 1261 q 254 1285 228 1285 l 736 1285 q 774 1273 763 1285 q 786 1235 786 1261 l 786 1106 q 774 1067 786 1079 q 736 1056 763 1056 z "},"":{"ha":893,"x_min":81,"x_max":825,"o":"m 825 50 q 813 12 825 24 q 775 0 801 0 l 422 0 q 153 79 226 0 q 81 283 81 158 l 81 715 q 153 921 81 842 q 422 1000 226 1000 l 775 1000 q 813 988 801 1000 q 825 950 825 976 l 825 788 q 813 749 825 761 q 775 738 801 738 l 468 738 q 399 716 414 738 q 383 668 383 694 l 383 631 l 664 631 q 702 619 690 631 q 714 581 714 607 l 714 432 q 702 394 714 406 q 664 382 690 382 l 383 382 l 383 329 q 399 281 383 300 q 468 263 414 263 l 775 263 q 813 251 801 263 q 825 213 825 239 l 825 50 m 797 1246 q 784 1165 797 1201 q 737 1102 771 1128 q 644 1062 703 1076 q 496 1047 586 1047 q 347 1062 406 1047 q 255 1102 289 1076 q 208 1165 221 1128 q 194 1246 194 1201 l 194 1307 q 206 1345 194 1333 q 244 1357 218 1357 l 378 1357 q 409 1348 400 1357 q 418 1314 418 1339 l 418 1285 q 432 1252 418 1265 q 497 1239 446 1239 q 564 1252 549 1239 q 579 1285 579 1265 l 579 1314 q 588 1348 579 1339 q 621 1357 597 1357 l 747 1357 q 785 1345 774 1357 q 797 1307 797 1333 l 797 1246 z "},"":{"ha":893,"x_min":81,"x_max":825,"o":"m 825 50 q 813 12 825 24 q 775 0 801 0 l 422 0 q 153 79 226 0 q 81 283 81 158 l 81 715 q 153 921 81 842 q 422 1000 226 1000 l 775 1000 q 813 988 801 1000 q 825 950 825 976 l 825 788 q 813 749 825 761 q 775 738 801 738 l 468 738 q 399 716 414 738 q 383 668 383 694 l 383 631 l 664 631 q 702 619 690 631 q 714 581 714 607 l 714 432 q 702 394 714 406 q 664 382 690 382 l 383 382 l 383 329 q 399 281 383 300 q 468 263 414 263 l 775 263 q 813 251 801 263 q 825 213 825 239 l 825 50 m 607 1056 l 388 1056 q 349 1067 361 1056 q 338 1106 338 1079 l 338 1282 q 349 1320 338 1308 q 388 1332 361 1332 l 607 1332 q 645 1320 633 1332 q 657 1282 657 1308 l 657 1106 q 645 1067 657 1079 q 607 1056 633 1056 z "},"":{"ha":893,"x_min":81,"x_max":825,"o":"m 825 -211 q 815 -248 825 -237 q 779 -258 806 -258 l 625 -258 q 503 -212 536 -258 q 485 -71 471 -167 l 497 0 l 422 0 q 153 79 226 0 q 81 283 81 158 l 81 715 q 153 921 81 842 q 422 1000 226 1000 l 775 1000 q 813 988 801 1000 q 825 950 825 976 l 825 788 q 813 749 825 761 q 775 738 801 738 l 468 738 q 399 716 414 738 q 383 668 383 694 l 383 631 l 664 631 q 702 619 690 631 q 714 581 714 607 l 714 432 q 702 394 714 406 q 664 382 690 382 l 383 382 l 383 329 q 399 281 383 300 q 468 263 414 263 l 775 263 q 813 251 801 263 q 825 213 825 239 l 825 50 q 813 12 825 24 q 775 0 801 0 l 728 0 l 718 -64 l 775 -64 q 815 -74 804 -64 q 825 -111 825 -85 l 825 -211 z "},"":{"ha":893,"x_min":81,"x_max":825,"o":"m 825 50 q 813 12 825 24 q 775 0 801 0 l 422 0 q 153 79 226 0 q 81 283 81 158 l 81 715 q 153 921 81 842 q 422 1000 226 1000 l 775 1000 q 813 988 801 1000 q 825 950 825 976 l 825 788 q 813 749 825 761 q 775 738 801 738 l 468 738 q 399 716 414 738 q 383 668 383 694 l 383 631 l 664 631 q 702 619 690 631 q 714 581 714 607 l 714 432 q 702 394 714 406 q 664 382 690 382 l 383 382 l 383 329 q 399 281 383 300 q 468 263 414 263 l 775 263 q 813 251 801 263 q 825 213 825 239 l 825 50 m 535 1294 l 725 1350 q 771 1353 760 1361 q 782 1307 782 1344 l 782 1194 q 770 1146 782 1157 q 725 1121 758 1135 l 547 1057 q 520 1049 535 1051 q 493 1044 506 1046 q 469 1046 481 1044 q 449 1051 458 1047 l 258 1121 q 212 1146 224 1135 q 200 1194 200 1157 l 200 1307 q 211 1353 200 1344 q 258 1350 222 1361 l 449 1294 q 492 1289 472 1289 q 535 1294 511 1289 z "},"":{"ha":515,"x_min":97,"x_max":418,"o":"m 368 0 l 147 0 q 109 12 121 0 q 97 50 97 24 l 97 950 q 109 988 97 976 q 147 1000 121 1000 l 368 1000 q 406 988 394 1000 q 418 950 418 976 l 418 50 q 406 12 418 24 q 368 0 394 0 z "},"":{"ha":515,"x_min":-14,"x_max":526,"o":"m 479 1049 l 36 1103 q -2 1116 10 1106 q -14 1153 -14 1126 l -14 1286 q -2 1322 -14 1310 q 33 1332 10 1335 l 476 1278 q 515 1265 503 1275 q 526 1228 526 1254 l 526 1094 q 515 1058 526 1071 q 479 1049 503 1046 m 368 0 l 147 0 q 109 12 121 0 q 97 50 97 24 l 97 950 q 109 988 97 976 q 147 1000 121 1000 l 368 1000 q 406 988 394 1000 q 418 950 418 976 l 418 50 q 406 12 418 24 q 368 0 394 0 z "},"":{"ha":515,"x_min":-11,"x_max":529,"o":"m 479 1106 l 36 1046 q 1 1056 13 1043 q -11 1092 -11 1068 l -11 1225 q 1 1262 -11 1251 q 39 1275 13 1272 l 482 1335 q 517 1325 506 1338 q 529 1289 529 1313 l 529 1156 q 517 1119 529 1129 q 479 1106 506 1108 m 368 0 l 147 0 q 109 12 121 0 q 97 50 97 24 l 97 950 q 109 988 97 976 q 147 1000 121 1000 l 368 1000 q 406 988 394 1000 q 418 950 418 976 l 418 50 q 406 12 418 24 q 368 0 394 0 z "},"":{"ha":515,"x_min":-33,"x_max":549,"o":"m 368 0 l 147 0 q 109 12 121 0 q 97 50 97 24 l 97 950 q 109 988 97 976 q 147 1000 121 1000 l 368 1000 q 406 988 394 1000 q 418 950 418 976 l 418 50 q 406 12 418 24 q 368 0 394 0 m 214 1107 l 24 1051 q -22 1049 -11 1040 q -33 1094 -33 1057 l -33 1207 q -22 1256 -33 1244 q 24 1281 -10 1267 l 201 1344 q 228 1353 214 1350 q 256 1357 243 1356 q 279 1356 268 1357 q 300 1350 290 1354 l 490 1281 q 537 1256 525 1267 q 549 1207 549 1244 l 549 1094 q 538 1049 549 1057 q 490 1051 526 1040 l 300 1107 q 257 1113 276 1113 q 214 1107 238 1113 z "},"":{"ha":515,"x_min":-68,"x_max":575,"o":"m 368 0 l 147 0 q 109 12 121 0 q 97 50 97 24 l 97 950 q 109 988 97 976 q 147 1000 121 1000 l 368 1000 q 406 988 394 1000 q 418 950 418 976 l 418 50 q 406 12 418 24 q 368 0 394 0 m 529 1056 l 338 1056 q 303 1067 314 1056 q 292 1101 292 1078 l 292 1269 q 303 1304 292 1293 q 338 1315 314 1315 l 529 1315 q 564 1304 553 1315 q 575 1269 575 1293 l 575 1101 q 564 1067 575 1078 q 529 1056 553 1056 m 171 1056 l -21 1056 q -56 1067 -44 1056 q -68 1101 -68 1078 l -68 1269 q -56 1304 -68 1293 q -21 1315 -44 1315 l 171 1315 q 206 1304 194 1315 q 217 1269 217 1293 l 217 1101 q 206 1067 217 1078 q 171 1056 194 1056 z "},"":{"ha":515,"x_min":-33,"x_max":547,"o":"m 368 0 l 147 0 q 109 12 121 0 q 97 50 97 24 l 97 950 q 109 988 97 976 q 147 1000 121 1000 l 368 1000 q 406 988 394 1000 q 418 950 418 976 l 418 50 q 406 12 418 24 q 368 0 394 0 m 257 1061 l 218 1067 q 153 1074 179 1072 q 106 1074 126 1076 q 65 1067 85 1072 q 17 1054 44 1063 q -21 1056 -8 1047 q -33 1090 -33 1064 l -33 1231 q -20 1267 -33 1257 q 17 1288 -7 1278 q 72 1302 50 1297 q 116 1307 94 1307 q 165 1303 138 1307 q 233 1294 192 1300 l 257 1292 l 288 1288 q 360 1278 333 1281 q 408 1276 388 1275 q 447 1283 428 1278 q 497 1299 467 1289 q 535 1297 522 1306 q 547 1263 547 1289 l 547 1122 q 534 1085 547 1096 q 497 1065 521 1075 q 442 1051 464 1056 q 397 1046 419 1046 q 348 1049 375 1046 q 279 1058 321 1053 l 257 1061 z "},"":{"ha":515,"x_min":-33,"x_max":549,"o":"m 368 0 l 147 0 q 109 12 121 0 q 97 50 97 24 l 97 950 q 109 988 97 976 q 147 1000 121 1000 l 368 1000 q 406 988 394 1000 q 418 950 418 976 l 418 50 q 406 12 418 24 q 368 0 394 0 m 499 1056 l 17 1056 q -22 1067 -10 1056 q -33 1106 -33 1079 l -33 1235 q -22 1273 -33 1261 q 17 1285 -10 1285 l 499 1285 q 537 1273 525 1285 q 549 1235 549 1261 l 549 1106 q 537 1067 549 1079 q 499 1056 525 1056 z "},"":{"ha":515,"x_min":-44,"x_max":558,"o":"m 368 0 l 147 0 q 109 12 121 0 q 97 50 97 24 l 97 950 q 109 988 97 976 q 147 1000 121 1000 l 368 1000 q 406 988 394 1000 q 418 950 418 976 l 418 50 q 406 12 418 24 q 368 0 394 0 m 558 1246 q 545 1165 558 1201 q 498 1102 532 1128 q 406 1062 464 1076 q 257 1047 347 1047 q 108 1062 167 1047 q 16 1102 50 1076 q -31 1165 -18 1128 q -44 1246 -44 1201 l -44 1307 q -33 1345 -44 1333 q 6 1357 -21 1357 l 139 1357 q 170 1348 161 1357 q 179 1314 179 1339 l 179 1285 q 193 1252 179 1265 q 258 1239 207 1239 q 325 1252 310 1239 q 340 1285 340 1265 l 340 1314 q 349 1348 340 1339 q 382 1357 358 1357 l 508 1357 q 547 1345 535 1357 q 558 1307 558 1333 l 558 1246 z "},"":{"ha":515,"x_min":58,"x_max":418,"o":"m 413 -211 q 403 -248 413 -237 q 367 -258 393 -258 l 213 -258 q 91 -212 124 -258 q 72 -71 58 -167 l 97 69 l 97 950 q 109 988 97 976 q 147 1000 121 1000 l 368 1000 q 406 988 394 1000 q 418 950 418 976 l 418 50 q 406 12 418 24 q 368 0 394 0 l 315 0 l 306 -64 l 363 -64 q 402 -74 392 -64 q 413 -111 413 -85 l 413 -211 z "},"":{"ha":515,"x_min":97,"x_max":418,"o":"m 368 0 l 147 0 q 109 12 121 0 q 97 50 97 24 l 97 950 q 109 988 97 976 q 147 1000 121 1000 l 368 1000 q 406 988 394 1000 q 418 950 418 976 l 418 50 q 406 12 418 24 q 368 0 394 0 m 367 1056 l 147 1056 q 109 1067 121 1056 q 97 1106 97 1079 l 97 1282 q 109 1320 97 1308 q 147 1332 121 1332 l 367 1332 q 405 1320 393 1332 q 417 1282 417 1308 l 417 1106 q 405 1067 417 1079 q 367 1056 393 1056 z "},"":{"ha":854,"x_min":96,"x_max":815,"o":"m 361 1000 q 399 988 388 1000 q 411 950 411 976 l 411 268 l 765 268 q 803 256 792 268 q 815 218 815 244 l 815 50 q 803 12 815 24 q 765 0 792 0 l 146 0 q 108 12 119 0 q 96 50 96 24 l 96 950 q 108 988 96 976 q 146 1000 119 1000 l 361 1000 z "},"":{"ha":854,"x_min":96,"x_max":815,"o":"m 361 1000 q 399 988 388 1000 q 411 950 411 976 l 411 268 l 765 268 q 803 256 792 268 q 815 218 815 244 l 815 50 q 803 12 815 24 q 765 0 792 0 l 146 0 q 108 12 119 0 q 96 50 96 24 l 96 950 q 108 988 96 976 q 146 1000 119 1000 l 361 1000 m 628 1106 l 143 1046 q 108 1056 119 1043 q 96 1092 96 1068 l 96 1225 q 108 1262 96 1251 q 146 1275 119 1272 l 631 1335 q 666 1325 654 1338 q 678 1289 678 1313 l 678 1156 q 666 1119 678 1129 q 628 1106 654 1108 z "},"":{"ha":854,"x_min":96,"x_max":815,"o":"m 361 1000 q 399 988 388 1000 q 411 950 411 976 l 411 268 l 765 268 q 803 256 792 268 q 815 218 815 244 l 815 50 q 803 12 815 24 q 765 0 792 0 l 146 0 q 108 12 119 0 q 96 50 96 24 l 96 950 q 108 988 96 976 q 146 1000 119 1000 l 361 1000 m 451 -503 l 360 -503 q 328 -492 338 -503 q 318 -460 318 -482 l 318 -412 q 328 -381 318 -390 q 360 -371 338 -371 l 442 -371 q 465 -362 457 -371 q 474 -337 474 -353 l 474 -319 l 354 -319 q 314 -308 325 -319 q 303 -265 303 -296 l 303 -114 q 314 -72 303 -83 q 354 -60 325 -60 l 574 -60 q 614 -72 603 -60 q 625 -114 625 -83 l 625 -325 q 578 -458 625 -414 q 451 -503 531 -503 z "},"":{"ha":854,"x_min":96,"x_max":857,"o":"m 361 1000 q 399 988 388 1000 q 411 950 411 976 l 411 268 l 765 268 q 803 256 792 268 q 815 218 815 244 l 815 50 q 803 12 815 24 q 765 0 792 0 l 146 0 q 108 12 119 0 q 96 50 96 24 l 96 950 q 108 988 96 976 q 146 1000 119 1000 l 361 1000 m 736 628 l 564 628 q 524 640 538 628 q 514 678 510 651 l 560 950 q 574 988 564 976 q 610 1000 583 1000 l 801 1000 q 842 988 828 1000 q 851 950 857 975 l 786 678 q 772 640 781 653 q 736 628 763 628 z "},"":{"ha":854,"x_min":96,"x_max":842,"o":"m 361 1000 q 399 988 388 1000 q 411 950 411 976 l 411 268 l 765 268 q 803 256 792 268 q 815 218 815 244 l 815 50 q 803 12 815 24 q 765 0 792 0 l 146 0 q 108 12 119 0 q 96 50 96 24 l 96 950 q 108 988 96 976 q 146 1000 119 1000 l 361 1000 m 792 458 l 572 458 q 534 470 546 458 q 522 508 522 482 l 522 685 q 534 723 522 711 q 572 735 546 735 l 792 735 q 830 723 818 735 q 842 685 842 711 l 842 508 q 830 470 842 482 q 792 458 818 458 z "},"":{"ha":868,"x_min":28,"x_max":829,"o":"m 779 0 l 160 0 q 122 12 133 0 q 110 50 110 24 l 110 401 l 78 396 q 40 406 51 392 q 28 446 28 419 l 28 594 q 40 631 28 621 q 78 644 51 640 l 110 650 l 110 950 q 122 988 110 976 q 160 1000 133 1000 l 375 1000 q 413 988 401 1000 q 425 950 425 976 l 425 701 l 506 714 q 544 704 532 718 q 556 664 556 690 l 556 515 q 544 479 556 489 q 506 465 532 469 l 425 453 l 425 268 l 779 268 q 817 256 806 268 q 829 218 829 244 l 829 50 q 817 12 829 24 q 779 0 806 0 z "},"":{"ha":1486,"x_min":89,"x_max":1397,"o":"m 400 50 q 388 12 400 24 q 350 0 376 0 l 139 0 q 101 12 113 0 q 89 50 89 24 l 89 738 q 105 853 89 801 q 162 942 121 906 q 274 1000 203 979 q 456 1021 346 1021 q 631 1002 561 1021 q 743 949 701 983 q 855 1002 785 983 q 1031 1021 925 1021 q 1212 1000 1140 1021 q 1324 942 1283 979 q 1381 853 1365 906 q 1397 738 1397 801 l 1397 50 q 1385 12 1397 24 q 1347 0 1374 0 l 1136 0 q 1098 12 1110 0 q 1086 50 1086 24 l 1086 683 q 1069 730 1086 711 q 992 749 1051 749 q 915 730 932 749 q 899 683 899 711 l 899 50 q 887 12 899 24 q 849 0 875 0 l 638 0 q 599 12 611 0 q 588 50 588 24 l 588 683 q 571 730 588 711 q 494 749 554 749 q 417 730 435 749 q 400 683 400 711 l 400 50 z "},"":{"ha":1036,"x_min":89,"x_max":947,"o":"m 89 738 q 108 853 89 801 q 174 942 126 906 q 306 1000 222 979 q 518 1021 389 1021 q 731 1000 647 1021 q 862 942 814 979 q 928 853 910 906 q 947 738 947 801 l 947 50 q 935 12 947 24 q 897 0 924 0 l 679 0 q 641 12 653 0 q 629 50 629 24 l 629 683 q 608 730 629 711 q 515 749 588 749 q 421 730 442 749 q 400 683 400 711 l 400 50 q 388 12 400 24 q 350 0 376 0 l 139 0 q 101 12 113 0 q 89 50 89 24 l 89 738 z "},"":{"ha":1036,"x_min":89,"x_max":947,"o":"m 89 738 q 108 853 89 801 q 174 942 126 906 q 306 1000 222 979 q 518 1021 389 1021 q 731 1000 647 1021 q 862 942 814 979 q 928 853 910 906 q 947 738 947 801 l 947 50 q 935 12 947 24 q 897 0 924 0 l 679 0 q 641 12 653 0 q 629 50 629 24 l 629 683 q 608 730 629 711 q 515 749 588 749 q 421 730 442 749 q 400 683 400 711 l 400 50 q 388 12 400 24 q 350 0 376 0 l 139 0 q 101 12 113 0 q 89 50 89 24 l 89 738 m 517 1061 l 478 1067 q 413 1074 439 1072 q 365 1074 386 1076 q 324 1067 344 1072 q 276 1054 304 1063 q 239 1056 251 1047 q 226 1090 226 1064 l 226 1231 q 240 1267 226 1257 q 276 1288 253 1278 q 332 1302 310 1297 q 376 1307 354 1307 q 424 1303 397 1307 q 493 1294 451 1300 l 517 1292 l 547 1288 q 620 1278 593 1281 q 667 1276 647 1275 q 707 1283 688 1278 q 757 1299 726 1289 q 794 1297 782 1306 q 807 1263 807 1289 l 807 1122 q 794 1085 807 1096 q 757 1065 781 1075 q 701 1051 724 1056 q 657 1046 679 1046 q 608 1049 635 1046 q 539 1058 581 1053 l 517 1061 z "},"":{"ha":1036,"x_min":89,"x_max":947,"o":"m 89 738 q 108 853 89 801 q 174 942 126 906 q 306 1000 222 979 q 518 1021 389 1021 q 731 1000 647 1021 q 862 942 814 979 q 928 853 910 906 q 947 738 947 801 l 947 50 q 935 12 947 24 q 897 0 924 0 l 679 0 q 641 12 653 0 q 629 50 629 24 l 629 683 q 608 730 629 711 q 515 749 588 749 q 421 730 442 749 q 400 683 400 711 l 400 50 q 388 12 400 24 q 350 0 376 0 l 139 0 q 101 12 113 0 q 89 50 89 24 l 89 738 m 772 1106 l 288 1046 q 252 1056 264 1043 q 240 1092 240 1068 l 240 1225 q 252 1262 240 1251 q 290 1275 264 1272 l 775 1335 q 810 1325 799 1338 q 822 1289 822 1313 l 822 1156 q 810 1119 822 1129 q 772 1106 799 1108 z "},"":{"ha":1036,"x_min":89,"x_max":947,"o":"m 89 738 q 108 853 89 801 q 174 942 126 906 q 306 1000 222 979 q 518 1021 389 1021 q 731 1000 647 1021 q 862 942 814 979 q 928 853 910 906 q 947 738 947 801 l 947 50 q 935 12 947 24 q 897 0 924 0 l 679 0 q 641 12 653 0 q 629 50 629 24 l 629 683 q 608 730 629 711 q 515 749 588 749 q 421 730 442 749 q 400 683 400 711 l 400 50 q 388 12 400 24 q 350 0 376 0 l 139 0 q 101 12 113 0 q 89 50 89 24 l 89 738 m 506 -503 l 414 -503 q 382 -492 392 -503 q 372 -460 372 -482 l 372 -412 q 382 -381 372 -390 q 414 -371 392 -371 l 496 -371 q 519 -362 511 -371 q 528 -337 528 -353 l 528 -319 l 408 -319 q 368 -308 379 -319 q 357 -265 357 -296 l 357 -114 q 368 -72 357 -83 q 408 -60 379 -60 l 628 -60 q 668 -72 657 -60 q 679 -114 679 -83 l 679 -325 q 632 -458 679 -414 q 506 -503 585 -503 z "},"":{"ha":1036,"x_min":89,"x_max":947,"o":"m 89 738 q 108 853 89 801 q 174 942 126 906 q 306 1000 222 979 q 518 1021 389 1021 q 731 1000 647 1021 q 862 942 814 979 q 928 853 910 906 q 947 738 947 801 l 947 50 q 935 12 947 24 q 897 0 924 0 l 679 0 q 641 12 653 0 q 629 50 629 24 l 629 683 q 608 730 629 711 q 515 749 588 749 q 421 730 442 749 q 400 683 400 711 l 400 50 q 388 12 400 24 q 350 0 376 0 l 139 0 q 101 12 113 0 q 89 50 89 24 l 89 738 m 561 1294 l 751 1350 q 797 1353 786 1361 q 808 1307 808 1344 l 808 1194 q 797 1146 808 1157 q 751 1121 785 1135 l 574 1057 q 547 1049 561 1051 q 519 1044 532 1046 q 496 1046 507 1044 q 475 1051 485 1047 l 285 1121 q 238 1146 250 1135 q 226 1194 226 1157 l 226 1307 q 238 1353 226 1344 q 285 1350 249 1361 l 475 1294 q 518 1289 499 1289 q 561 1294 538 1289 z "},"":{"ha":1486,"x_min":89,"x_max":1397,"o":"m 1031 -21 q 855 -2 925 -21 q 743 51 785 17 q 631 -2 701 17 q 456 -21 561 -21 q 274 0 346 -21 q 162 58 203 21 q 105 147 121 94 q 89 263 89 199 l 89 950 q 101 988 89 976 q 139 1000 113 1000 l 350 1000 q 388 988 376 1000 q 400 950 400 976 l 400 317 q 417 270 400 289 q 494 251 435 251 q 571 270 554 251 q 588 317 588 289 l 588 950 q 599 988 588 976 q 638 1000 611 1000 l 849 1000 q 887 988 875 1000 q 899 950 899 976 l 899 317 q 915 270 899 289 q 992 251 932 251 q 1069 270 1051 251 q 1086 317 1086 289 l 1086 950 q 1098 988 1086 976 q 1136 1000 1110 1000 l 1347 1000 q 1385 988 1374 1000 q 1397 950 1397 976 l 1397 263 q 1381 147 1397 199 q 1324 58 1365 94 q 1212 0 1283 21 q 1031 -21 1140 -21 z "},"":{"ha":1486,"x_min":89,"x_max":1397,"o":"m 1031 -21 q 855 -2 925 -21 q 743 51 785 17 q 631 -2 701 17 q 456 -21 561 -21 q 274 0 346 -21 q 162 58 203 21 q 105 147 121 94 q 89 263 89 199 l 89 950 q 101 988 89 976 q 139 1000 113 1000 l 350 1000 q 388 988 376 1000 q 400 950 400 976 l 400 317 q 417 270 400 289 q 494 251 435 251 q 571 270 554 251 q 588 317 588 289 l 588 950 q 599 988 588 976 q 638 1000 611 1000 l 849 1000 q 887 988 875 1000 q 899 950 899 976 l 899 317 q 915 270 899 289 q 992 251 932 251 q 1069 270 1051 251 q 1086 317 1086 289 l 1086 950 q 1098 988 1086 976 q 1136 1000 1110 1000 l 1347 1000 q 1385 988 1374 1000 q 1397 950 1397 976 l 1397 263 q 1381 147 1397 199 q 1324 58 1365 94 q 1212 0 1283 21 q 1031 -21 1140 -21 m 699 1107 l 508 1051 q 463 1049 474 1040 q 451 1094 451 1057 l 451 1207 q 463 1256 451 1244 q 508 1281 475 1267 l 686 1344 q 713 1353 699 1350 q 740 1357 728 1356 q 764 1356 753 1357 q 785 1350 775 1354 l 975 1281 q 1022 1256 1010 1267 q 1033 1207 1033 1244 l 1033 1094 q 1022 1049 1033 1057 q 975 1051 1011 1040 l 785 1107 q 742 1113 761 1113 q 699 1107 722 1113 z "},"":{"ha":1486,"x_min":89,"x_max":1397,"o":"m 1031 -21 q 855 -2 925 -21 q 743 51 785 17 q 631 -2 701 17 q 456 -21 561 -21 q 274 0 346 -21 q 162 58 203 21 q 105 147 121 94 q 89 263 89 199 l 89 950 q 101 988 89 976 q 139 1000 113 1000 l 350 1000 q 388 988 376 1000 q 400 950 400 976 l 400 317 q 417 270 400 289 q 494 251 435 251 q 571 270 554 251 q 588 317 588 289 l 588 950 q 599 988 588 976 q 638 1000 611 1000 l 849 1000 q 887 988 875 1000 q 899 950 899 976 l 899 317 q 915 270 899 289 q 992 251 932 251 q 1069 270 1051 251 q 1086 317 1086 289 l 1086 950 q 1098 988 1086 976 q 1136 1000 1110 1000 l 1347 1000 q 1385 988 1374 1000 q 1397 950 1397 976 l 1397 263 q 1381 147 1397 199 q 1324 58 1365 94 q 1212 0 1283 21 q 1031 -21 1140 -21 m 972 1046 l 488 1106 q 449 1119 461 1108 q 438 1156 438 1129 l 438 1289 q 449 1325 438 1313 q 485 1335 461 1338 l 969 1275 q 1008 1262 996 1272 q 1019 1225 1019 1251 l 1019 1092 q 1008 1056 1019 1068 q 972 1046 996 1043 z "},"":{"ha":1486,"x_min":89,"x_max":1397,"o":"m 1031 -21 q 855 -2 925 -21 q 743 51 785 17 q 631 -2 701 17 q 456 -21 561 -21 q 274 0 346 -21 q 162 58 203 21 q 105 147 121 94 q 89 263 89 199 l 89 950 q 101 988 89 976 q 139 1000 113 1000 l 350 1000 q 388 988 376 1000 q 400 950 400 976 l 400 317 q 417 270 400 289 q 494 251 435 251 q 571 270 554 251 q 588 317 588 289 l 588 950 q 599 988 588 976 q 638 1000 611 1000 l 849 1000 q 887 988 875 1000 q 899 950 899 976 l 899 317 q 915 270 899 289 q 992 251 932 251 q 1069 270 1051 251 q 1086 317 1086 289 l 1086 950 q 1098 988 1086 976 q 1136 1000 1110 1000 l 1347 1000 q 1385 988 1374 1000 q 1397 950 1397 976 l 1397 263 q 1381 147 1397 199 q 1324 58 1365 94 q 1212 0 1283 21 q 1031 -21 1140 -21 m 997 1106 l 513 1046 q 477 1056 489 1043 q 465 1092 465 1068 l 465 1225 q 477 1262 465 1251 q 515 1275 489 1272 l 1000 1335 q 1035 1325 1024 1338 q 1047 1289 1047 1313 l 1047 1156 q 1035 1119 1047 1129 q 997 1106 1024 1108 z "},"":{"ha":1486,"x_min":89,"x_max":1397,"o":"m 1031 -21 q 855 -2 925 -21 q 743 51 785 17 q 631 -2 701 17 q 456 -21 561 -21 q 274 0 346 -21 q 162 58 203 21 q 105 147 121 94 q 89 263 89 199 l 89 950 q 101 988 89 976 q 139 1000 113 1000 l 350 1000 q 388 988 376 1000 q 400 950 400 976 l 400 317 q 417 270 400 289 q 494 251 435 251 q 571 270 554 251 q 588 317 588 289 l 588 950 q 599 988 588 976 q 638 1000 611 1000 l 849 1000 q 887 988 875 1000 q 899 950 899 976 l 899 317 q 915 270 899 289 q 992 251 932 251 q 1069 270 1051 251 q 1086 317 1086 289 l 1086 950 q 1098 988 1086 976 q 1136 1000 1110 1000 l 1347 1000 q 1385 988 1374 1000 q 1397 950 1397 976 l 1397 263 q 1381 147 1397 199 q 1324 58 1365 94 q 1212 0 1283 21 q 1031 -21 1140 -21 m 1015 1056 l 824 1056 q 789 1067 800 1056 q 778 1101 778 1078 l 778 1269 q 789 1304 778 1293 q 824 1315 800 1315 l 1015 1315 q 1050 1304 1039 1315 q 1061 1269 1061 1293 l 1061 1101 q 1050 1067 1061 1078 q 1015 1056 1039 1056 m 657 1056 l 465 1056 q 430 1067 442 1056 q 418 1101 418 1078 l 418 1269 q 430 1304 418 1293 q 465 1315 442 1315 l 657 1315 q 692 1304 681 1315 q 703 1269 703 1293 l 703 1101 q 692 1067 703 1078 q 657 1056 681 1056 z "},"":{"ha":1024,"x_min":83,"x_max":940,"o":"m 349 0 l 133 0 q 95 12 107 0 q 83 50 83 24 l 83 440 q 116 556 83 508 q 207 619 149 604 l 117 951 q 119 988 111 975 q 153 1000 128 1000 l 363 1000 q 403 989 389 1000 q 424 951 418 978 l 490 631 l 536 631 l 603 951 q 622 989 608 978 q 663 1000 636 1000 l 874 1000 q 908 988 900 1000 q 911 951 917 975 l 821 619 q 908 556 876 603 q 940 440 940 508 l 940 50 q 928 12 940 24 q 890 0 917 0 l 676 0 q 638 12 650 0 q 626 50 626 24 l 626 319 q 615 355 626 342 q 582 368 604 368 l 443 368 q 410 355 421 368 q 399 319 399 342 l 399 50 q 387 12 399 24 q 349 0 375 0 z "},"":{"ha":981,"x_min":65,"x_max":915,"o":"m 603 0 l 378 0 q 340 12 351 0 q 328 50 328 24 l 328 286 q 119 383 174 311 q 65 558 65 456 l 65 949 q 77 987 65 975 q 115 999 89 999 l 331 999 q 369 987 357 999 q 381 949 381 975 l 381 615 q 401 569 381 588 q 490 550 421 550 q 581 569 561 550 q 601 615 601 588 l 601 949 q 613 987 601 975 q 651 999 625 999 l 865 999 q 903 987 892 999 q 915 949 915 975 l 915 558 q 861 383 915 456 q 653 286 807 311 l 653 50 q 641 12 653 24 q 603 0 629 0 z "},"":{"ha":981,"x_min":65,"x_max":915,"o":"m 603 0 l 378 0 q 340 12 351 0 q 328 50 328 24 l 328 286 q 119 383 174 311 q 65 558 65 456 l 65 949 q 77 987 65 975 q 115 999 89 999 l 331 999 q 369 987 357 999 q 381 949 381 975 l 381 615 q 401 569 381 588 q 490 550 421 550 q 581 569 561 550 q 601 615 601 588 l 601 949 q 613 987 601 975 q 651 999 625 999 l 865 999 q 903 987 892 999 q 915 949 915 975 l 915 558 q 861 383 915 456 q 653 286 807 311 l 653 50 q 641 12 653 24 q 603 0 629 0 m 744 1106 l 260 1046 q 224 1056 236 1043 q 213 1092 213 1068 l 213 1225 q 224 1262 213 1251 q 263 1275 236 1272 l 747 1335 q 783 1325 771 1338 q 794 1289 794 1313 l 794 1156 q 783 1119 794 1129 q 744 1106 771 1108 z "},"":{"ha":981,"x_min":65,"x_max":915,"o":"m 603 0 l 378 0 q 340 12 351 0 q 328 50 328 24 l 328 286 q 119 383 174 311 q 65 558 65 456 l 65 949 q 77 987 65 975 q 115 999 89 999 l 331 999 q 369 987 357 999 q 381 949 381 975 l 381 615 q 401 569 381 588 q 490 550 421 550 q 581 569 561 550 q 601 615 601 588 l 601 949 q 613 987 601 975 q 651 999 625 999 l 865 999 q 903 987 892 999 q 915 949 915 975 l 915 558 q 861 383 915 456 q 653 286 807 311 l 653 50 q 641 12 653 24 q 603 0 629 0 m 446 1107 l 256 1051 q 210 1049 221 1040 q 199 1094 199 1057 l 199 1207 q 210 1256 199 1244 q 256 1281 222 1267 l 433 1344 q 460 1353 446 1350 q 488 1357 475 1356 q 511 1356 500 1357 q 532 1350 522 1354 l 722 1281 q 769 1256 757 1267 q 781 1207 781 1244 l 781 1094 q 769 1049 781 1057 q 722 1051 758 1040 l 532 1107 q 489 1113 508 1113 q 446 1107 469 1113 z "},"":{"ha":981,"x_min":65,"x_max":915,"o":"m 603 0 l 378 0 q 340 12 351 0 q 328 50 328 24 l 328 286 q 119 383 174 311 q 65 558 65 456 l 65 949 q 77 987 65 975 q 115 999 89 999 l 331 999 q 369 987 357 999 q 381 949 381 975 l 381 615 q 401 569 381 588 q 490 550 421 550 q 581 569 561 550 q 601 615 601 588 l 601 949 q 613 987 601 975 q 651 999 625 999 l 865 999 q 903 987 892 999 q 915 949 915 975 l 915 558 q 861 383 915 456 q 653 286 807 311 l 653 50 q 641 12 653 24 q 603 0 629 0 m 763 1056 l 571 1056 q 536 1067 547 1056 q 525 1101 525 1078 l 525 1269 q 536 1304 525 1293 q 571 1315 547 1315 l 763 1315 q 797 1304 786 1315 q 808 1269 808 1293 l 808 1101 q 797 1067 808 1078 q 763 1056 786 1056 m 404 1056 l 213 1056 q 177 1067 189 1056 q 165 1101 165 1078 l 165 1269 q 177 1304 165 1293 q 213 1315 189 1315 l 404 1315 q 439 1304 428 1315 q 450 1269 450 1293 l 450 1101 q 439 1067 450 1078 q 404 1056 428 1056 z "},"":{"ha":981,"x_min":65,"x_max":915,"o":"m 603 0 l 378 0 q 340 12 351 0 q 328 50 328 24 l 328 286 q 119 383 174 311 q 65 558 65 456 l 65 949 q 77 987 65 975 q 115 999 89 999 l 331 999 q 369 987 357 999 q 381 949 381 975 l 381 615 q 401 569 381 588 q 490 550 421 550 q 581 569 561 550 q 601 615 601 588 l 601 949 q 613 987 601 975 q 651 999 625 999 l 865 999 q 903 987 892 999 q 915 949 915 975 l 915 558 q 861 383 915 456 q 653 286 807 311 l 653 50 q 641 12 653 24 q 603 0 629 0 m 719 1046 l 235 1106 q 197 1119 208 1108 q 185 1156 185 1129 l 185 1289 q 197 1325 185 1313 q 232 1335 208 1338 l 717 1275 q 755 1262 743 1272 q 767 1225 767 1251 l 767 1092 q 755 1056 767 1068 q 719 1046 743 1043 z "},"":{"ha":1407,"x_min":89,"x_max":1339,"o":"m 393 679 l 393 511 l 622 511 l 622 744 l 508 744 q 414 726 435 744 q 393 679 393 707 m 393 50 q 381 12 393 24 q 343 0 369 0 l 139 0 q 101 12 113 0 q 89 50 89 24 l 89 717 q 106 832 89 779 q 170 922 124 885 q 299 979 217 958 q 510 1000 381 1000 l 1289 1000 q 1327 988 1315 1000 q 1339 950 1339 976 l 1339 788 q 1327 749 1339 761 q 1289 738 1315 738 l 938 738 l 938 631 l 1176 631 q 1215 619 1203 631 q 1226 581 1226 607 l 1226 432 q 1215 394 1226 406 q 1176 382 1203 382 l 938 382 l 938 263 l 1289 263 q 1327 251 1315 263 q 1339 213 1339 239 l 1339 50 q 1327 12 1339 24 q 1289 0 1315 0 l 672 0 q 634 12 646 0 q 622 50 622 24 l 622 257 l 393 257 l 393 50 z "},"":{"ha":1435,"x_min":97,"x_max":1346,"o":"m 368 0 l 147 0 q 109 12 121 0 q 97 50 97 24 l 97 950 q 109 988 97 976 q 147 1000 121 1000 l 368 1000 q 406 988 394 1000 q 418 950 418 976 l 418 50 q 406 12 418 24 q 368 0 394 0 m 1346 263 q 1328 147 1346 199 q 1265 58 1310 94 q 1140 0 1219 21 q 939 -21 1061 -21 q 740 0 818 -21 q 616 58 661 21 q 553 147 571 94 q 536 263 536 199 l 536 488 q 548 526 536 514 q 586 538 560 538 l 788 538 q 826 526 814 538 q 838 488 838 514 l 838 318 q 855 272 838 290 q 936 253 872 253 q 1012 272 996 253 q 1028 318 1028 290 l 1028 950 q 1040 988 1028 976 q 1078 1000 1051 1000 l 1296 1000 q 1334 988 1322 1000 q 1346 950 1346 976 l 1346 263 z "},"":{"ha":1754,"x_min":74,"x_max":1665,"o":"m 124 0 q 85 12 97 0 q 74 50 74 24 l 74 215 q 85 253 74 242 q 124 265 97 265 l 261 265 l 261 732 l 124 732 q 85 744 97 732 q 74 782 74 756 l 74 950 q 85 988 74 976 q 124 1000 97 1000 l 715 1000 q 753 988 742 1000 q 765 950 765 976 l 765 782 q 753 744 765 756 q 715 732 742 732 l 581 732 l 581 265 l 715 265 q 753 253 742 265 q 765 215 765 242 l 765 50 q 753 12 765 24 q 715 0 742 0 l 124 0 m 1665 263 q 1647 147 1665 199 q 1584 58 1629 94 q 1460 0 1539 21 q 1258 -21 1381 -21 q 1059 0 1138 -21 q 935 58 981 21 q 873 147 890 94 q 856 263 856 199 l 856 488 q 867 526 856 514 q 906 538 879 538 l 1107 538 q 1145 526 1133 538 q 1157 488 1157 514 l 1157 318 q 1174 272 1157 290 q 1256 253 1192 253 q 1331 272 1315 253 q 1347 318 1347 290 l 1347 950 q 1359 988 1347 976 q 1397 1000 1371 1000 l 1615 1000 q 1653 988 1642 1000 q 1665 950 1665 976 l 1665 263 z "},"ª":{"ha":722,"x_min":50,"x_max":672,"o":"m 338 789 l 289 643 l 426 643 l 379 789 q 374 799 378 794 q 367 803 369 803 l 349 803 q 342 799 344 803 q 338 789 339 794 m 276 322 q 267 291 276 301 q 235 281 257 281 l 92 281 q 60 291 71 281 q 50 322 50 301 l 50 571 q 58 651 50 613 q 79 721 67 689 q 122 839 99 778 q 164 956 144 900 q 188 990 174 979 q 231 1000 203 1000 l 493 1000 q 534 990 519 1000 q 558 956 549 979 l 644 721 q 664 651 656 689 q 672 571 672 613 l 672 322 q 663 291 672 301 q 631 281 653 281 l 481 281 q 449 291 460 281 q 439 322 439 301 l 439 454 l 276 454 l 276 322 m 100 0 q 62 12 74 0 q 50 50 50 24 l 50 143 q 62 181 50 169 q 100 193 74 193 l 622 193 q 660 181 649 193 q 672 143 672 169 l 672 50 q 660 12 672 24 q 622 0 649 0 l 100 0 z "},"º":{"ha":729,"x_min":54,"x_max":675,"o":"m 675 472 q 662 388 675 426 q 614 324 649 350 q 519 282 579 297 q 365 267 458 267 q 212 282 272 267 q 117 324 151 297 q 68 388 82 350 q 54 472 54 426 l 54 807 q 68 891 54 853 q 117 956 82 929 q 212 999 151 983 q 365 1014 272 1014 q 519 999 458 1014 q 614 956 579 983 q 662 891 649 929 q 675 807 675 853 l 675 472 m 289 507 q 303 479 289 490 q 365 468 317 468 q 428 479 415 468 q 442 507 442 490 l 442 771 q 428 799 442 788 q 365 811 415 811 q 303 799 317 811 q 289 771 289 788 l 289 507 m 104 0 q 66 12 78 0 q 54 50 54 24 l 54 143 q 66 181 54 169 q 104 193 78 193 l 625 193 q 663 181 651 193 q 675 143 675 169 l 675 50 q 663 12 675 24 q 625 0 651 0 l 104 0 z "},"_":{"ha":1019,"x_min":97,"x_max":922,"o":"m 147 -143 q 109 -131 121 -143 q 97 -93 97 -119 l 97 93 q 109 131 97 119 q 147 143 121 143 l 872 143 q 910 131 899 143 q 922 93 922 119 l 922 -93 q 910 -131 922 -119 q 872 -143 899 -143 l 147 -143 z "},"-":{"ha":583,"x_min":56,"x_max":528,"o":"m 106 357 q 67 369 79 357 q 56 407 56 381 l 56 593 q 67 631 56 619 q 106 643 79 643 l 478 643 q 516 631 504 643 q 528 593 528 619 l 528 407 q 516 369 528 381 q 478 357 504 357 l 106 357 z "},"–":{"ha":1019,"x_min":97,"x_max":922,"o":"m 147 357 q 109 369 121 357 q 97 407 97 381 l 97 593 q 109 631 97 619 q 147 643 121 643 l 872 643 q 910 631 899 643 q 922 593 922 619 l 922 407 q 910 369 922 381 q 872 357 899 357 l 147 357 z "},"—":{"ha":1575,"x_min":97,"x_max":1478,"o":"m 147 357 q 109 369 121 357 q 97 407 97 381 l 97 593 q 109 631 97 619 q 147 643 121 643 l 1428 643 q 1466 631 1454 643 q 1478 593 1478 619 l 1478 407 q 1466 369 1478 381 q 1428 357 1454 357 l 147 357 z "},"(":{"ha":596,"x_min":67,"x_max":533,"o":"m 483 -111 l 408 -111 q 140 -32 213 -111 q 67 172 67 47 l 67 826 q 140 1032 67 953 q 408 1111 213 1111 l 483 1111 q 522 1099 510 1111 q 533 1061 533 1088 l 533 893 q 522 855 533 867 q 483 843 510 843 l 440 843 q 395 826 407 843 q 383 774 383 810 l 383 224 q 395 171 383 188 q 440 154 407 154 l 483 154 q 522 142 510 154 q 533 104 533 131 l 533 -61 q 522 -99 533 -87 q 483 -111 510 -111 z "},")":{"ha":596,"x_min":63,"x_max":529,"o":"m 188 -111 l 113 -111 q 74 -99 86 -111 q 63 -61 63 -87 l 63 104 q 74 142 63 131 q 113 154 86 154 l 156 154 q 201 171 189 154 q 213 224 213 188 l 213 774 q 201 826 213 810 q 156 843 189 843 l 113 843 q 74 855 86 843 q 63 893 63 867 l 63 1061 q 74 1099 63 1088 q 113 1111 86 1111 l 188 1111 q 456 1032 383 1111 q 529 826 529 953 l 529 172 q 456 -32 529 47 q 188 -111 383 -111 z "},"[":{"ha":596,"x_min":67,"x_max":533,"o":"m 383 843 l 383 154 l 483 154 q 522 142 510 154 q 533 104 533 131 l 533 -61 q 522 -99 533 -87 q 483 -111 510 -111 l 117 -111 q 78 -99 90 -111 q 67 -61 67 -87 l 67 1061 q 78 1099 67 1088 q 117 1111 90 1111 l 483 1111 q 522 1099 510 1111 q 533 1061 533 1088 l 533 893 q 522 855 533 867 q 483 843 510 843 l 383 843 z "},"]":{"ha":596,"x_min":63,"x_max":529,"o":"m 213 154 l 213 843 l 113 843 q 74 855 86 843 q 63 893 63 867 l 63 1061 q 74 1099 63 1088 q 113 1111 86 1111 l 479 1111 q 517 1099 506 1111 q 529 1061 529 1088 l 529 -61 q 517 -99 529 -87 q 479 -111 506 -111 l 113 -111 q 74 -99 86 -111 q 63 -61 63 -87 l 63 104 q 74 142 63 131 q 113 154 86 154 l 213 154 z "},"{":{"ha":632,"x_min":28,"x_max":569,"o":"m 433 224 q 445 171 433 188 q 490 154 457 154 l 519 154 q 558 142 546 154 q 569 104 569 131 l 569 -61 q 558 -99 569 -87 q 519 -111 546 -111 l 458 -111 q 190 -32 263 -111 q 117 172 117 47 l 117 353 q 50 395 72 367 q 28 474 28 424 l 28 522 q 50 600 28 572 q 117 642 72 628 l 117 826 q 190 1032 117 953 q 458 1111 263 1111 l 519 1111 q 558 1099 546 1111 q 569 1061 569 1088 l 569 893 q 558 855 569 867 q 519 843 546 843 l 490 843 q 445 826 457 843 q 433 774 433 810 l 433 611 q 420 550 433 569 q 371 525 407 531 l 325 517 q 311 511 315 515 q 307 497 307 507 q 311 483 307 488 q 325 478 315 479 l 371 469 q 420 444 407 464 q 433 383 433 425 l 433 224 z "},"}":{"ha":632,"x_min":63,"x_max":604,"o":"m 199 224 l 199 383 q 212 444 199 425 q 261 469 225 464 l 307 478 q 321 483 317 479 q 325 497 325 488 q 321 511 325 507 q 307 517 317 515 l 261 525 q 212 550 225 531 q 199 611 199 569 l 199 774 q 187 826 199 810 q 142 843 175 843 l 113 843 q 74 855 86 843 q 63 893 63 867 l 63 1061 q 74 1099 63 1088 q 113 1111 86 1111 l 174 1111 q 442 1032 369 1111 q 515 826 515 953 l 515 642 q 582 600 560 628 q 604 522 604 572 l 604 474 q 582 395 604 424 q 515 353 560 367 l 515 172 q 442 -32 515 47 q 174 -111 369 -111 l 113 -111 q 74 -99 86 -111 q 63 -61 63 -87 l 63 104 q 74 142 63 131 q 113 154 86 154 l 142 154 q 187 171 175 154 q 199 224 199 188 z "},"#":{"ha":1042,"x_min":49,"x_max":993,"o":"m 590 436 l 610 571 l 453 571 l 433 436 l 590 436 m 378 50 q 365 12 375 24 q 328 0 354 0 l 182 0 q 142 12 156 0 q 132 50 129 24 l 151 188 l 99 188 q 60 199 72 188 q 49 238 49 211 l 49 386 q 60 424 49 413 q 99 436 72 436 l 188 436 l 207 571 l 149 571 q 110 583 122 571 q 99 621 99 594 l 99 769 q 110 808 99 796 q 149 819 122 819 l 243 819 l 261 950 q 274 988 264 976 q 311 1000 285 1000 l 457 1000 q 497 988 483 1000 q 507 950 510 976 l 489 819 l 646 819 l 664 950 q 677 988 667 976 q 714 1000 688 1000 l 860 1000 q 899 988 886 1000 q 910 950 913 976 l 892 819 l 943 819 q 981 808 969 819 q 993 769 993 796 l 993 621 q 981 583 993 594 q 943 571 969 571 l 856 571 l 836 436 l 893 436 q 931 424 919 436 q 943 386 943 413 l 943 238 q 931 199 943 211 q 893 188 919 188 l 800 188 l 781 50 q 767 12 778 24 q 731 0 757 0 l 585 0 q 545 12 558 0 q 535 50 532 24 l 554 188 l 397 188 l 378 50 z "},"%":{"ha":1432,"x_min":58,"x_max":1383,"o":"m 553 578 q 542 510 553 542 q 504 458 532 479 q 428 424 476 436 q 307 413 381 413 q 108 458 158 413 q 58 578 58 504 l 58 842 q 108 961 58 915 q 307 1007 158 1007 q 428 995 381 1007 q 504 962 476 983 q 542 909 532 940 q 553 842 553 878 l 553 578 m 489 50 l 711 950 q 729 988 717 975 q 768 1000 742 1000 l 914 1000 q 951 988 940 1000 q 957 950 963 975 l 735 50 q 717 13 729 25 q 678 0 704 0 l 532 0 q 494 13 506 0 q 489 50 483 25 m 260 621 q 268 603 260 611 q 307 596 276 596 q 344 603 336 596 q 353 621 353 611 l 353 799 q 344 815 353 807 q 307 822 336 822 q 268 815 276 822 q 260 799 260 807 l 260 621 m 1383 157 q 1373 90 1383 121 q 1335 37 1363 58 q 1259 3 1307 15 q 1138 -8 1211 -8 q 939 38 989 -8 q 889 157 889 83 l 889 421 q 939 540 889 494 q 1138 586 989 586 q 1259 574 1211 586 q 1335 541 1307 563 q 1373 488 1363 519 q 1383 421 1383 457 l 1383 157 m 1090 200 q 1099 183 1090 190 q 1138 175 1107 175 q 1175 183 1167 175 q 1183 200 1183 190 l 1183 378 q 1175 394 1183 386 q 1138 401 1167 401 q 1099 394 1107 401 q 1090 378 1090 386 l 1090 200 z "},"‰":{"ha":1968,"x_min":58,"x_max":1935,"o":"m 553 578 q 542 510 553 542 q 504 458 532 479 q 428 424 476 436 q 307 413 381 413 q 108 458 158 413 q 58 578 58 504 l 58 842 q 108 961 58 915 q 307 1007 158 1007 q 428 995 381 1007 q 504 962 476 983 q 542 909 532 940 q 553 842 553 878 l 553 578 m 489 50 l 711 950 q 729 988 717 975 q 768 1000 742 1000 l 914 1000 q 951 988 940 1000 q 957 950 963 975 l 735 50 q 717 13 729 25 q 678 0 704 0 l 532 0 q 494 13 506 0 q 489 50 483 25 m 260 621 q 268 603 260 611 q 307 596 276 596 q 344 603 336 596 q 353 621 353 611 l 353 799 q 344 815 353 807 q 307 822 336 822 q 268 815 276 822 q 260 799 260 807 l 260 621 m 1935 157 q 1924 90 1935 121 q 1886 37 1914 58 q 1810 3 1858 15 q 1689 -8 1763 -8 q 1490 38 1540 -8 q 1440 157 1440 83 l 1440 421 q 1490 540 1440 494 q 1689 586 1540 586 q 1810 574 1763 586 q 1886 541 1858 563 q 1924 488 1914 519 q 1935 421 1935 457 l 1935 157 m 1383 157 q 1373 90 1383 121 q 1335 37 1363 58 q 1259 3 1307 15 q 1138 -8 1211 -8 q 939 38 989 -8 q 889 157 889 83 l 889 421 q 939 540 889 494 q 1138 586 989 586 q 1259 574 1211 586 q 1335 541 1307 563 q 1373 488 1363 519 q 1383 421 1383 457 l 1383 157 m 1642 200 q 1650 183 1642 190 q 1689 175 1658 175 q 1726 183 1718 175 q 1735 200 1735 190 l 1735 378 q 1726 394 1735 386 q 1689 401 1718 401 q 1650 394 1658 401 q 1642 378 1642 386 l 1642 200 m 1090 200 q 1099 183 1090 190 q 1138 175 1107 175 q 1175 183 1167 175 q 1183 200 1183 190 l 1183 378 q 1175 394 1183 386 q 1138 401 1167 401 q 1099 394 1107 401 q 1090 378 1090 386 l 1090 200 z "},"'":{"ha":494,"x_min":76,"x_max":418,"o":"m 347 479 l 147 479 q 101 490 111 479 q 89 536 90 500 l 78 943 q 87 990 76 979 q 133 1000 97 1000 l 363 1000 q 408 990 397 1000 q 417 943 418 979 l 406 536 q 394 490 404 500 q 347 479 383 479 z "},"\"":{"ha":897,"x_min":63,"x_max":835,"o":"m 764 479 l 564 479 q 517 490 528 479 q 506 536 507 500 l 494 943 q 503 990 493 979 q 550 1000 514 1000 l 779 1000 q 824 990 814 1000 q 833 943 835 979 l 822 536 q 810 490 821 500 q 764 479 800 479 m 333 479 l 133 479 q 87 490 97 479 q 75 536 76 500 l 64 943 q 73 990 63 979 q 119 1000 83 1000 l 349 1000 q 394 990 383 1000 q 403 943 404 979 l 392 536 q 380 490 390 500 q 333 479 369 479 z "},"‘":{"ha":533,"x_min":76,"x_max":457,"o":"m 282 1000 l 389 1000 q 427 988 415 1000 q 439 950 439 976 l 439 894 q 427 856 439 868 q 389 844 415 844 l 293 844 q 265 834 275 844 q 256 806 256 824 l 256 785 l 407 785 q 445 773 433 785 q 457 735 457 761 l 457 529 q 445 491 457 503 q 407 479 433 479 l 126 479 q 88 491 100 479 q 76 529 76 503 l 76 790 q 133 948 76 896 q 282 1000 189 1000 z "},"’":{"ha":533,"x_min":76,"x_max":457,"o":"m 251 479 l 144 479 q 106 491 118 479 q 94 529 94 503 l 94 585 q 106 623 94 611 q 144 635 118 635 l 240 635 q 268 645 258 635 q 278 674 278 656 l 278 694 l 126 694 q 88 706 100 694 q 76 744 76 718 l 76 950 q 88 988 76 976 q 126 1000 100 1000 l 407 1000 q 445 988 433 1000 q 457 950 457 976 l 457 689 q 401 531 457 583 q 251 479 344 479 z "},"":{"ha":426,"x_min":76,"x_max":350,"o":"m 224 1000 l 300 1000 q 327 992 318 1000 q 336 964 336 983 l 336 924 q 327 897 336 906 q 300 888 318 888 l 232 888 q 211 881 218 888 q 204 860 204 874 l 204 844 l 314 844 q 341 836 332 844 q 350 810 350 828 l 350 661 q 341 634 350 643 q 314 625 332 625 l 111 625 q 85 634 93 625 q 76 661 76 643 l 76 849 q 116 963 76 925 q 224 1000 156 1000 z "},"":{"ha":426,"x_min":76,"x_max":350,"o":"m 201 625 l 125 625 q 98 633 107 625 q 89 661 89 642 l 89 701 q 98 728 89 719 q 125 738 107 738 l 193 738 q 214 744 207 738 q 221 765 221 751 l 221 781 l 111 781 q 85 790 93 781 q 76 817 76 799 l 76 964 q 85 991 76 982 q 111 1000 93 1000 l 314 1000 q 341 991 332 1000 q 350 964 350 982 l 350 776 q 310 663 350 700 q 201 625 269 625 z "},"“":{"ha":950,"x_min":63,"x_max":888,"o":"m 268 1000 l 375 1000 q 413 988 401 1000 q 425 950 425 976 l 425 894 q 413 856 425 868 q 375 844 401 844 l 279 844 q 251 834 261 844 q 242 806 242 824 l 242 785 l 393 785 q 431 773 419 785 q 443 735 443 761 l 443 529 q 431 491 443 503 q 393 479 419 479 l 113 479 q 74 491 86 479 q 63 529 63 503 l 63 790 q 119 948 63 896 q 268 1000 175 1000 m 713 1000 l 819 1000 q 858 988 846 1000 q 869 950 869 976 l 869 894 q 858 856 869 868 q 819 844 846 844 l 724 844 q 696 834 706 844 q 686 806 686 824 l 686 785 l 838 785 q 876 773 864 785 q 888 735 888 761 l 888 529 q 876 491 888 503 q 838 479 864 479 l 557 479 q 519 491 531 479 q 507 529 507 503 l 507 790 q 563 948 507 896 q 713 1000 619 1000 z "},"”":{"ha":950,"x_min":63,"x_max":888,"o":"m 682 479 l 575 479 q 537 491 549 479 q 525 529 525 503 l 525 585 q 537 623 525 611 q 575 635 549 635 l 671 635 q 699 645 689 635 q 708 674 708 656 l 708 694 l 557 694 q 519 706 531 694 q 507 744 507 718 l 507 950 q 519 988 507 976 q 557 1000 531 1000 l 838 1000 q 876 988 864 1000 q 888 950 888 976 l 888 689 q 831 531 888 583 q 682 479 775 479 m 238 479 l 131 479 q 92 491 104 479 q 81 529 81 503 l 81 585 q 92 623 81 611 q 131 635 104 635 l 226 635 q 254 645 244 635 q 264 674 264 656 l 264 694 l 113 694 q 74 706 86 694 q 63 744 63 718 l 63 950 q 74 988 63 976 q 113 1000 86 1000 l 393 1000 q 431 988 419 1000 q 443 950 443 976 l 443 689 q 387 531 443 583 q 238 479 331 479 z "},"‚":{"ha":533,"x_min":76,"x_max":457,"o":"m 251 -139 l 144 -139 q 106 -127 118 -139 q 94 -89 94 -115 l 94 -33 q 106 5 94 -7 q 144 17 118 17 l 240 17 q 268 27 258 17 q 278 56 278 38 l 278 76 l 126 76 q 88 88 100 76 q 76 126 76 100 l 76 332 q 88 370 76 358 q 126 382 100 382 l 407 382 q 445 370 433 382 q 457 332 457 358 l 457 71 q 401 -87 457 -35 q 251 -139 344 -139 z "},"„":{"ha":950,"x_min":63,"x_max":888,"o":"m 682 -139 l 575 -139 q 537 -127 549 -139 q 525 -89 525 -115 l 525 -33 q 537 5 525 -7 q 575 17 549 17 l 671 17 q 699 27 689 17 q 708 56 708 38 l 708 76 l 557 76 q 519 88 531 76 q 507 126 507 100 l 507 332 q 519 370 507 358 q 557 382 531 382 l 838 382 q 876 370 864 382 q 888 332 888 358 l 888 71 q 831 -87 888 -35 q 682 -139 775 -139 m 238 -139 l 131 -139 q 92 -127 104 -139 q 81 -89 81 -115 l 81 -33 q 92 5 81 -7 q 131 17 104 17 l 226 17 q 254 27 244 17 q 264 56 264 38 l 264 76 l 113 76 q 74 88 86 76 q 63 126 63 100 l 63 332 q 74 370 63 358 q 113 382 86 382 l 393 382 q 431 370 419 382 q 443 332 443 358 l 443 71 q 387 -87 443 -35 q 238 -139 331 -139 z "},"‹":{"ha":782,"x_min":83,"x_max":671,"o":"m 621 144 l 260 218 q 128 283 172 236 q 83 433 83 331 l 83 536 q 128 686 83 639 q 260 751 172 733 l 621 825 q 659 819 647 831 q 671 782 671 808 l 671 606 q 659 566 671 579 q 621 549 647 553 l 390 511 q 372 503 376 510 q 367 485 367 497 q 372 466 367 472 q 390 458 376 460 l 621 421 q 659 403 647 417 q 671 364 671 390 l 671 188 q 659 150 671 161 q 621 144 647 139 z "},"›":{"ha":782,"x_min":111,"x_max":699,"o":"m 522 218 l 161 144 q 123 150 135 139 q 111 188 111 161 l 111 364 q 123 403 111 390 q 161 421 135 417 l 392 458 q 410 466 406 460 q 415 485 415 472 q 410 503 415 497 q 392 511 406 510 l 161 549 q 123 566 135 553 q 111 606 111 579 l 111 782 q 123 819 111 808 q 161 825 135 831 l 522 751 q 654 686 610 733 q 699 536 699 639 l 699 433 q 654 283 699 331 q 522 218 610 236 z "},"«":{"ha":1128,"x_min":69,"x_max":1044,"o":"m 494 147 l 246 218 q 115 287 160 243 q 69 433 69 331 l 69 536 q 115 682 69 639 q 246 751 160 725 l 494 824 q 531 818 517 829 q 544 781 544 807 l 544 618 q 531 576 544 592 q 494 550 518 560 l 363 511 q 344 501 349 506 q 339 485 339 497 q 344 468 339 472 q 363 458 349 464 l 494 421 q 532 397 519 414 q 544 353 544 379 l 544 190 q 532 153 544 165 q 494 147 519 140 m 994 151 l 760 218 q 628 287 674 243 q 583 433 583 331 l 583 536 q 628 683 583 639 q 760 751 672 726 l 994 819 q 1031 813 1018 826 q 1044 776 1044 800 l 1044 618 q 1031 576 1044 592 q 994 550 1018 560 l 863 511 q 844 502 849 507 q 839 485 839 497 q 844 467 839 472 q 863 458 849 463 l 994 421 q 1032 397 1019 414 q 1044 353 1044 379 l 1044 194 q 1032 157 1044 169 q 994 151 1019 144 z "},"»":{"ha":1128,"x_min":83,"x_max":1058,"o":"m 633 147 q 596 152 608 140 q 583 190 583 164 l 583 353 q 596 397 583 379 q 633 421 608 414 l 765 458 q 784 468 779 464 q 789 485 789 472 q 784 501 789 497 q 765 511 779 506 l 633 550 q 596 574 608 557 q 583 618 583 592 l 583 781 q 596 819 583 807 q 633 824 608 831 l 882 751 q 1013 683 968 726 q 1058 536 1058 639 l 1058 433 q 1013 287 1058 331 q 882 218 968 243 l 633 147 m 368 218 l 133 151 q 96 156 108 144 q 83 194 83 168 l 83 353 q 96 397 83 379 q 133 421 108 414 l 265 458 q 284 467 279 463 q 289 485 289 472 q 284 502 289 497 q 265 511 279 507 l 133 550 q 97 576 110 560 q 83 618 83 592 l 83 776 q 96 815 83 803 q 133 819 108 828 l 368 751 q 500 683 456 726 q 544 536 544 639 l 544 433 q 499 287 544 331 q 368 218 454 243 z "},"*":{"ha":997,"x_min":75,"x_max":922,"o":"m 397 229 q 367 197 381 200 q 324 213 354 193 l 193 307 q 163 342 164 328 q 185 382 161 356 l 336 542 l 125 576 q 83 594 90 582 q 86 640 75 606 l 136 794 q 160 835 146 829 q 204 825 174 840 l 401 736 l 369 943 q 374 989 364 978 q 419 1000 385 1000 l 582 1000 q 626 989 617 1000 q 629 943 635 978 l 601 736 l 792 825 q 835 835 822 840 q 860 794 849 829 l 911 640 q 915 594 922 606 q 872 576 907 582 l 660 542 l 813 382 q 835 342 836 356 q 804 307 833 328 l 674 213 q 631 197 643 193 q 601 229 618 200 l 499 425 l 397 229 z "},"†":{"ha":997,"x_min":69,"x_max":928,"o":"m 599 0 l 399 0 q 353 10 363 0 q 344 57 343 21 l 369 488 l 128 467 q 81 472 92 463 q 69 517 69 481 l 69 714 q 81 759 69 750 q 128 765 92 768 l 357 743 l 344 943 q 353 990 343 979 q 399 1000 363 1000 l 599 1000 q 644 990 635 1000 q 653 943 654 979 l 640 743 l 869 765 q 917 759 906 768 q 928 714 928 750 l 928 517 q 917 472 928 481 q 869 467 906 463 l 626 488 l 653 57 q 644 10 654 21 q 599 0 635 0 z "},"‡":{"ha":997,"x_min":69,"x_max":928,"o":"m 650 31 q 644 -17 653 -7 q 599 -28 635 -28 l 399 -28 q 353 -17 363 -28 q 347 31 344 -7 l 357 150 l 128 126 q 81 133 92 124 q 69 179 69 143 l 69 361 q 81 407 69 397 q 128 413 92 417 l 369 390 l 343 483 q 342 490 342 486 q 342 500 342 494 q 342 508 342 504 q 343 515 342 513 l 369 610 l 128 588 q 81 593 92 583 q 69 639 69 603 l 69 821 q 81 865 69 856 q 128 872 92 875 l 357 850 l 347 969 q 353 1017 344 1006 q 399 1028 363 1028 l 599 1028 q 644 1017 635 1028 q 650 969 653 1006 l 640 850 l 869 872 q 917 865 906 875 q 928 821 928 856 l 928 639 q 917 593 928 603 q 869 588 906 583 l 626 610 l 654 515 l 654 483 l 626 390 l 869 413 q 917 407 906 417 q 928 361 928 397 l 928 179 q 917 133 928 143 q 869 126 906 124 l 640 150 l 650 31 z "},".":{"ha":533,"x_min":76,"x_max":457,"o":"m 407 0 l 126 0 q 88 12 100 0 q 76 50 76 24 l 76 332 q 88 370 76 358 q 126 382 100 382 l 407 382 q 445 370 433 382 q 457 332 457 358 l 457 50 q 445 12 457 24 q 407 0 433 0 z "},",":{"ha":533,"x_min":76,"x_max":457,"o":"m 251 -139 l 144 -139 q 106 -127 118 -139 q 94 -89 94 -115 l 94 -33 q 106 5 94 -7 q 144 17 118 17 l 240 17 q 268 27 258 17 q 278 56 278 38 l 278 76 l 126 76 q 88 88 100 76 q 76 126 76 100 l 76 332 q 88 370 76 358 q 126 382 100 382 l 407 382 q 445 370 433 382 q 457 332 457 358 l 457 71 q 401 -87 457 -35 q 251 -139 344 -139 z "},":":{"ha":533,"x_min":76,"x_max":457,"o":"m 407 0 l 126 0 q 88 12 100 0 q 76 50 76 24 l 76 332 q 88 370 76 358 q 126 382 100 382 l 407 382 q 445 370 433 382 q 457 332 457 358 l 457 50 q 445 12 457 24 q 407 0 433 0 m 407 493 l 126 493 q 88 505 100 493 q 76 543 76 517 l 76 825 q 88 863 76 851 q 126 875 100 875 l 407 875 q 445 863 433 875 q 457 825 457 851 l 457 543 q 445 505 457 517 q 407 493 433 493 z "},";":{"ha":533,"x_min":76,"x_max":457,"o":"m 251 -139 l 144 -139 q 106 -127 118 -139 q 94 -89 94 -115 l 94 -33 q 106 5 94 -7 q 144 17 118 17 l 240 17 q 268 27 258 17 q 278 56 278 38 l 278 76 l 126 76 q 88 88 100 76 q 76 126 76 100 l 76 332 q 88 370 76 358 q 126 382 100 382 l 407 382 q 445 370 433 382 q 457 332 457 358 l 457 71 q 401 -87 457 -35 q 251 -139 344 -139 m 407 493 l 126 493 q 88 505 100 493 q 76 543 76 517 l 76 825 q 88 863 76 851 q 126 875 100 875 l 407 875 q 445 863 433 875 q 457 825 457 851 l 457 543 q 445 505 457 517 q 407 493 433 493 z "},"…":{"ha":1542,"x_min":76,"x_max":1465,"o":"m 1415 0 l 1135 0 q 1097 12 1108 0 q 1085 50 1085 24 l 1085 332 q 1097 370 1085 358 q 1135 382 1108 382 l 1415 382 q 1453 370 1442 382 q 1465 332 1465 358 l 1465 50 q 1453 12 1465 24 q 1415 0 1442 0 m 911 0 l 631 0 q 592 12 604 0 q 581 50 581 24 l 581 332 q 592 370 581 358 q 631 382 604 382 l 911 382 q 949 370 938 382 q 961 332 961 358 l 961 50 q 949 12 961 24 q 911 0 938 0 m 407 0 l 126 0 q 88 12 100 0 q 76 50 76 24 l 76 332 q 88 370 76 358 q 126 382 100 382 l 407 382 q 445 370 433 382 q 457 332 457 358 l 457 50 q 445 12 457 24 q 407 0 433 0 z "},"!":{"ha":589,"x_min":113,"x_max":475,"o":"m 401 364 l 186 364 q 148 376 160 364 q 135 414 136 388 l 114 950 q 124 988 113 976 q 161 1000 135 1000 l 426 1000 q 464 988 453 1000 q 474 950 475 976 l 454 414 q 440 376 453 388 q 401 364 428 364 m 422 0 l 167 0 q 128 12 140 0 q 117 50 117 24 l 117 232 q 128 270 117 258 q 167 282 140 282 l 422 282 q 460 270 449 282 q 472 232 472 258 l 472 50 q 460 12 472 24 q 422 0 449 0 z "},"¡":{"ha":588,"x_min":113,"x_max":475,"o":"m 167 1000 l 422 1000 q 460 988 449 1000 q 472 950 472 976 l 472 768 q 460 730 472 742 q 422 718 449 718 l 167 718 q 128 730 140 718 q 117 768 117 742 l 117 950 q 128 988 117 976 q 167 1000 140 1000 m 186 636 l 401 636 q 440 624 428 636 q 454 586 453 613 l 474 50 q 464 12 475 24 q 426 0 453 0 l 161 0 q 124 12 135 0 q 114 50 113 24 l 135 586 q 148 624 136 613 q 186 636 160 636 z "},"?":{"ha":911,"x_min":63,"x_max":849,"o":"m 633 379 l 257 328 q 219 335 231 325 q 203 371 207 344 l 174 554 q 181 594 169 581 q 219 611 193 608 l 496 650 q 525 663 517 653 q 533 693 533 672 q 524 722 533 713 q 496 732 514 732 l 113 732 q 74 744 86 732 q 63 782 63 756 l 63 950 q 74 988 63 976 q 113 1000 86 1000 l 561 1000 q 772 937 696 1000 q 849 756 849 874 l 849 610 q 790 443 849 493 q 633 379 732 393 m 478 0 l 224 0 q 185 12 197 0 q 174 50 174 24 l 174 232 q 185 270 174 258 q 224 282 197 282 l 478 282 q 516 270 504 282 q 528 232 528 258 l 528 50 q 516 12 528 24 q 478 0 504 0 z "},"¿":{"ha":911,"x_min":63,"x_max":849,"o":"m 433 1000 l 688 1000 q 726 988 714 1000 q 738 950 738 976 l 738 768 q 726 730 738 742 q 688 718 714 718 l 433 718 q 395 730 407 718 q 383 768 383 742 l 383 950 q 395 988 383 976 q 433 1000 407 1000 m 278 621 l 654 672 q 692 665 681 675 q 708 629 704 656 l 738 446 q 730 406 742 419 q 692 389 718 392 l 415 350 q 386 338 394 347 q 378 307 378 328 q 388 278 378 288 q 415 268 397 268 l 799 268 q 837 256 825 268 q 849 218 849 244 l 849 50 q 837 12 849 24 q 799 0 825 0 l 350 0 q 139 63 215 0 q 63 244 63 126 l 63 390 q 121 557 63 507 q 278 621 179 607 z "},"/":{"ha":482,"x_min":4,"x_max":478,"o":"m 7 -75 l 174 1075 q 187 1113 176 1101 q 224 1125 197 1125 l 425 1125 q 465 1113 451 1125 q 475 1075 478 1101 l 308 -75 q 295 -113 306 -101 q 258 -125 285 -125 l 57 -125 q 17 -113 31 -125 q 7 -75 4 -101 z "},"\\":{"ha":482,"x_min":4,"x_max":478,"o":"m 308 1075 l 475 -75 q 465 -113 478 -101 q 425 -125 451 -125 l 224 -125 q 187 -113 197 -125 q 174 -75 176 -101 l 7 1075 q 17 1113 4 1101 q 57 1125 31 1125 l 258 1125 q 295 1113 285 1125 q 308 1075 306 1101 z "},"⁄":{"ha":440,"x_min":1,"x_max":439,"o":"m 7 50 l 174 950 q 188 988 179 976 q 224 1000 197 1000 l 383 1000 q 424 988 410 1000 q 433 950 439 976 l 267 50 q 252 12 261 24 q 217 0 243 0 l 57 0 q 16 12 31 0 q 7 50 1 24 z "},"|":{"ha":482,"x_min":90,"x_max":392,"o":"m 392 1075 l 392 -75 q 380 -113 392 -101 q 342 -125 368 -125 l 140 -125 q 102 -113 114 -125 q 90 -75 90 -101 l 90 1075 q 102 1113 90 1101 q 140 1125 114 1125 l 342 1125 q 380 1113 368 1125 q 392 1075 392 1101 z "},"¦":{"ha":482,"x_min":90,"x_max":392,"o":"m 392 1075 l 392 606 q 380 567 392 579 q 342 556 368 556 l 140 556 q 102 567 114 556 q 90 606 90 579 l 90 1075 q 102 1113 90 1101 q 140 1125 114 1125 l 342 1125 q 380 1113 368 1125 q 392 1075 392 1101 m 392 394 l 392 -75 q 380 -113 392 -101 q 342 -125 368 -125 l 140 -125 q 102 -113 114 -125 q 90 -75 90 -101 l 90 394 q 102 433 90 421 q 140 444 114 444 l 342 444 q 380 433 368 444 q 392 394 392 421 z "},"@":{"ha":1204,"x_min":83,"x_max":1121,"o":"m 867 -126 l 603 -126 q 346 -101 447 -126 q 187 -32 244 -76 q 106 76 129 13 q 83 214 83 139 l 83 783 q 106 923 83 860 q 187 1031 129 986 q 346 1101 244 1076 q 603 1126 447 1126 q 860 1101 758 1126 q 1019 1031 961 1076 q 1099 923 1076 986 q 1121 783 1121 860 l 1121 422 q 1109 306 1121 358 q 1063 217 1097 254 q 968 160 1029 181 q 810 139 907 139 l 547 139 q 355 195 407 139 q 303 342 303 251 l 303 610 q 355 758 303 701 q 547 814 407 814 l 860 814 q 887 805 878 814 q 896 778 896 796 l 896 293 q 966 328 950 293 q 982 419 982 364 l 982 789 q 965 872 982 833 q 907 936 949 910 q 791 978 865 963 q 603 993 717 993 q 415 978 489 993 q 298 936 340 963 q 239 872 256 910 q 222 789 222 833 l 222 208 q 239 126 222 164 q 298 63 256 89 q 415 22 340 36 q 603 7 489 7 l 867 7 q 903 -3 893 7 q 914 -40 914 -14 l 914 -79 q 903 -116 914 -106 q 867 -126 893 -126 m 576 329 l 669 329 l 669 636 l 590 636 q 540 620 551 636 q 529 586 529 604 l 529 376 q 539 342 529 356 q 576 329 549 329 z "},"&":{"ha":1064,"x_min":51,"x_max":1031,"o":"m 411 260 l 608 260 q 650 274 639 260 q 661 315 661 288 l 661 507 q 673 545 661 533 q 711 557 685 557 l 981 557 q 1019 545 1007 557 q 1031 507 1031 533 l 1031 357 q 1019 319 1031 331 q 981 307 1007 307 l 949 307 l 949 244 q 885 67 949 133 q 700 0 821 0 l 314 0 q 119 67 186 0 q 51 244 51 133 l 51 356 q 101 508 51 453 q 226 571 151 564 q 163 629 181 590 q 144 721 144 668 l 144 788 q 208 940 144 879 q 411 1000 271 1000 l 704 1000 q 742 988 731 1000 q 754 950 754 976 l 754 790 q 742 752 754 764 q 704 740 731 740 l 501 740 q 458 728 468 740 q 449 699 449 715 l 449 669 q 458 640 449 653 q 501 628 468 628 l 522 628 q 560 616 549 628 q 572 578 572 604 l 572 435 q 560 397 572 408 q 522 385 549 385 l 411 385 q 368 373 378 385 q 358 344 358 361 l 358 301 q 368 272 358 285 q 411 260 378 260 z "},"":{"ha":878,"x_min":51,"x_max":810,"o":"m 651 -75 q 640 -113 651 -101 q 601 -125 628 -125 l 400 -125 q 362 -113 374 -125 q 350 -75 350 -101 l 350 0 l 321 0 q 119 59 188 0 q 51 206 51 118 l 51 356 q 101 508 51 453 q 226 571 151 564 q 163 629 181 590 q 144 721 144 668 l 144 788 q 193 926 144 868 q 350 996 242 983 l 350 1075 q 362 1113 350 1101 q 400 1125 374 1125 l 601 1125 q 640 1113 628 1125 q 651 1075 651 1101 l 651 1000 l 760 1000 q 798 988 786 1000 q 810 950 810 976 l 810 788 q 798 749 810 761 q 760 738 786 738 l 501 738 q 458 725 468 738 q 449 696 449 713 l 449 672 q 458 643 449 656 q 501 631 468 631 l 647 631 q 685 619 674 631 q 697 581 697 607 l 697 432 q 685 394 697 406 q 647 382 674 382 l 411 382 q 368 370 378 382 q 358 342 358 358 l 358 304 q 368 275 358 288 q 411 263 378 263 l 760 263 q 798 251 786 263 q 810 213 810 239 l 810 50 q 798 12 810 24 q 760 0 786 0 l 651 0 l 651 -75 z "},"§":{"ha":903,"x_min":72,"x_max":847,"o":"m 506 0 l 136 0 q 98 12 110 0 q 86 50 86 24 l 86 163 q 98 201 86 189 q 136 213 110 213 l 460 213 q 529 234 514 213 q 544 282 544 256 l 544 285 l 414 285 q 145 364 218 285 q 72 568 72 443 l 72 715 q 145 921 72 842 q 414 1000 218 1000 l 747 1000 q 785 988 774 1000 q 797 950 797 976 l 797 838 q 785 799 797 811 q 747 788 774 788 l 460 788 q 390 766 406 788 q 375 718 375 744 l 375 715 l 506 715 q 774 636 701 715 q 847 432 847 557 l 847 285 q 774 79 847 158 q 506 0 701 0 m 460 453 l 544 453 l 544 481 q 529 528 544 510 q 460 547 514 547 l 375 547 l 375 519 q 390 472 375 490 q 460 453 406 453 z "},"¶":{"ha":947,"x_min":49,"x_max":851,"o":"m 471 0 l 311 0 q 273 12 285 0 q 261 50 261 24 l 261 290 q 94 382 140 313 q 49 551 49 451 l 49 729 q 118 925 49 850 q 376 1000 188 1000 l 801 1000 q 840 988 828 1000 q 851 950 851 976 l 851 50 q 840 12 851 24 q 801 0 828 0 l 642 0 q 603 12 615 0 q 592 50 592 24 l 592 281 l 521 281 l 521 50 q 509 12 521 24 q 471 0 497 0 z "},"·":{"ha":506,"x_min":63,"x_max":443,"o":"m 393 306 l 113 306 q 74 317 86 306 q 63 356 63 329 l 63 638 q 74 676 63 664 q 113 688 86 688 l 393 688 q 431 676 419 688 q 443 638 443 664 l 443 356 q 431 317 443 329 q 393 306 419 306 z "},"•":{"ha":615,"x_min":63,"x_max":553,"o":"m 503 257 l 113 257 q 74 269 86 257 q 63 307 63 281 l 63 699 q 74 737 63 725 q 113 749 86 749 l 503 749 q 541 737 529 749 q 553 699 553 725 l 553 307 q 541 269 553 281 q 503 257 529 257 z "},"′":{"ha":494,"x_min":74,"x_max":433,"o":"m 333 479 l 133 479 q 86 490 99 479 q 75 536 74 501 l 92 943 q 103 989 93 978 q 147 1000 113 1000 l 376 1000 q 422 989 410 1000 q 431 943 433 978 l 392 536 q 378 490 389 501 q 333 479 368 479 z "},"″":{"ha":925,"x_min":74,"x_max":864,"o":"m 764 479 l 564 479 q 517 490 529 479 q 506 536 504 501 l 522 943 q 533 989 524 978 q 578 1000 543 1000 l 807 1000 q 852 989 840 1000 q 861 943 864 978 l 822 536 q 809 490 819 501 q 764 479 799 479 m 333 479 l 133 479 q 86 490 99 479 q 75 536 74 501 l 92 943 q 103 989 93 978 q 147 1000 113 1000 l 376 1000 q 422 989 410 1000 q 431 943 433 978 l 392 536 q 378 490 389 501 q 333 479 368 479 z "},"+":{"ha":1019,"x_min":97,"x_max":922,"o":"m 646 138 q 634 99 646 111 q 596 88 622 88 l 424 88 q 385 99 397 88 q 374 138 374 111 l 374 371 l 147 371 q 109 383 121 371 q 97 421 97 394 l 97 579 q 109 617 97 606 q 147 629 121 629 l 374 629 l 374 863 q 385 901 374 889 q 424 913 397 913 l 596 913 q 634 901 622 913 q 646 863 646 889 l 646 629 l 872 629 q 910 617 899 629 q 922 579 922 606 l 922 421 q 910 383 922 394 q 872 371 899 371 l 646 371 l 646 138 z "},"−":{"ha":1019,"x_min":97,"x_max":922,"o":"m 147 371 q 109 383 121 371 q 97 421 97 394 l 97 579 q 109 617 97 606 q 147 629 121 629 l 872 629 q 910 617 899 629 q 922 579 922 606 l 922 421 q 910 383 922 394 q 872 371 899 371 l 147 371 z "},"±":{"ha":1019,"x_min":97,"x_max":922,"o":"m 646 224 q 634 185 646 197 q 596 174 622 174 l 424 174 q 385 185 397 174 q 374 224 374 197 l 374 457 l 147 457 q 109 469 121 457 q 97 507 97 481 l 97 665 q 109 703 97 692 q 147 715 121 715 l 374 715 l 374 949 q 385 987 374 975 q 424 999 397 999 l 596 999 q 634 987 622 999 q 646 949 646 975 l 646 715 l 872 715 q 910 703 899 715 q 922 665 922 692 l 922 507 q 910 469 922 481 q 872 457 899 457 l 646 457 l 646 224 m 147 1 q 109 13 121 1 q 97 51 97 25 l 97 210 q 109 248 97 236 q 147 260 121 260 l 872 260 q 910 248 899 260 q 922 210 922 236 l 922 51 q 910 13 922 25 q 872 1 899 1 l 147 1 z "},"÷":{"ha":1019,"x_min":97,"x_max":922,"o":"m 622 671 l 397 671 q 359 683 371 671 q 347 721 347 694 l 347 892 q 359 930 347 918 q 397 942 371 942 l 622 942 q 660 930 649 942 q 672 892 672 918 l 672 721 q 660 683 672 694 q 622 671 649 671 m 147 385 q 109 397 121 385 q 97 435 97 408 l 97 565 q 109 603 97 592 q 147 615 121 615 l 872 615 q 910 603 899 615 q 922 565 922 592 l 922 435 q 910 397 922 408 q 872 385 899 385 l 147 385 m 622 58 l 397 58 q 359 70 371 58 q 347 108 347 82 l 347 279 q 359 317 347 306 q 397 329 371 329 l 622 329 q 660 317 649 329 q 672 279 672 306 l 672 108 q 660 70 672 82 q 622 58 649 58 z "},"×":{"ha":1019,"x_min":115,"x_max":904,"o":"m 774 125 q 738 106 754 106 q 703 125 721 107 l 510 318 l 317 125 q 282 106 299 107 q 246 125 265 106 l 135 236 q 117 272 117 254 q 135 307 117 289 l 328 500 l 135 693 q 116 728 117 711 q 135 764 115 744 l 246 875 q 281 893 264 893 q 317 875 299 893 l 510 682 l 703 875 q 738 894 721 893 q 774 875 754 894 l 885 764 q 903 728 904 744 q 885 693 903 711 l 692 500 l 885 307 q 903 272 903 289 q 885 236 904 256 l 774 125 z "},"=":{"ha":1019,"x_min":97,"x_max":922,"o":"m 147 579 q 109 591 121 579 q 97 629 97 603 l 97 788 q 109 826 97 814 q 147 838 121 838 l 872 838 q 910 826 899 838 q 922 788 922 814 l 922 629 q 910 591 922 603 q 872 579 899 579 l 147 579 m 147 163 q 109 174 121 163 q 97 213 97 186 l 97 371 q 109 409 97 397 q 147 421 121 421 l 872 421 q 910 409 899 421 q 922 371 922 397 l 922 213 q 910 174 922 186 q 872 163 899 163 l 147 163 z "},"<":{"ha":992,"x_min":111,"x_max":867,"o":"m 817 82 l 288 233 q 156 302 201 258 q 111 449 111 346 l 111 549 q 156 695 111 651 q 288 764 201 739 l 817 915 q 855 910 843 921 q 867 872 867 899 l 867 689 q 855 649 867 663 q 817 632 843 636 l 418 525 q 399 517 404 522 q 394 499 394 511 q 399 481 394 486 q 418 472 404 475 l 817 365 q 855 348 843 361 q 867 308 867 335 l 867 125 q 855 88 867 99 q 817 82 843 76 z "},">":{"ha":992,"x_min":125,"x_max":881,"o":"m 704 233 l 175 82 q 137 88 149 76 q 125 125 125 99 l 125 308 q 137 348 125 335 q 175 365 149 361 l 574 472 q 592 481 588 475 q 597 499 597 486 q 592 517 597 511 q 574 525 588 522 l 175 632 q 137 649 149 636 q 125 689 125 663 l 125 872 q 137 910 125 899 q 175 915 149 921 l 704 764 q 835 695 790 739 q 881 549 881 651 l 881 449 q 835 302 881 346 q 704 233 790 258 z "},"≤":{"ha":992,"x_min":111,"x_max":867,"o":"m 817 0 l 161 0 q 123 12 135 0 q 111 50 111 24 l 111 208 q 123 247 111 235 q 161 258 135 258 l 540 258 l 288 331 q 156 399 201 356 q 111 546 111 443 l 111 646 q 156 792 111 749 q 288 861 201 836 l 817 1013 q 855 1007 843 1018 q 867 969 867 996 l 867 786 q 855 747 867 760 q 817 729 843 733 l 418 622 q 399 614 404 619 q 394 596 394 608 q 399 578 394 583 q 418 569 404 572 l 817 463 q 855 445 843 458 q 867 406 867 432 l 867 50 q 855 12 867 24 q 817 0 843 0 z "},"≥":{"ha":992,"x_min":125,"x_max":881,"o":"m 831 0 l 175 0 q 137 12 149 0 q 125 50 125 24 l 125 406 q 137 445 125 432 q 175 463 149 458 l 574 569 q 592 578 588 572 q 597 596 597 583 q 592 614 597 608 q 574 622 588 619 l 175 729 q 137 747 149 733 q 125 786 125 760 l 125 969 q 137 1007 125 996 q 175 1013 149 1018 l 704 861 q 835 792 790 836 q 881 646 881 749 l 881 546 q 835 399 881 443 q 704 331 790 356 l 451 258 l 831 258 q 869 247 857 258 q 881 208 881 235 l 881 50 q 869 12 881 24 q 831 0 857 0 z "},"≈":{"ha":1019,"x_min":97,"x_max":922,"o":"m 510 586 l 454 593 q 361 604 399 601 q 294 604 324 607 q 235 594 264 601 q 168 575 207 588 q 115 576 133 565 q 97 610 97 586 l 97 757 q 113 808 97 793 q 149 831 128 824 q 238 857 201 849 q 307 866 274 865 q 378 861 340 867 q 476 847 417 856 l 510 843 l 553 838 q 656 824 618 828 q 723 823 694 821 q 779 833 751 825 q 850 853 807 840 q 904 851 886 863 q 922 810 922 840 l 922 672 q 906 621 922 636 q 871 599 889 606 q 781 572 818 581 q 711 563 744 564 q 639 568 678 563 q 542 582 600 574 l 510 586 m 510 183 l 454 190 q 361 201 399 199 q 294 201 324 204 q 235 192 264 199 q 168 172 207 185 q 115 173 133 163 q 97 207 97 183 l 97 354 q 113 406 97 390 q 149 428 128 421 q 238 454 201 446 q 307 463 274 463 q 378 458 340 464 q 476 444 417 453 l 510 440 l 553 435 q 656 422 618 425 q 723 420 694 418 q 779 430 751 422 q 850 450 807 438 q 904 449 886 460 q 922 407 922 438 l 922 269 q 906 218 922 233 q 871 196 889 203 q 781 169 818 178 q 711 160 744 161 q 639 165 678 160 q 542 179 600 171 l 510 183 z "},"≠":{"ha":1019,"x_min":97,"x_max":922,"o":"m 578 92 q 565 53 575 65 q 528 42 554 42 l 354 42 q 315 53 328 42 q 304 92 301 65 l 317 163 l 147 163 q 109 174 121 163 q 97 213 97 186 l 97 371 q 109 409 97 397 q 147 421 121 421 l 360 421 l 388 579 l 147 579 q 109 591 121 579 q 97 629 97 603 l 97 788 q 109 826 97 814 q 147 838 121 838 l 431 838 l 443 908 q 457 947 447 935 q 493 958 467 958 l 667 958 q 707 947 693 958 q 717 908 721 935 l 704 838 l 872 838 q 910 826 899 838 q 922 788 922 814 l 922 629 q 910 591 922 603 q 872 579 899 579 l 661 579 l 633 421 l 872 421 q 910 409 899 421 q 922 371 922 397 l 922 213 q 910 174 922 186 q 872 163 899 163 l 590 163 l 578 92 z "},"¬":{"ha":1019,"x_min":97,"x_max":922,"o":"m 872 88 l 700 88 q 662 99 674 88 q 650 138 650 111 l 650 426 l 147 426 q 109 438 121 426 q 97 476 97 450 l 97 635 q 109 673 97 661 q 147 685 121 685 l 872 685 q 910 673 899 685 q 922 635 922 661 l 922 138 q 910 99 922 111 q 872 88 899 88 z "},"^":{"ha":992,"x_min":50,"x_max":893,"o":"m 56 289 l 206 818 q 274 950 231 904 q 421 996 318 996 l 522 996 q 668 950 625 996 q 738 818 711 904 l 888 289 q 883 251 893 263 q 846 239 872 239 l 663 238 q 622 248 636 236 q 606 286 608 260 l 497 688 q 490 707 494 701 q 472 711 485 713 q 453 707 458 713 q 446 688 449 701 l 338 286 q 321 248 335 260 q 281 238 307 236 l 97 239 q 60 251 71 239 q 56 289 50 263 z "},"~":{"ha":1019,"x_min":97,"x_max":922,"o":"m 510 385 l 454 392 q 361 403 399 400 q 294 403 324 406 q 235 393 264 400 q 168 374 207 386 q 115 374 133 364 q 97 408 97 385 l 97 556 q 113 607 97 592 q 149 629 128 622 q 238 656 201 647 q 307 665 274 664 q 378 660 340 665 q 476 646 417 654 l 510 642 l 553 636 q 656 623 618 626 q 723 622 694 619 q 779 631 751 624 q 850 651 807 639 q 904 650 886 661 q 922 608 922 639 l 922 471 q 906 419 922 435 q 871 397 889 404 q 781 371 818 379 q 711 362 744 363 q 639 367 678 361 q 542 381 600 372 l 510 385 z "},"∂":{"ha":961,"x_min":65,"x_max":882,"o":"m 476 -24 q 273 -3 353 -24 q 147 55 193 18 q 83 144 101 92 q 65 260 65 196 l 65 386 q 79 490 65 443 q 129 572 93 538 q 229 624 165 606 q 392 643 293 643 q 492 636 449 643 q 568 617 536 629 l 568 649 q 551 714 568 696 q 481 732 535 732 l 219 732 q 181 744 193 732 q 169 782 169 756 l 169 950 q 181 988 169 976 q 219 1000 193 1000 l 540 1000 q 809 917 736 1000 q 882 701 882 835 l 882 260 q 865 144 882 196 q 803 55 849 92 q 679 -3 758 18 q 476 -24 600 -24 m 568 282 l 568 364 q 551 399 568 385 q 475 414 535 414 q 396 399 413 414 q 379 364 379 385 l 379 282 q 396 245 379 260 q 475 231 413 231 q 551 245 535 231 q 568 282 568 260 z "},"∏":{"ha":1054,"x_min":96,"x_max":958,"o":"m 908 0 l 693 0 q 655 12 667 0 q 643 50 643 24 l 643 735 l 411 735 l 411 50 q 399 12 411 24 q 361 0 388 0 l 146 0 q 108 12 119 0 q 96 50 96 24 l 96 950 q 108 988 96 976 q 146 1000 119 1000 l 908 1000 q 947 988 935 1000 q 958 950 958 976 l 958 50 q 947 12 958 24 q 908 0 935 0 z "},"∑":{"ha":903,"x_min":64,"x_max":839,"o":"m 467 732 l 658 551 q 678 524 674 536 q 682 489 682 511 l 682 417 q 677 381 682 394 q 658 353 672 368 l 443 140 l 789 140 q 827 128 815 140 q 839 90 839 117 l 839 -75 q 827 -113 839 -101 q 789 -125 815 -125 l 114 -125 q 76 -113 88 -125 q 64 -75 64 -101 l 64 104 q 72 151 64 131 q 99 190 81 171 l 353 439 l 124 649 q 97 688 106 668 q 89 736 89 708 l 89 950 q 101 988 89 976 q 139 1000 113 1000 l 764 1000 q 802 988 790 1000 q 814 950 814 976 l 814 782 q 802 744 814 756 q 764 732 790 732 l 467 732 z "},"∆":{"ha":1014,"x_min":75,"x_max":939,"o":"m 889 0 l 125 0 q 87 12 99 0 q 75 50 75 24 l 75 236 q 88 358 75 297 q 115 472 101 418 l 236 943 q 269 987 250 974 q 322 1000 288 1000 l 693 1000 q 747 987 728 1000 q 778 943 765 974 l 899 472 q 926 358 913 418 q 939 236 939 297 l 939 50 q 927 12 939 24 q 889 0 915 0 m 378 292 l 378 263 l 625 263 l 625 292 q 622 326 625 306 q 614 363 618 346 l 540 700 q 530 719 535 714 q 514 724 525 724 l 490 724 q 474 719 479 724 q 464 700 469 714 l 389 363 q 381 326 385 346 q 378 292 378 306 z "},"Ω":{"ha":1079,"x_min":50,"x_max":1031,"o":"m 503 50 q 491 12 503 24 q 453 0 479 0 l 100 0 q 62 12 74 0 q 50 50 50 24 l 50 213 q 62 251 50 239 q 100 263 74 263 l 154 263 q 119 339 129 297 q 108 429 108 381 l 108 736 q 127 852 108 800 q 194 942 146 904 q 326 1000 242 979 q 540 1021 411 1021 q 754 1000 669 1021 q 887 942 839 979 q 953 852 935 904 q 972 736 972 800 l 972 429 q 962 339 972 381 q 926 263 951 297 l 981 263 q 1019 251 1007 263 q 1031 213 1031 239 l 1031 50 q 1019 12 1031 24 q 981 0 1007 0 l 628 0 q 590 12 601 0 q 578 50 578 24 l 578 208 q 587 240 578 231 q 615 256 596 249 q 649 279 640 265 q 657 313 657 293 l 657 686 q 636 731 657 713 q 540 750 615 750 q 444 731 465 750 q 424 686 424 713 l 424 313 q 432 279 424 293 q 465 256 440 265 q 494 240 485 249 q 503 208 503 231 l 503 50 z "},"π":{"ha":1001,"x_min":85,"x_max":917,"o":"m 867 0 l 651 0 q 613 12 625 0 q 601 50 601 24 l 601 529 l 400 529 l 400 50 q 388 12 400 24 q 350 0 376 0 l 135 0 q 97 12 108 0 q 85 50 85 24 l 85 742 q 97 780 85 768 q 135 792 108 792 l 867 792 q 905 780 893 792 q 917 742 917 768 l 917 50 q 905 12 917 24 q 867 0 893 0 z "},"µ":{"ha":990,"x_min":85,"x_max":913,"o":"m 400 -75 q 388 -113 400 -101 q 350 -125 376 -125 l 135 -125 q 97 -113 108 -125 q 85 -75 85 -101 l 85 742 q 97 780 85 768 q 135 792 108 792 l 350 792 q 388 780 376 792 q 400 742 400 768 l 400 303 q 418 256 400 275 q 500 238 436 238 q 583 256 564 238 q 601 303 601 275 l 601 742 q 613 780 601 768 q 651 792 625 792 l 863 792 q 901 780 889 792 q 913 742 913 768 l 913 263 q 896 147 913 199 q 835 58 879 94 q 717 0 792 21 q 525 -21 642 -21 q 458 -18 490 -21 q 400 -10 426 -15 l 400 -75 z "},"√":{"ha":1029,"x_min":40,"x_max":1019,"o":"m 90 414 q 52 426 64 414 q 40 464 40 438 l 40 640 q 52 678 40 667 q 90 690 64 690 l 343 690 q 381 677 369 690 q 401 640 392 664 l 499 358 q 509 340 504 344 q 526 335 514 335 l 533 335 q 552 340 546 335 q 561 358 558 344 l 718 1075 q 737 1113 724 1100 q 776 1125 750 1125 l 971 1125 q 1008 1113 997 1125 q 1013 1075 1019 1100 l 765 46 q 738 10 754 21 q 694 0 721 0 l 388 0 q 345 10 361 0 q 318 46 329 21 l 178 414 l 90 414 z "},"∞":{"ha":1219,"x_min":63,"x_max":1157,"o":"m 856 142 q 690 162 753 142 q 596 217 628 182 q 512 165 567 183 q 367 146 457 146 q 216 163 275 146 q 123 210 157 179 q 76 283 89 240 q 63 378 63 326 l 63 650 q 76 744 63 701 q 123 818 89 788 q 216 865 157 849 q 367 882 275 882 q 526 863 465 882 q 619 811 588 844 q 706 866 649 846 q 856 886 763 886 q 1005 869 946 886 q 1097 822 1064 853 q 1144 749 1131 792 q 1157 654 1157 706 l 1157 374 q 1144 279 1157 322 q 1097 206 1131 236 q 1005 158 1064 175 q 856 142 946 142 m 817 663 q 739 643 756 663 q 731 564 722 624 l 744 447 q 763 383 750 400 q 817 365 775 365 q 883 381 869 365 q 897 422 897 397 l 897 606 q 883 646 897 629 q 817 663 869 663 m 406 368 q 483 388 467 368 q 492 468 500 408 l 478 578 q 460 642 472 625 q 406 658 447 658 q 339 642 353 658 q 325 601 325 626 l 325 426 q 339 385 325 403 q 406 368 353 368 z "},"◊":{"ha":1015,"x_min":96,"x_max":918,"o":"m 347 1000 l 668 1000 q 710 990 694 1000 q 738 954 726 979 l 899 596 q 915 553 911 568 q 918 515 918 538 l 918 483 q 915 446 918 461 q 899 403 911 431 l 738 46 q 710 10 726 21 q 667 0 693 0 l 346 0 q 303 10 319 0 q 276 46 288 21 l 115 403 q 99 446 103 431 q 96 483 96 461 l 96 515 q 99 553 96 538 q 115 596 103 568 l 276 954 q 304 990 288 979 q 347 1000 321 1000 m 618 499 l 538 694 q 527 713 532 708 q 510 718 522 718 l 503 718 q 485 713 490 718 q 475 694 481 708 l 394 501 l 475 306 q 485 287 481 292 q 503 282 490 282 l 510 282 q 527 287 522 282 q 538 306 532 292 l 618 499 z "},"∫":{"ha":658,"x_min":21,"x_max":638,"o":"m 171 840 q 244 1046 171 967 q 513 1125 317 1125 l 588 1125 q 626 1113 614 1125 q 638 1075 638 1101 l 638 907 q 626 869 638 881 q 588 857 614 857 l 544 857 q 498 835 508 857 q 488 788 488 814 l 488 160 q 415 -46 488 33 q 146 -125 342 -125 l 71 -125 q 33 -113 44 -125 q 21 -75 21 -101 l 21 93 q 33 131 21 119 q 71 143 44 143 l 114 143 q 160 165 150 143 q 171 213 171 186 l 171 840 z "},"$":{"ha":903,"x_min":71,"x_max":847,"o":"m 563 -125 l 361 -125 q 323 -113 335 -125 q 311 -75 311 -101 l 311 0 l 121 0 q 83 12 94 0 q 71 50 71 24 l 71 213 q 83 251 71 239 q 121 263 94 263 l 494 263 q 522 274 513 263 q 531 303 531 286 q 522 338 531 326 q 494 350 513 349 l 286 379 q 130 443 189 393 q 71 610 71 493 l 71 756 q 135 926 71 864 q 311 997 199 988 l 311 1075 q 323 1113 311 1101 q 361 1125 335 1125 l 563 1125 q 601 1113 589 1125 q 613 1075 613 1101 l 613 1000 l 747 1000 q 785 988 774 1000 q 797 950 797 976 l 797 785 q 785 747 797 758 q 747 735 774 735 l 424 735 q 396 723 406 735 q 386 693 386 711 q 396 663 386 675 q 424 649 406 650 l 631 621 q 788 557 728 607 q 847 390 847 507 l 847 244 q 785 76 847 139 q 613 3 722 14 l 613 -75 q 601 -113 613 -101 q 563 -125 589 -125 z "},"¢":{"ha":872,"x_min":81,"x_max":811,"o":"m 654 -19 q 642 -58 654 -46 q 604 -69 631 -69 l 403 -69 q 365 -58 376 -69 q 353 -19 353 -46 l 353 58 q 140 149 199 72 q 81 339 81 225 l 81 660 q 140 851 81 774 q 353 942 199 928 l 353 1019 q 365 1058 353 1046 q 403 1069 376 1069 l 604 1069 q 642 1058 631 1069 q 654 1019 654 1046 l 654 944 l 761 944 q 799 933 788 944 q 811 894 811 921 l 811 726 q 799 688 811 700 q 761 676 788 676 l 482 676 q 413 655 428 676 q 397 607 397 633 l 397 388 q 413 340 397 358 q 482 321 428 321 l 761 321 q 799 309 788 321 q 811 271 811 297 l 811 106 q 799 67 811 79 q 761 56 788 56 l 654 56 l 654 -19 z "},"£":{"ha":965,"x_min":28,"x_max":903,"o":"m 903 50 q 891 12 903 24 q 853 0 879 0 l 146 0 q 108 12 119 0 q 96 50 96 24 l 96 368 l 78 368 q 40 380 51 368 q 28 418 28 392 l 28 567 q 40 605 28 593 q 78 617 51 617 l 96 617 l 96 717 q 169 921 96 842 q 438 1000 242 1000 l 701 1000 q 740 988 728 1000 q 751 950 751 976 l 751 782 q 740 744 751 756 q 701 732 728 732 l 496 732 q 426 710 442 732 q 411 663 411 689 l 411 617 l 478 617 q 516 605 504 617 q 528 567 528 593 l 528 418 q 516 380 528 392 q 478 368 504 368 l 411 368 l 411 263 l 601 263 l 601 404 q 613 442 601 431 q 651 454 625 454 l 853 454 q 891 442 879 454 q 903 404 903 431 l 903 50 z "},"¤":{"ha":1140,"x_min":64,"x_max":1078,"o":"m 463 401 q 483 357 463 375 q 574 339 503 339 q 665 357 644 339 q 685 401 685 375 l 685 597 q 665 641 685 624 q 574 658 644 658 q 483 641 503 658 q 463 597 463 624 l 463 401 m 256 11 q 223 -7 239 -7 q 188 11 207 -7 l 82 117 q 64 151 64 135 q 82 185 64 168 l 213 315 q 210 338 211 325 q 210 361 210 350 l 210 638 q 210 662 210 650 q 213 685 211 674 l 82 815 q 64 848 64 832 q 82 882 64 864 l 188 988 q 222 1006 206 1006 q 256 988 239 1006 l 374 869 q 461 888 411 882 q 574 894 511 894 q 683 888 635 894 q 769 871 732 882 l 886 988 q 919 1006 903 1006 q 953 988 935 1007 l 1058 882 q 1077 848 1078 864 q 1058 815 1076 832 l 933 690 q 935 665 935 678 q 936 638 936 651 l 936 361 q 935 335 936 347 q 933 310 935 322 l 1058 185 q 1077 152 1076 168 q 1058 117 1078 136 l 953 11 q 919 -7 935 -7 q 886 11 903 -7 l 769 128 q 683 112 732 118 q 574 106 633 106 q 462 112 511 106 q 374 129 413 118 l 256 11 z "},"¥":{"ha":976,"x_min":61,"x_max":915,"o":"m 644 50 q 633 12 644 24 q 594 0 621 0 l 383 0 q 345 12 357 0 q 333 50 333 24 l 333 181 l 182 181 q 144 192 156 181 q 132 231 132 204 l 132 365 q 144 403 132 392 q 182 415 156 415 l 256 415 l 101 614 q 66 697 71 653 q 61 794 61 742 l 61 950 q 73 988 61 976 q 111 1000 85 1000 l 326 1000 q 365 988 353 1000 q 376 950 376 976 l 376 750 q 378 722 376 736 q 388 693 381 708 l 451 603 q 468 585 460 592 q 488 579 476 579 l 504 579 q 524 585 515 579 q 540 603 532 590 l 600 692 q 610 720 610 706 q 611 749 611 735 l 611 950 q 623 988 611 976 q 661 1000 635 1000 l 865 1000 q 903 988 892 1000 q 915 950 915 976 l 915 793 q 910 696 915 740 q 875 613 904 651 l 722 415 l 796 415 q 834 403 822 415 q 846 365 846 392 l 846 231 q 834 192 846 204 q 796 181 822 181 l 644 181 l 644 50 z "},"€":{"ha":900,"x_min":56,"x_max":839,"o":"m 839 50 q 827 12 839 24 q 789 0 815 0 l 450 0 q 181 79 254 0 q 108 283 108 158 l 108 304 l 89 304 q 63 310 71 304 q 56 336 56 317 l 56 436 q 63 463 56 456 q 89 469 71 469 l 108 469 l 108 526 l 89 526 q 63 533 71 526 q 56 558 56 539 l 56 658 q 63 685 56 678 q 89 692 71 692 l 108 692 l 108 715 q 181 921 108 842 q 450 1000 254 1000 l 789 1000 q 827 988 815 1000 q 839 950 839 976 l 839 796 q 827 758 839 769 q 789 746 815 746 l 496 746 q 433 730 450 746 q 413 692 415 714 l 661 692 q 687 685 679 692 q 694 658 694 678 l 694 558 q 687 533 694 539 q 661 526 679 526 l 411 526 l 411 469 l 661 469 q 687 463 679 469 q 694 436 694 456 l 694 336 q 687 310 694 317 q 661 304 679 304 l 411 304 q 431 266 414 281 q 496 251 449 251 l 789 251 q 827 240 815 251 q 839 201 839 228 l 839 50 z "},"ƒ":{"ha":797,"x_min":63,"x_max":735,"o":"m 557 285 q 484 79 557 158 q 215 0 411 0 l 113 0 q 74 12 86 0 q 63 50 63 24 l 63 218 q 74 256 63 244 q 113 268 86 268 l 183 268 q 230 290 219 268 q 240 338 240 311 l 240 375 l 113 375 q 74 387 86 375 q 63 425 63 399 l 63 574 q 74 612 63 600 q 113 624 86 624 l 240 624 l 240 715 q 313 921 240 842 q 582 1000 386 1000 l 685 1000 q 723 988 711 1000 q 735 950 735 976 l 735 782 q 723 744 735 756 q 685 732 711 732 l 614 732 q 567 710 578 732 q 557 663 557 689 l 557 624 l 685 624 q 723 612 711 624 q 735 574 735 600 l 735 425 q 723 387 735 399 q 685 375 711 375 l 557 375 l 557 285 z "},"®":{"ha":778,"x_min":78,"x_max":700,"o":"m 700 479 q 687 397 700 435 q 639 332 674 358 q 544 290 604 306 q 389 275 483 275 q 235 290 296 275 q 140 332 175 306 q 92 397 106 358 q 78 479 78 435 l 78 821 q 92 905 78 867 q 140 970 106 943 q 235 1013 175 997 q 389 1028 296 1028 q 544 1013 483 1028 q 639 970 604 997 q 687 905 674 943 q 700 821 700 867 l 700 479 m 617 476 l 617 825 q 572 913 617 879 q 389 947 526 947 q 206 913 251 947 q 161 825 161 879 l 161 476 q 206 389 161 422 q 389 356 251 356 q 572 389 526 356 q 617 476 617 422 m 344 761 l 344 688 l 388 688 q 408 695 403 688 q 413 715 413 703 l 413 733 q 408 753 413 744 q 388 761 403 761 l 344 761 m 325 453 l 238 453 q 222 458 226 453 q 217 474 217 464 l 217 842 q 222 858 217 853 q 238 863 226 863 l 426 863 q 515 837 490 863 q 539 768 539 811 l 539 742 q 531 701 539 718 q 506 678 524 685 q 556 651 536 674 q 575 594 575 629 l 575 474 q 570 458 575 464 q 556 453 565 453 l 467 453 q 451 458 457 453 q 446 474 446 464 l 446 565 q 441 583 446 578 q 425 589 436 589 l 344 589 l 344 474 q 340 458 344 464 q 325 453 335 453 z "},"™":{"ha":1254,"x_min":22,"x_max":1186,"o":"m 339 399 l 207 399 q 181 408 189 399 q 172 435 172 417 l 172 829 l 58 829 q 31 838 39 829 q 22 865 22 847 l 22 964 q 31 991 22 982 q 58 1000 39 1000 l 489 1000 q 517 991 507 1000 q 526 964 526 982 l 526 865 q 517 838 526 847 q 489 829 507 829 l 376 829 l 376 435 q 367 408 376 417 q 339 399 357 399 m 751 399 l 628 399 q 601 408 610 399 q 592 435 592 417 l 592 964 q 601 991 592 982 q 628 1000 610 1000 l 758 1000 q 784 993 774 1000 q 803 972 794 986 q 840 905 821 940 q 876 839 858 869 q 881 831 879 833 q 886 829 883 829 l 893 829 q 897 833 894 829 q 901 839 900 836 q 938 906 918 869 q 974 972 958 942 q 992 993 982 986 q 1018 1000 1003 1000 l 1150 1000 q 1177 991 1168 1000 q 1186 964 1186 982 l 1186 435 q 1177 408 1186 417 q 1150 399 1168 399 l 1018 399 q 990 408 999 399 q 982 435 982 417 l 982 699 l 946 631 q 926 608 938 615 q 897 600 914 600 l 871 600 q 842 608 854 600 q 824 631 831 615 l 788 699 l 788 435 q 778 408 788 417 q 751 399 769 399 z "},"°":{"ha":671,"x_min":63,"x_max":608,"o":"m 608 590 q 597 524 608 554 q 554 474 585 494 q 471 441 524 453 q 336 429 418 429 q 201 441 254 429 q 117 474 147 453 q 74 524 86 494 q 63 590 63 554 l 63 846 q 74 912 63 882 q 117 963 86 942 q 201 995 147 983 q 336 1007 254 1007 q 471 995 418 1007 q 554 963 524 983 q 597 912 585 942 q 608 846 608 882 l 608 590 m 267 658 q 280 631 267 642 q 336 621 293 621 q 392 631 379 621 q 406 658 406 642 l 406 776 q 394 803 406 792 q 336 815 382 815 q 280 803 293 815 q 267 776 267 792 l 267 658 z "},"©":{"ha":1204,"x_min":83,"x_max":1121,"o":"m 1121 214 q 1099 76 1121 139 q 1019 -32 1076 13 q 860 -101 961 -76 q 603 -126 758 -126 q 346 -101 447 -126 q 187 -32 244 -76 q 106 76 129 13 q 83 214 83 139 l 83 783 q 106 923 83 860 q 187 1031 129 986 q 346 1101 244 1076 q 603 1126 447 1126 q 860 1101 758 1126 q 1019 1031 961 1076 q 1099 923 1076 986 q 1121 783 1121 860 l 1121 214 m 982 208 l 982 789 q 965 872 982 833 q 907 936 949 910 q 791 978 865 963 q 603 993 717 993 q 415 978 489 993 q 298 936 340 963 q 239 872 256 910 q 222 789 222 833 l 222 208 q 239 126 222 164 q 298 63 256 89 q 415 22 340 36 q 603 7 489 7 q 791 22 717 7 q 907 63 865 36 q 965 126 949 89 q 982 208 982 164 m 818 153 l 575 153 q 383 209 435 153 q 331 356 331 265 l 331 665 q 383 813 331 757 q 575 869 435 869 l 818 869 q 845 860 836 869 q 854 833 854 851 l 854 713 q 845 686 854 694 q 818 678 836 678 l 618 678 q 568 662 579 678 q 557 628 557 646 l 557 390 q 568 356 557 369 q 618 343 579 343 l 818 343 q 845 334 836 343 q 854 307 854 325 l 854 189 q 845 162 854 171 q 818 153 836 153 z "},"℗":{"ha":1204,"x_min":83,"x_max":1121,"o":"m 1121 214 q 1099 76 1121 139 q 1019 -32 1076 13 q 860 -101 961 -76 q 603 -126 758 -126 q 346 -101 447 -126 q 187 -32 244 -76 q 106 76 129 13 q 83 214 83 139 l 83 783 q 106 923 83 860 q 187 1031 129 986 q 346 1101 244 1076 q 603 1126 447 1126 q 860 1101 758 1126 q 1019 1031 961 1076 q 1099 923 1076 986 q 1121 783 1121 860 l 1121 214 m 982 208 l 982 789 q 965 872 982 833 q 907 936 949 910 q 791 978 865 963 q 603 993 717 993 q 415 978 489 993 q 298 936 340 963 q 239 872 256 910 q 222 789 222 833 l 222 208 q 239 126 222 164 q 298 63 256 89 q 415 22 340 36 q 603 7 489 7 q 791 22 717 7 q 907 63 865 36 q 965 126 949 89 q 982 208 982 164 m 514 153 l 360 153 q 333 162 342 153 q 324 189 324 171 l 324 833 q 333 860 324 851 q 360 869 342 869 l 665 869 q 850 816 800 869 q 900 675 900 763 l 900 549 q 850 408 900 461 q 665 354 800 354 l 550 354 l 550 189 q 541 162 550 171 q 514 153 532 153 m 549 683 l 549 533 l 638 533 q 676 548 667 533 q 685 582 685 563 l 685 635 q 676 669 685 654 q 638 683 667 683 l 549 683 z "},"´":{"ha":694,"x_min":56,"x_max":638,"o":"m 588 1106 l 103 1046 q 67 1056 79 1043 q 56 1092 56 1068 l 56 1225 q 67 1262 56 1251 q 106 1275 79 1272 l 590 1335 q 626 1325 614 1338 q 638 1289 638 1313 l 638 1156 q 626 1119 638 1129 q 588 1106 614 1108 z "},"`":{"ha":694,"x_min":56,"x_max":638,"o":"m 590 1046 l 106 1106 q 67 1119 79 1108 q 56 1156 56 1129 l 56 1289 q 67 1325 56 1313 q 103 1335 79 1338 l 588 1275 q 626 1262 614 1272 q 638 1225 638 1251 l 638 1092 q 626 1056 638 1068 q 590 1046 614 1043 z "},"˝":{"ha":694,"x_min":-12,"x_max":676,"o":"m 354 1103 l 428 1390 q 442 1428 433 1415 q 478 1440 451 1440 l 625 1440 q 663 1428 649 1440 q 671 1393 676 1415 l 597 1106 q 583 1068 592 1081 q 547 1056 574 1056 l 400 1056 q 363 1068 376 1056 q 354 1103 349 1081 m -7 1103 l 67 1390 q 81 1428 72 1415 q 117 1440 90 1440 l 264 1440 q 301 1428 288 1440 q 310 1393 315 1415 l 236 1106 q 222 1068 231 1081 q 186 1056 213 1056 l 39 1056 q 1 1068 15 1056 q -7 1103 -12 1081 z "},"ˆ":{"ha":694,"x_min":56,"x_max":638,"o":"m 303 1107 l 113 1051 q 67 1049 78 1040 q 56 1094 56 1057 l 56 1207 q 67 1256 56 1244 q 113 1281 79 1267 l 290 1344 q 317 1353 303 1350 q 344 1357 332 1356 q 368 1356 357 1357 q 389 1350 379 1354 l 579 1281 q 626 1256 614 1267 q 638 1207 638 1244 l 638 1094 q 626 1049 638 1057 q 579 1051 615 1040 l 389 1107 q 346 1113 365 1113 q 303 1107 326 1113 z "},"ˇ":{"ha":694,"x_min":56,"x_max":638,"o":"m 390 1294 l 581 1350 q 626 1353 615 1361 q 638 1307 638 1344 l 638 1194 q 626 1146 638 1157 q 581 1121 614 1135 l 403 1057 q 376 1049 390 1051 q 349 1044 361 1046 q 325 1046 336 1044 q 304 1051 314 1047 l 114 1121 q 67 1146 79 1135 q 56 1194 56 1157 l 56 1307 q 67 1353 56 1344 q 114 1350 78 1361 l 304 1294 q 347 1289 328 1289 q 390 1294 367 1289 z "},"˘":{"ha":694,"x_min":46,"x_max":649,"o":"m 649 1246 q 635 1165 649 1201 q 588 1102 622 1128 q 496 1062 554 1076 q 347 1047 438 1047 q 199 1062 257 1047 q 106 1102 140 1076 q 59 1165 72 1128 q 46 1246 46 1201 l 46 1307 q 58 1345 46 1333 q 96 1357 69 1357 l 229 1357 q 260 1348 251 1357 q 269 1314 269 1339 l 269 1285 q 283 1252 269 1265 q 349 1239 297 1239 q 415 1252 400 1239 q 431 1285 431 1265 l 431 1314 q 440 1348 431 1339 q 472 1357 449 1357 l 599 1357 q 637 1345 625 1357 q 649 1307 649 1333 l 649 1246 z "},"˜":{"ha":694,"x_min":56,"x_max":636,"o":"m 346 1061 l 307 1067 q 242 1074 268 1072 q 194 1074 215 1076 q 153 1067 174 1072 q 106 1054 133 1063 q 68 1056 81 1047 q 56 1090 56 1064 l 56 1231 q 69 1267 56 1257 q 106 1288 82 1278 q 161 1302 139 1297 q 205 1307 183 1307 q 253 1303 226 1307 q 322 1294 281 1300 l 346 1292 l 376 1288 q 449 1278 422 1281 q 497 1276 476 1275 q 536 1283 517 1278 q 586 1299 556 1289 q 624 1297 611 1306 q 636 1263 636 1289 l 636 1122 q 623 1085 636 1096 q 586 1065 610 1075 q 531 1051 553 1056 q 486 1046 508 1046 q 437 1049 464 1046 q 368 1058 410 1053 l 346 1061 z "},"¯":{"ha":694,"x_min":56,"x_max":638,"o":"m 588 1056 l 106 1056 q 67 1067 79 1056 q 56 1106 56 1079 l 56 1235 q 67 1273 56 1261 q 106 1285 79 1285 l 588 1285 q 626 1273 614 1285 q 638 1235 638 1261 l 638 1106 q 626 1067 638 1079 q 588 1056 614 1056 z "},"¨":{"ha":694,"x_min":22,"x_max":665,"o":"m 619 1056 l 428 1056 q 393 1067 404 1056 q 382 1101 382 1078 l 382 1269 q 393 1304 382 1293 q 428 1315 404 1315 l 619 1315 q 654 1304 643 1315 q 665 1269 665 1293 l 665 1101 q 654 1067 665 1078 q 619 1056 643 1056 m 261 1056 l 69 1056 q 34 1067 46 1056 q 22 1101 22 1078 l 22 1269 q 34 1304 22 1293 q 69 1315 46 1315 l 261 1315 q 296 1304 285 1315 q 307 1269 307 1293 l 307 1101 q 296 1067 307 1078 q 261 1056 285 1056 z "},"˙":{"ha":694,"x_min":189,"x_max":508,"o":"m 458 1056 l 239 1056 q 201 1067 213 1056 q 189 1106 189 1079 l 189 1282 q 201 1320 189 1308 q 239 1332 213 1332 l 458 1332 q 497 1320 485 1332 q 508 1282 508 1308 l 508 1106 q 497 1067 508 1079 q 458 1056 485 1056 z "},"˚":{"ha":694,"x_min":46,"x_max":649,"o":"m 649 1382 l 649 1246 q 635 1165 649 1201 q 588 1102 622 1128 q 496 1062 554 1076 q 347 1047 438 1047 q 199 1062 257 1047 q 106 1102 140 1076 q 59 1165 72 1128 q 46 1246 46 1201 l 46 1382 q 59 1463 46 1426 q 106 1526 72 1500 q 199 1566 140 1551 q 347 1581 257 1581 q 496 1566 438 1581 q 588 1526 554 1551 q 635 1463 622 1500 q 649 1382 649 1426 m 431 1292 l 431 1340 q 415 1381 431 1367 q 349 1396 400 1396 q 283 1381 297 1396 q 269 1340 269 1367 l 269 1292 q 283 1247 269 1261 q 349 1232 297 1232 q 415 1247 400 1232 q 431 1292 431 1261 z "},"¸":{"ha":694,"x_min":140,"x_max":525,"o":"m 367 -175 l 192 -175 q 149 -160 157 -175 q 150 -119 140 -144 l 268 200 q 290 230 276 222 q 329 228 304 238 l 490 168 q 519 146 513 160 q 518 113 525 132 l 431 -133 q 408 -165 424 -156 q 367 -175 393 -175 z "},"˛":{"ha":694,"x_min":171,"x_max":525,"o":"m 440 93 l 418 -64 l 475 -64 q 515 -74 504 -64 q 525 -111 525 -85 l 525 -211 q 515 -248 525 -237 q 479 -258 506 -258 l 325 -258 q 203 -212 236 -258 q 185 -71 171 -167 l 214 93 l 440 93 z "},"̦":{"ha":694,"x_min":186,"x_max":508,"o":"m 335 -503 l 243 -503 q 211 -492 221 -503 q 201 -460 201 -482 l 201 -412 q 211 -381 201 -390 q 243 -371 221 -371 l 325 -371 q 349 -362 340 -371 q 357 -337 357 -353 l 357 -319 l 238 -319 q 197 -308 208 -319 q 186 -265 186 -296 l 186 -114 q 197 -72 186 -83 q 238 -60 208 -60 l 457 -60 q 497 -72 486 -60 q 508 -114 508 -83 l 508 -325 q 461 -458 508 -414 q 335 -503 414 -503 z "},"":{"ha":694,"x_min":161,"x_max":508,"o":"m 388 628 l 215 628 q 175 640 189 628 q 165 678 161 651 l 211 950 q 225 988 215 976 q 261 1000 235 1000 l 453 1000 q 494 988 479 1000 q 503 950 508 975 l 438 678 q 423 640 432 653 q 388 628 414 628 z "},"←":{"ha":1389,"x_min":240,"x_max":1132,"o":"m 1132 407 q 1122 372 1132 385 q 1089 361 1111 360 l 839 376 l 839 138 q 813 105 839 115 q 765 110 788 94 l 283 435 q 252 462 264 447 q 240 499 240 476 q 252 536 240 521 q 283 564 264 551 l 765 889 q 813 894 788 904 q 839 861 839 883 l 839 622 l 1089 638 q 1122 626 1111 639 q 1132 592 1132 614 l 1132 407 z "},"↑":{"ha":1389,"x_min":290,"x_max":1100,"o":"m 833 97 q 822 65 835 75 q 788 54 810 54 l 603 54 q 568 65 581 54 q 557 97 556 75 l 572 347 l 333 347 q 300 373 310 347 q 306 421 290 399 l 631 903 q 658 934 643 922 q 696 946 674 946 q 733 934 718 946 q 760 903 747 922 l 1085 421 q 1090 373 1100 399 q 1057 347 1079 347 l 818 347 l 833 97 z "},"→":{"ha":1389,"x_min":257,"x_max":1149,"o":"m 300 361 q 267 372 278 360 q 257 407 257 385 l 257 592 q 267 626 257 614 q 300 638 278 639 l 550 622 l 550 861 q 576 894 550 883 q 624 889 601 904 l 1106 564 q 1137 536 1125 551 q 1149 499 1149 521 q 1137 462 1149 476 q 1106 435 1125 447 l 624 110 q 576 105 601 94 q 550 138 550 115 l 550 376 l 300 361 z "},"↓":{"ha":1389,"x_min":290,"x_max":1100,"o":"m 557 903 q 568 935 556 925 q 603 946 581 946 l 788 946 q 822 935 810 946 q 833 903 835 925 l 818 653 l 1057 653 q 1090 627 1081 653 q 1085 579 1100 601 l 760 97 q 732 66 747 78 q 694 54 717 54 q 658 66 672 54 q 631 97 643 78 l 306 579 q 301 627 290 601 q 333 653 311 653 l 572 653 l 557 903 z "},"↖":{"ha":1389,"x_min":326,"x_max":1063,"o":"m 913 151 q 881 133 897 135 q 849 150 865 132 l 685 336 l 515 168 q 473 163 499 151 q 442 201 447 175 l 332 771 q 328 813 326 793 q 346 847 331 832 q 382 866 363 864 q 424 863 401 868 l 993 753 q 1031 722 1019 747 q 1026 679 1043 696 l 858 510 l 1044 346 q 1061 314 1063 331 q 1043 283 1060 297 l 913 151 z "},"↗":{"ha":1389,"x_min":326,"x_max":1063,"o":"m 540 150 q 508 133 524 132 q 476 151 492 135 l 346 283 q 328 314 329 297 q 344 346 326 331 l 531 510 l 363 679 q 358 722 346 696 q 396 753 369 747 l 965 863 q 1007 866 988 868 q 1043 847 1026 864 q 1060 813 1058 832 q 1057 771 1063 793 l 947 201 q 916 163 942 175 q 874 168 890 151 l 704 336 l 540 150 z "},"↘":{"ha":1389,"x_min":326,"x_max":1063,"o":"m 344 654 q 328 687 326 671 q 346 719 329 703 l 478 849 q 508 867 492 865 q 540 850 525 868 l 704 664 l 874 832 q 916 838 890 849 q 947 799 942 826 l 1057 229 q 1060 188 1063 207 q 1042 151 1058 168 q 1007 134 1026 136 q 965 138 988 132 l 396 247 q 358 278 369 253 q 363 321 346 304 l 531 490 l 344 654 z "},"↙":{"ha":1389,"x_min":326,"x_max":1063,"o":"m 1043 719 q 1061 687 1060 703 q 1044 654 1063 671 l 858 490 l 1026 321 q 1031 278 1043 304 q 993 247 1019 253 l 424 138 q 382 134 401 132 q 347 151 363 136 q 328 188 331 168 q 332 229 326 207 l 442 799 q 473 838 447 826 q 515 832 499 849 l 685 664 l 849 850 q 881 867 864 868 q 911 849 897 865 l 1043 719 z "},"↪":{"ha":1389,"x_min":247,"x_max":1199,"o":"m 707 -47 q 659 -52 685 -62 q 635 -21 633 -42 l 692 199 l 550 199 q 312 267 376 199 q 247 446 247 335 l 247 808 q 312 988 247 919 q 550 1056 376 1056 l 1021 1056 q 1052 1045 1042 1056 q 1063 1013 1063 1035 l 1063 867 q 1052 834 1063 843 q 1021 825 1042 825 l 572 825 q 502 806 525 825 q 479 740 479 786 l 479 514 q 502 449 479 468 q 572 429 525 429 l 692 429 l 635 650 q 659 681 633 671 q 707 676 685 690 l 1157 374 q 1187 349 1175 363 q 1199 314 1199 335 q 1187 279 1199 293 q 1157 256 1175 265 l 707 -47 z "},"↫":{"ha":1389,"x_min":219,"x_max":1171,"o":"m 711 -47 l 261 256 q 231 279 243 265 q 219 314 219 293 q 231 349 219 335 q 261 374 243 363 l 711 676 q 759 681 733 690 q 783 650 785 671 l 726 429 l 846 429 q 916 449 893 429 q 939 514 939 468 l 939 740 q 916 806 939 786 q 846 825 893 825 l 397 825 q 366 834 376 825 q 356 867 356 843 l 356 1013 q 366 1045 356 1035 q 397 1056 376 1056 l 868 1056 q 1106 988 1042 1056 q 1171 808 1171 919 l 1171 446 q 1106 267 1171 335 q 868 199 1042 199 l 726 199 l 783 -21 q 759 -52 785 -42 q 711 -47 733 -62 z "},"↰":{"ha":1389,"x_min":206,"x_max":1129,"o":"m 826 718 q 1065 650 1000 718 q 1129 471 1129 582 l 1129 42 q 1119 10 1129 21 q 1086 0 1108 0 l 940 0 q 907 10 918 0 q 897 42 896 21 l 897 403 q 874 468 897 449 q 804 488 851 488 l 713 488 l 769 267 q 745 236 771 246 q 697 240 719 226 l 247 543 q 217 568 229 554 q 206 603 206 582 q 217 638 206 624 q 247 661 229 651 l 697 964 q 745 969 719 979 q 769 938 771 958 l 713 718 l 826 718 z "},"↱":{"ha":1389,"x_min":261,"x_max":1185,"o":"m 564 718 l 678 718 l 621 938 q 645 969 619 958 q 693 964 671 979 l 1143 661 q 1173 638 1161 651 q 1185 603 1185 624 q 1173 568 1185 582 q 1143 543 1161 554 l 693 240 q 645 236 671 226 q 621 267 619 246 l 678 488 l 586 488 q 516 468 539 488 q 493 403 493 449 l 493 42 q 483 10 494 21 q 450 0 472 0 l 304 0 q 272 10 282 0 q 261 42 261 21 l 261 471 q 326 650 261 582 q 564 718 390 718 z "},"↲":{"ha":1389,"x_min":206,"x_max":1129,"o":"m 826 254 l 713 254 l 769 35 q 745 3 771 14 q 697 8 719 -7 l 247 311 q 217 335 229 321 q 206 369 206 349 q 217 404 206 390 q 247 429 229 418 l 697 732 q 745 736 719 746 q 769 706 771 726 l 713 485 l 804 485 q 874 504 851 485 q 897 569 897 524 l 897 931 q 907 962 896 951 q 940 972 918 972 l 1086 972 q 1119 962 1108 972 q 1129 931 1129 951 l 1129 501 q 1065 322 1129 390 q 826 254 1000 254 z "},"↳":{"ha":1389,"x_min":233,"x_max":1157,"o":"m 536 254 q 298 322 363 254 q 233 501 233 390 l 233 931 q 244 962 233 951 q 276 972 254 972 l 422 972 q 456 962 444 972 q 465 931 467 951 l 465 569 q 488 504 465 524 q 558 485 511 485 l 650 485 l 593 706 q 617 736 592 726 q 665 732 643 746 l 1115 429 q 1145 404 1133 418 q 1157 369 1157 390 q 1145 335 1157 349 q 1115 311 1133 321 l 665 8 q 617 3 643 -7 q 593 35 592 14 l 650 254 l 536 254 z "}}}
